<?xml version="1.0" encoding="UTF-8"?>
<svg width="44px" height="45px" viewBox="0 0 44 45" version="1.1" xmlns="http://www.w3.org/2000/svg" xmlns:xlink="http://www.w3.org/1999/xlink">
    <!-- Generator: Sketch 52.6 (67491) - http://www.bohemiancoding.com/sketch -->
    <title>np_quality_1078233_000000 copy</title>
    <desc>Created with Sketch.</desc>
    <g id="investore" stroke="none" stroke-width="1" fill="none" fill-rule="evenodd">
        <g id="np_quality_1078233_000000-copy">
            <path d="M34.9031478,31.9940065 L36.509771,32.9087387 L36.5563906,32.8176222 C38.8049286,29.707167 39.9991546,26.0037825 39.9991546,22.116171 C40.0457742,17.1317956 38.1630138,12.4648323 34.6734283,8.99022226 C31.1840264,5.46708571 26.5471283,3.5 21.5909253,3.5 C11.3539815,3.5 3,11.823605 3,22.0233257 C3,32.2230463 11.3094551,40.5 21.5441037,40.5 C23.3336065,40.5 25.0335056,40.271317 26.6403124,39.7674825 L26.7317614,39.7210324 L26.3641752,37.8915681 L26.2261066,37.9380182 C24.6661214,38.3953843 23.0594982,38.6705357 21.4530587,38.6705357 C12.2723548,38.6705357 4.78962214,31.2150115 4.78962214,22.0676902 C4.78962214,12.9203689 12.2723548,5.46484462 21.4530587,5.46484462 C30.6337625,5.46484462 38.1164952,12.9203689 38.1164952,22.0676902 C38.1164952,25.589043 37.0155452,28.9748325 34.9032488,31.9010606 L34.9031478,31.9940065 Z" id="Path" fill="#0033A5"></path>
            <path d="M37.6079027,6.98071002 C33.4555547,2.78200958 27.8857571,0.5 22.0449845,0.5 C19.9911065,0.5 18.0281468,0.774564119 16.1581138,1.32192145 L16.0671863,1.36827548 L16.3863224,3.05666498 L16.5236036,3.01031095 C18.3492729,2.50751849 20.2213143,2.23476179 22.0471662,2.23476179 C33.2293908,2.23476179 42.3577374,11.3166104 42.3577374,22.5454594 C42.3559542,33.7724828 33.2275651,42.8096023 22.0453405,42.8096023 C10.8165613,42.7632482 1.73476925,33.634644 1.73476925,22.4523497 C1.73476925,18.207277 3.01310291,14.1902318 5.47702623,10.7228077 L5.56795369,10.6318797 L4.06141137,9.76541165 L4.01505762,9.85633968 C1.36925199,13.5522933 0,17.9345203 0,22.5452769 C0,34.6404114 9.85952719,44.5 21.9545865,44.5 C34.0962003,44.5 44,34.6404114 44,22.5452769 C43.9982172,16.6565438 41.7625053,11.1347726 37.6083317,6.98043617 L37.6079027,6.98071002 Z" id="Path" fill="#0033A5"></path>
            <polygon id="Path" fill="#75BD1D" points="15.3076787 20.8181663 13 23.132942 19.3475366 29.5 30 18.8147757 27.6905903 16.5 19.3474922 24.8687567"></polygon>
        </g>
    </g>
</svg>