<?xml version="1.0" encoding="UTF-8"?>
<svg width="50px" height="50px" viewBox="0 0 50 50" version="1.1" xmlns="http://www.w3.org/2000/svg" xmlns:xlink="http://www.w3.org/1999/xlink">
    <!-- Generator: Sketch 58 (84663) - https://sketch.com -->
    <title>cheesse</title>
    <desc>Created with Sketch.</desc>
    <g id="cheesse" stroke="none" stroke-width="1" fill="none" fill-rule="evenodd">
        <g id="np_cheese_1211702_000000-copy" transform="translate(25.000000, 25.000000) scale(-1, 1) translate(-25.000000, -25.000000) translate(10.000000, 13.000000)" fill="#444547" fill-rule="nonzero">
            <path d="M10.69,13.9506667 C9.16916667,13.9506667 7.9309,15.1889333 7.9309,16.7097667 C7.9309,18.2306 9.16916667,19.4688667 10.69,19.4688667 C12.2108333,19.4688667 13.4491,18.2306 13.4491,16.7097667 C13.447798,15.1889333 12.2108333,13.9506667 10.69,13.9506667 L10.69,13.9506667 Z M10.69,18.4336667 C9.73946667,18.4336667 8.96603333,17.6602333 8.96603333,16.7097 C8.96603333,15.7591667 9.73946667,14.9857333 10.69,14.9857333 C11.6405333,14.9857333 12.4139667,15.7591667 12.4139667,16.7097 C12.4139667,17.6602333 11.6405333,18.4336667 10.69,18.4336667 Z" id="Shape"></path>
            <path d="M25.875,9.75 C24.8414882,9.75 24,10.5914882 24,11.625 C24,12.6585118 24.8414882,13.5 25.875,13.5 C26.9085118,13.5 27.75,12.6585118 27.75,11.625 C27.7491152,10.5914882 26.9085118,9.75 25.875,9.75 L25.875,9.75 Z M25.875,12.6249547 C25.3236359,12.6249547 24.875,12.1763188 24.875,11.6249547 C24.875,11.0735906 25.3236359,10.6249547 25.875,10.6249547 C26.4263641,10.6249547 26.875,11.0735906 26.875,11.6249547 C26.875,12.1763188 26.4263641,12.6249547 25.875,12.6249547 Z" id="Shape-Copy-2"></path>
            <path d="M14.483,7.05466667 C16.0298667,7.05466667 17.2421,6.22133333 17.2421,5.15753333 C17.2421,4.09373333 16.0298667,3.2604 14.483,3.2604 C12.9361333,3.2604 11.7239,4.09373333 11.7239,5.15753333 C11.7239,6.22133333 12.9361333,7.05466667 14.483,7.05466667 Z M14.483,4.29556667 C15.4699667,4.29556667 16.2069667,4.75 16.2069667,5.15753333 C16.2069667,5.56506667 15.47,6.0195 14.483,6.0195 C13.4960333,6.0195 12.7590333,5.56506667 12.7590333,5.15753333 C12.7590333,4.75126667 13.496,4.29556667 14.483,4.29556667 L14.483,4.29556667 Z" id="Shape"></path>
            <path d="M29.996,7.53266667 C29.994698,7.51704167 29.993396,7.50141667 29.9907917,7.48579333 C29.9855833,7.45844967 29.979073,7.43371 29.9699583,7.40766667 C29.9660523,7.394646 29.962146,7.381625 29.9569377,7.36860333 C29.9413127,7.33214333 29.921781,7.29699 29.8983443,7.26443667 C29.8970423,7.26313433 29.8970423,7.26183233 29.8970423,7.26053033 L29.8970423,7.25922833 L29.8970423,7.25792633 C23.576709,-1.16274033 13.985709,0.148593 13.8893757,0.162926333 C13.7943223,0.177249333 13.704479,0.217613 13.6315623,0.280113 L7.33989567,5.60444633 C7.216199,5.70991633 7.148489,5.86616633 7.15760233,6.028913 C7.166717,6.191673 7.25265567,6.34010967 7.38807233,6.42994633 C7.747439,6.66822633 7.94537233,6.95857967 7.90500567,7.18514633 C7.83339233,7.58617967 7.02870567,7.90387967 6.056039,7.730713 C5.85161233,7.694253 5.64977233,7.636963 5.45837233,7.55883967 C5.27998567,7.48722633 5.07687233,7.51977633 4.929739,7.64347633 L0.183739,11.6604763 C0.172020333,11.6695907 0.16551,11.6826117 0.155093333,11.6943297 C0.135562,11.713861 0.119936667,11.7320897 0.104313333,11.7542263 C0.084782,11.780268 0.0691566667,11.807613 0.0548333333,11.8362563 C0.0444166667,11.858392 0.0353023333,11.8805263 0.0274896667,11.9052663 C0.017073,11.9391197 0.0118646667,11.972973 0.00926066667,12.0081297 C0.00665633333,12.0237543 0.000146,12.0380773 0.000146,12.055003 L0.000146,15.2789697 C0.000146,15.4977197 0.138166,15.6930363 0.345212667,15.7672363 C0.963712667,15.9859863 1.38037933,16.5732363 1.38037933,17.2281697 C1.38037933,17.883103 0.965012667,18.4703697 0.345212667,18.689103 C0.138182667,18.7607163 0.000146,18.9560297 0.000146,19.1760697 L0.000146,22.7437363 C0.000146,22.8947763 0.0665526667,23.0380063 0.181136,23.1369697 C0.274886,23.2176997 0.394676,23.2619697 0.518369333,23.2619697 C0.544410667,23.2619697 0.570452667,23.2593657 0.597796,23.2554593 L29.563796,18.7724593 C29.813796,18.733396 29.999996,18.5172527 29.999996,18.2620593 L29.999996,7.57205933 C29.999996,7.55903833 29.9960897,7.54601767 29.9960897,7.532996 L29.996,7.53266667 Z M5.36966667,8.6264 C5.53373,8.67848333 5.703,8.71884667 5.87226667,8.75009667 C7.3944,9.02223333 8.73423333,8.41546333 8.92173333,7.36859667 C9.00637,6.89853 8.83970333,6.41546333 8.4699,6.00399667 L14.1809,1.17199667 C15.3111,1.05481 23.0065667,0.526163333 28.5285667,7.19799667 L2.2539,11.2616633 L5.36966667,8.6264 Z M1.03366667,22.1407333 L1.03366667,19.5118333 C1.8722,19.0691333 2.41256667,18.1915333 2.41256667,17.2266667 C2.41256667,16.2618333 1.8709,15.3842333 1.03366667,14.9415 L1.03366667,12.4975 L26.5063333,8.55483333 L28.9646667,8.17463333 L28.9646667,17.8179667 L1.03366667,22.1407333 Z" id="Shape"></path>
        </g>
    </g>
</svg>