<?xml version="1.0" encoding="UTF-8"?>
<svg width="50px" height="50px" viewBox="0 0 50 50" version="1.1" xmlns="http://www.w3.org/2000/svg" xmlns:xlink="http://www.w3.org/1999/xlink">
    <!-- Generator: Sketch 58 (84663) - https://sketch.com -->
    <title>cherry</title>
    <desc>Created with Sketch.</desc>
    <g id="cherry" stroke="none" stroke-width="1" fill="none" fill-rule="evenodd">
        <g id="np_cherry_1010665_000000-copy-3" transform="translate(15.000000, 14.000000)" fill="#4A4A4A">
            <path d="M9.422,0.325304598 C8.62378462,0.437867126 7.97383462,0.603102299 7.97383462,0.603102299 L7.97383462,0.60413492 C7.84027192,0.638214575 7.73194692,0.735285149 7.68567692,0.863339632 C7.63835154,0.990360437 7.65728115,1.13286262 7.73721038,1.2443994 C7.73721038,1.2443994 8.12527962,1.78244078 8.66374115,2.37311779 C9.20115269,2.96382124 9.85950269,3.62370975 10.5925373,3.88704653 C11.3266219,4.15038067 12.2626027,4.06053791 13.060845,3.94797538 C13.8590604,3.83541285 14.5090104,3.67017768 14.5090104,3.67017768 C14.6425731,3.63506699 14.7508981,3.53799377 14.7982181,3.41097297 C14.8455435,3.28291848 14.8255612,3.14041894 14.7456346,3.02888216 C14.7456346,3.02888216 14.3575654,2.49084078 13.8191038,1.90016377 C13.2806423,1.30948676 12.6233423,0.647509747 11.8903077,0.385204 C11.1562231,0.122900897 10.2202423,0.212746299 9.422,0.325308828 L9.422,0.325304598 Z M9.53978846,1.14526782 C10.2864731,1.0399331 11.1835769,1.01514862 11.6000231,1.16385631 C12.0164962,1.31359689 12.6885231,1.90017355 13.1922808,2.45264941 C13.4499427,2.73663332 13.4825385,2.7975701 13.6371308,2.99481493 C13.389985,3.04644861 13.3247692,3.07330045 12.9419769,3.12699884 C12.1952923,3.23233355 11.2981885,3.25711803 10.8817423,3.10841034 C10.4652692,2.95866977 9.79324231,2.3720931 9.28948462,1.81961724 C9.03077,1.53563333 8.99922692,1.47469655 8.84463462,1.27745172 C9.09178038,1.22581805 9.15699615,1.19896621 9.53978846,1.14526782 L9.53978846,1.14526782 Z" id="Shape" fill-rule="nonzero"></path>
            <path d="M18.8830385,0.598951724 C18.1636808,0.498780115 17.3223346,0.415134138 16.6482077,0.654717471 C15.9740808,0.894300805 15.3830385,1.4870531 14.8982077,2.01578874 C14.4133769,2.54452437 14.0621115,3.02678414 14.0621115,3.02678414 L14.0621115,3.02781676 C13.9811323,3.13831457 13.96115,3.28185837 14.0084754,3.40990756 C14.0558008,3.5379594 14.1641231,3.63503262 14.2987331,3.66911228 C14.2987331,3.66911228 14.8845254,3.81781917 15.6038831,3.91799078 C16.3232408,4.01816239 17.1645869,4.10077733 17.8387138,3.86222503 C18.5128408,3.6226417 19.1038831,3.0298894 19.5887138,2.50012274 C20.0735446,1.9713871 20.42481,1.48912733 20.42481,1.48912733 L20.42481,1.49016022 C20.5057892,1.37862872 20.5257715,1.23611861 20.4784462,1.10806941 C20.4311208,0.978983897 20.3227985,0.881910678 20.1881885,0.847831023 C20.1881885,0.847831023 19.6023962,0.699124126 18.8830385,0.598952517 L18.8830385,0.598951724 Z M18.76525,1.41891494 C19.0681346,1.46125609 19.1017885,1.47984379 19.3142385,1.52424966 C19.1806758,1.69051322 19.1670015,1.72562391 18.9640231,1.94663011 C18.5138962,2.43819563 17.9112769,2.95762552 17.5526615,3.08465425 C17.1940462,3.21270874 16.3905538,3.19205368 15.7216769,3.09911174 C15.4187923,3.05677059 15.3851385,3.03921656 15.1726885,2.99584438 C15.3073038,2.82958082 15.3199254,2.79343909 15.5229038,2.57243289 C15.9730308,2.08086737 16.57565,1.56349955 16.9342654,1.43543978 C17.2928808,1.3073853 18.0963731,1.32597564 18.76525,1.41891679 L18.76525,1.41891494 Z" id="Shape" fill-rule="nonzero"></path>
            <path d="M15.0349231,11.341908 C11.7874615,11.341908 9.1455,13.9422034 9.1455,17.1373793 C9.1455,20.3335862 11.7873269,22.9328506 15.0349231,22.9328506 C18.2825192,22.9328506 20.9243462,20.3325552 20.9243462,17.1373793 C20.9243462,13.9411724 18.2825192,11.341908 15.0349231,11.341908 Z M15.0349231,12.1701195 C17.8281923,12.1701195 20.083,14.3893552 20.083,17.1383839 C20.083,19.8874126 17.8281923,22.1066483 15.0349231,22.1066483 C12.2416538,22.1066483 9.98684615,19.8874126 9.98684615,17.1383839 C9.98684615,14.3893552 12.2416538,12.1701195 15.0349231,12.1701195 Z" id="Shape" fill-rule="nonzero"></path>
            <path d="M5.86411538,8.85949425 C3.28959615,8.91422632 1.04542308,10.6129931 0.331153846,13.0481379 C-0.382926923,15.4832034 0.597229231,18.0970345 2.74688077,19.4921034 C4.89652692,20.8882828 7.72334231,20.7468195 9.71753462,19.1430586 C9.80482462,19.0738683 9.86056346,18.9736993 9.87213231,18.8631989 C9.88370088,18.7537347 9.85109865,18.6442706 9.77958423,18.5585678 C9.70912115,18.4728545 9.60605692,18.4191561 9.49457654,18.4077962 C9.38309885,18.3974695 9.27162115,18.4305154 9.18539192,18.5007374 C7.47324577,19.8773006 5.05539192,19.9991741 3.21089192,18.8012443 C1.36623038,17.6033408 0.528061154,15.3676351 1.14013038,13.2772787 C1.75324962,11.1871339 3.67256885,9.73422126 5.88209192,9.68769253 C8.09166885,9.64018828 10.0718612,11.0115937 10.7756304,13.0739799 C10.8502988,13.2908434 11.0890419,13.4065017 11.3088419,13.3342183 C11.5286419,13.2619348 11.6474804,13.0274987 11.5749173,12.8106378 C10.7556481,10.4075872 8.439725,8.80493667 5.86426346,8.8596608 L5.86411538,8.85949425 Z" id="Path"></path>
            <path d="M14.4070769,2.64973419 C14.2135673,2.64769311 14.0442346,2.77677943 13.9969308,2.96163333 L13.6309385,4.40531954 C13.0725,6.60390805 11.7957538,8.56091724 9.9974,9.9766069 L7.62165385,11.8478287 L7.62060223,11.8478287 C7.52805415,11.9139207 7.46600454,12.0151233 7.45128031,12.1276885 C7.43550527,12.240251 7.46810723,12.3538472 7.53962031,12.4416253 C7.61218608,12.530437 7.71735569,12.5862028 7.831978,12.5954953 C7.94661108,12.6047897 8.06019415,12.5676124 8.14643954,12.493259 L10.5221857,10.6240992 C12.4635818,9.09573598 13.8412626,6.98084632 14.444878,4.60655897 L14.5353234,4.24717736 L15.0033272,5.16730954 C16.0970772,7.31942218 16.3926118,9.77814862 15.8425734,12.1225624 L15.4660811,13.733567 L15.467133,13.733567 C15.4345318,13.8430311 15.4492542,13.9607594 15.5070976,14.0599026 C15.5659918,14.1580069 15.6627453,14.2282309 15.7763283,14.2540491 C15.8888587,14.2798662 16.0076999,14.2581798 16.1044668,14.1951849 C16.201223,14.1321914 16.2664253,14.0320198 16.2853576,13.9194493 L16.6628999,12.3084447 C17.2570922,9.77630333 16.9352807,7.12128379 15.754246,4.79669759 L14.7793345,2.87693782 L14.7803864,2.87693782 C14.7099233,2.73855713 14.5658418,2.65077908 14.4070441,2.64973419 L14.4070769,2.64973419 Z" id="Path"></path>
            <path d="M5.58869231,11.4143448 C5.38782192,11.4215737 5.2206,11.5661501 5.18694615,11.7602966 C5.06074423,12.4387701 5.25320115,13.1368598 5.71068077,13.6583782 C6.16815769,14.1798966 6.84228462,14.4700667 7.54271538,14.4463264 L7.543767,14.4463264 C7.77618854,14.4390978 7.95814008,14.2470169 7.94971315,14.0177598 C7.94129969,13.7895363 7.74673738,13.6108713 7.51431315,13.619146 C7.06841315,13.6346363 6.64141315,13.4508177 6.34905546,13.1183011 C6.05774777,12.7857793 5.93468238,12.3427517 6.015667,11.9100609 L6.015667,11.9090283 C6.04090738,11.7851059 6.00725354,11.657054 5.92311892,11.5599835 C5.840037,11.4639439 5.71699046,11.4102429 5.58868046,11.414375 L5.58869231,11.4143448 Z" id="Path"></path>
            <path d="M14.0242308,13.9958966 C13.8759438,13.9989947 13.7402731,14.0785115 13.6677154,14.2055323 C13.5940969,14.3325531 13.5940969,14.4884852 13.6677154,14.6144829 C14.0200308,15.2413254 14.6321,15.6895082 15.3441077,15.8402771 C16.0560885,15.9910487 16.7996231,15.8320156 17.3833154,15.4055243 C17.4737608,15.340466 17.5347577,15.2423591 17.5515846,15.1329082 C17.5694632,15.023444 17.5410679,14.9119125 17.4737608,14.8230955 C17.4064531,14.7342838 17.3054915,14.6754223 17.1940031,14.6599303 C17.0825254,14.64444 16.969995,14.6733552 16.8805915,14.7415116 C16.4904223,15.0265266 15.9961146,15.1318771 15.5218108,15.0306771 C15.0464569,14.9294745 14.6394608,14.6320633 14.4049338,14.2138334 L14.4038822,14.2138334 C14.3292138,14.0764864 14.1830295,13.9918068 14.024213,13.9959362 L14.0242308,13.9958966 Z" id="Path"></path>
        </g>
    </g>
</svg>