<?xml version="1.0" encoding="UTF-8"?>
<svg width="50px" height="50px" viewBox="0 0 50 50" version="1.1" xmlns="http://www.w3.org/2000/svg" xmlns:xlink="http://www.w3.org/1999/xlink">
    <!-- Generator: Sketch 58 (84663) - https://sketch.com -->
    <title>Citrus fruits </title>
    <desc>Created with Sketch.</desc>
    <g id="Citrus-fruits-" stroke="none" stroke-width="1" fill="none" fill-rule="evenodd">
        <g id="np_blueberry_1168987_000000-copy-3" transform="translate(11.000000, 11.000000)" fill="#4A4A4A">
            <path d="M14.88704,28 C11.42848,28 8.61448,25.18152 8.61448,21.71652 C8.61448,18.25152 11.42876,15.43304 14.88704,15.43304 C18.3456,15.43304 21.1596,18.25152 21.1596,21.71652 C21.1596,25.18152 18.34532,28 14.88704,28 Z M14.88704,16.22152 C11.86276,16.22152 9.40296,18.686836 9.40296,21.7154 C9.40296,24.745 11.862816,27.2104 14.88704,27.2104 C17.911264,27.2104 20.37112,24.745084 20.37112,21.7154 C20.37112,18.68692 17.910172,16.22152 14.88704,16.22152 L14.88704,16.22152 Z" id="Shape" fill-rule="nonzero"></path>
            <path d="M6.27256,26.42612 C2.814,26.42612 6.83897383e-14,23.60764 6.83897383e-14,20.14264 C6.83897383e-14,16.67764 2.81428,13.85916 6.27256,13.85916 C8.438192,13.85916 10.48684,15.007608 11.62,16.85824 C11.73375,17.0441768 11.6746868,17.286976 11.4898448,17.40074 C11.303908,17.51449 11.0611088,17.4565216 10.9473448,17.2705848 C9.9574888,15.6540328 8.1659368,14.6488608 6.2738648,14.6488608 C3.2495848,14.6488608 0.7897848,17.1141768 0.7897848,20.1438608 C0.78869112,23.1734608 3.2485208,25.6377408 6.2727448,25.6377408 C7.4758768,25.6377408 8.6636928,25.2330568 9.6173448,24.4969648 C9.790158,24.36462 10.0373448,24.3963384 10.1707928,24.5680596 C10.3042296,24.7408728 10.2714192,24.9880596 10.099698,25.1215076 C9.008146,25.9636916 7.648606,26.4263636 6.272658,26.4263636 L6.27256,26.42612 Z" id="Path"></path>
            <path d="M17.8906,17.02204 C17.7899736,17.02204 17.68935,16.9837584 17.6127868,16.9071952 C17.4585684,16.7540716 17.4574736,16.5036032 17.6105992,16.3493792 C18.6387312,15.3136032 19.2052832,13.9387472 19.2052832,12.4764192 C19.2052832,9.4468192 16.7454272,6.9825392 13.7212032,6.9825392 C10.6969232,6.9825392 8.23712316,9.4478552 8.23712316,12.4764192 C8.23712316,13.1534592 8.36071796,13.8184592 8.60243916,14.4495512 C8.68009436,14.652988 8.57947048,14.8804992 8.37603396,14.9592352 C8.17150236,15.0368904 7.94399396,14.9351728 7.86634996,14.73283 C7.58853676,14.00987 7.44853396,13.251882 7.44853396,12.476422 C7.44853396,9.011422 10.261694,6.192942 13.721094,6.192942 C17.179654,6.192942 19.993654,9.011422 19.993654,12.476422 C19.993654,14.147686 19.346154,15.720502 18.170378,16.904902 C18.0938148,16.9825572 17.9920964,17.02204 17.890378,17.02204 L17.8906,17.02204 Z" id="Path"></path>
            <path d="M21.72744,23.07592 C21.35994,23.07592 20.991348,23.0431068 20.6304,22.97967 C20.4160236,22.9413884 20.272756,22.7368568 20.311032,22.522486 C20.3493136,22.3081124 20.5538452,22.16375 20.768216,22.203118 C21.083216,22.2588996 21.40586,22.2873364 21.72744,22.2873364 C24.75172,22.2873364 27.21152,19.8220204 27.21152,16.7923364 C27.21152,13.7627364 24.751664,11.2984564 21.72744,11.2984564 C21.007756,11.2984564 20.305572,11.4373616 19.641664,11.7108124 C19.4393192,11.7939388 19.209624,11.6976874 19.12652,11.4964388 C19.043416,11.2951902 19.139645,11.0643988 19.3408936,10.9812948 C20.1010376,10.6673868 20.9038536,10.5087948 21.7274456,10.5087948 C25.1860056,10.5087948 28.0000056,13.3272748 28.0000056,16.7922748 C28.0000056,20.2572748 25.1857256,23.0757548 21.7274456,23.0757548 L21.72744,23.07592 Z" id="Path"></path>
            <path d="M3.76908,15.20736 C3.6629852,15.20736 3.5568932,15.1647048 3.479224,15.0804864 C0.945,12.3253424 -0.059136,9.2158864 0.409024,5.5736464 C0.43308636,5.3888016 0.5829292,5.2455144 0.769972,5.2312904 C4.297412,4.955664 7.083132,6.2769224 9.048452,9.1577304 C9.170952,9.3381988 9.1250152,9.5831904 8.9445468,9.7056904 C8.7640784,9.8281904 8.5190868,9.7822536 8.3965868,9.6028772 C6.6367308,7.0216132 4.2677068,5.8424772 1.1538268,5.9956372 C0.8147748,9.2551172 1.7674188,12.0551172 4.0588268,14.5454372 C4.206482,14.705124 4.1955452,14.9555812 4.03585784,15.1021612 C3.96038944,15.1721612 3.86413944,15.2071612 3.76898424,15.2071612 L3.76908,15.20736 Z" id="Path"></path>
            <path d="M10.09204,8.23928 C9.9268848,8.23928 9.773764,8.1353748 9.717988,7.9713116 C8.764252,5.1419116 9.595488,2.4959116 12.18658,0.1049916 C12.3200168,-0.0175084 12.51908,-0.0339136 12.67112,0.065618 C15.74356,2.089066 17.27264,4.583978 17.21356,7.480018 C17.2091853,7.6954864 17.0330916,7.86611 16.819824,7.86611 L16.812168,7.86611 C16.5945128,7.861735 16.421708,7.68236 16.426076,7.46361 C16.478576,4.900966 15.19234,2.74953 12.497396,0.89789 C10.302252,3.025246 9.63719596,5.25861 10.467396,7.71841 C10.537396,7.9251284 10.4258328,8.148266 10.2191144,8.218266 C10.1764592,8.23248496 10.1338012,8.23904732 10.0922408,8.23904732 L10.09204,8.23928 Z" id="Path"></path>
            <path d="M13.25744,7 C13.0747848,7 12.910716,6.8720316 12.871348,6.686092 L12.204164,3.501092 C12.1593192,3.2878104 12.2960376,3.078908 12.509308,3.034052 C12.7225896,2.990302 12.931492,3.1259256 12.976348,3.339196 L13.643532,6.524196 C13.6883768,6.7374776 13.5516584,6.94638 13.338388,6.991236 C13.312138,6.99779864 13.2847932,7 13.2574512,7 L13.25744,7 Z" id="Path"></path>
            <path d="M8.11132,14.62664 C7.9964752,14.62664 7.8816332,14.5763268 7.803964,14.4800768 L3.775604,9.4815168 C3.6388856,9.3119852 3.6651356,9.0637008 3.8346672,8.9269768 C4.0041988,8.7902584 4.2524832,8.8176032 4.3892072,8.987132 L8.4175672,13.985692 C8.5542856,14.1552236 8.5280356,14.403508 8.358504,14.540232 C8.2852224,14.5982004 8.1977224,14.62664 8.1113172,14.62664 L8.11132,14.62664 Z" id="Path"></path>
            <path d="M16.68632,24.6498286 C16.6447568,24.6498286 16.6031936,24.6432376 16.5616332,24.629019 C16.3549148,24.5601138 16.2433572,24.336979 16.3122568,24.130283 C16.56382,23.377783 16.2346016,22.588099 15.5783488,22.368243 C15.3716304,22.2993378 15.2611648,22.075111 15.3300672,21.869507 C15.3989724,21.6627886 15.6231992,21.552323 15.8288032,21.6212254 C16.8963032,21.9788694 17.4486592,23.2170014 17.0603552,24.3807654 C17.0045736,24.5448286 16.85145,24.6498286 16.6863032,24.6498286 L16.68632,24.6498286 Z" id="Path"></path>
            <path d="M16.68632,24.6498 C16.6447568,24.6498 16.6031936,24.6432376 16.5616332,24.629019 C16.3549148,24.5601138 16.2433572,24.336979 16.3122568,24.130283 C16.5091332,23.539651 16.9280328,23.048559 17.4596128,22.783875 C17.9375728,22.5465302 18.4680608,22.5049698 18.9547568,22.6679382 C19.1614752,22.7368434 19.2719408,22.9610702 19.2030384,23.1677942 C19.1330384,23.3734178 18.9099064,23.4838862 18.7043024,23.4160758 C18.4177504,23.3198258 18.1005664,23.3460758 17.8118024,23.4904494 C17.4661704,23.6632626 17.1916584,23.9870014 17.0603944,24.3807654 C17.0046128,24.5448286 16.8514892,24.6498286 16.6863424,24.6498286 L16.68632,24.6498 Z" id="Path"></path>
            <path d="M16.1798,22.46552 C15.9763632,22.46552 15.774024,22.4327068 15.578248,22.3670832 C15.3715296,22.298178 15.261064,22.0739512 15.3299664,21.8683472 C15.3988716,21.6616288 15.6230984,21.5511632 15.8287024,21.6200656 C16.1152544,21.7163156 16.4324384,21.6900656 16.7212024,21.545692 C17.0668344,21.3728788 17.3402544,21.04914 17.4715184,20.655376 C17.5404236,20.4486576 17.7646504,20.336008 17.9702544,20.4060024 C18.1769728,20.4749076 18.2885304,20.6980424 18.219628,20.9047384 C18.0227544,21.4953704 17.604944,21.9853704 17.072272,22.2511464 C16.787904,22.3933332 16.482732,22.46552 16.179772,22.46552 L16.1798,22.46552 Z" id="Path"></path>
            <path d="M18.82888,23.4357203 C18.7873168,23.4357203 18.7446616,23.4291574 18.7030984,23.4149387 C17.6355984,23.0572947 17.0832424,21.8191627 17.4715464,20.6553987 C17.5404516,20.4486803 17.7646784,20.3360307 17.9702824,20.4060251 C18.1770008,20.4749303 18.2885584,20.6980651 18.219656,20.9047611 C17.9691876,21.6561691 18.298406,22.4469451 18.953564,22.6668011 C19.1602824,22.7357063 19.270748,22.9599331 19.2018456,23.1666571 C19.1471588,23.3318123 18.9940324,23.4357203 18.8288856,23.4357203 L18.82888,23.4357203 Z" id="Path"></path>
            <path d="M10.47928,12.7464403 C10.4377168,12.7464403 10.3961536,12.7398774 10.3545932,12.7256587 C10.1478748,12.6567535 10.0363172,12.4336187 10.1052196,12.2269227 C10.355688,11.4744227 10.0264696,10.6847387 9.3713116,10.4648827 C9.1645932,10.3959775 9.0541276,10.1717507 9.12303,9.96502668 C9.1919352,9.75940028 9.41507,9.64784268 9.621766,9.71674508 C10.689266,10.0743891 11.241622,11.3125211 10.853318,12.4762851 C10.7986312,12.6425351 10.6444128,12.7464403 10.479266,12.7464403 L10.47928,12.7464403 Z" id="Path"></path>
            <path d="M10.47928,12.74644 C10.4377168,12.74644 10.3961536,12.7398774 10.3545932,12.7256587 C10.1478748,12.6567535 10.0363172,12.4336187 10.1052196,12.2269227 C10.3020932,11.6362907 10.7209956,11.1462907 11.2525756,10.8805147 C11.7294436,10.6420779 12.2610236,10.6016095 12.7477196,10.7645779 C12.954438,10.8334831 13.0649036,11.0577099 12.9960012,11.2644339 C12.9260012,11.4700603 12.7028692,11.5805259 12.4972652,11.5127155 C12.2107132,11.4164655 11.8935292,11.4427155 11.6047652,11.5870891 C11.2591332,11.7599023 10.9846212,12.0836411 10.8533572,12.4774051 C10.7986704,12.6425603 10.644452,12.7464683 10.4793052,12.7464683 L10.47928,12.74644 Z" id="Path"></path>
            <path d="M9.97388,10.56356 C9.7704432,10.56356 9.567012,10.5307468 9.371236,10.4651232 C9.1645176,10.396218 9.054052,10.1719912 9.1229544,9.9652672 C9.1918596,9.7596408 9.4149944,9.6480832 9.6216904,9.7169856 C9.9082424,9.8132356 10.2254264,9.7869856 10.5141904,9.642612 C10.8598224,9.4697988 11.1343344,9.144968 11.2655984,8.752296 C11.3345036,8.5455776 11.5576384,8.432928 11.7643344,8.5029224 C11.9710528,8.5718276 12.0826104,8.7949624 12.013708,9.0016584 C11.8168344,9.5922904 11.397932,10.0833824 10.866352,10.3480664 C10.580892,10.491348 10.276812,10.5635348 9.973852,10.5635348 L9.97388,10.56356 Z" id="Path"></path>
            <path d="M12.62296,11.53348 C12.5813968,11.53348 12.5387416,11.5269176 12.4971784,11.512699 C11.4296784,11.155055 10.8773224,9.91583096 11.2656264,8.75315896 C11.3345316,8.54644056 11.5576664,8.43379096 11.7643624,8.50378536 C11.9710808,8.57269056 12.0826384,8.79582536 12.013736,9.00252136 C11.7632676,9.75502136 12.092486,10.5457974 12.747644,10.7656534 C12.9543624,10.8345586 13.064828,11.0587854 12.9959256,11.2655094 C12.9412388,11.4295726 12.7870204,11.53348 12.6229656,11.53348 L12.62296,11.53348 Z" id="Path"></path>
            <path d="M22.92388,15.6340828 C22.7959116,15.6340828 22.6712248,15.5717352 22.594656,15.4579852 C22.4743428,15.276422 22.5235612,15.0314332 22.7051244,14.9111172 C23.1491764,14.6158012 23.2334004,13.9584732 22.8943428,13.4454852 C22.7740296,13.263922 22.8243428,13.0189332 23.005906,12.8986172 C23.1863744,12.778304 23.432458,12.8275224 23.552774,13.0101804 C24.132458,13.8851804 23.948722,15.0325364 23.14263,15.5673644 C23.0748168,15.6122092 22.9993484,15.6340828 22.92388,15.6340828 L22.92388,15.6340828 Z" id="Path"></path>
            <path d="M24.49132,14.3368484 C24.3742884,14.3368484 24.2572568,14.3248087 24.139136,14.3007452 C23.641492,14.2001188 23.187584,13.8883892 22.894452,13.4454292 C22.7741388,13.263866 22.824452,13.0188772 23.0060152,12.8985612 C23.1864836,12.778248 23.4325672,12.8274664 23.5528832,13.0101244 C23.7311648,13.2791876 24.0024232,13.4684004 24.2966192,13.5274804 C24.5394324,13.5777936 24.7800672,13.5329491 24.9725672,13.4049804 C25.1541304,13.2846672 25.3991192,13.3338856 25.5194352,13.5154488 C25.6397484,13.697012 25.59053,13.9420008 25.4089668,14.0623168 C25.13553,14.2427852 24.8194268,14.3368484 24.4913228,14.3368484 L24.49132,14.3368484 Z" id="Path"></path>
            <path d="M24.8906,16.1406 C24.7626316,16.1406 24.63685,16.0782552 24.561376,15.9634132 C24.3830944,15.69435 24.111836,15.5051372 23.81764,15.4460572 C23.5748268,15.395744 23.335284,15.4405885 23.141692,15.5685572 C22.9612236,15.6888704 22.71514,15.639652 22.594824,15.4580888 C22.4745108,15.2765256 22.5237292,15.0315368 22.7052924,14.9112208 C23.0738844,14.6662208 23.5245164,14.5819968 23.9740284,14.672784 C24.4716724,14.7734104 24.9255804,15.08514 25.2187124,15.5281 C25.3390256,15.7096632 25.2887124,15.954652 25.1071492,16.074968 C25.0404308,16.118718 24.9649624,16.1406 24.890586,16.1406 L24.8906,16.1406 Z" id="Path"></path>
            <path d="M24.8906,16.1406 C24.7626316,16.1406 24.63685,16.0782552 24.561376,15.9634132 C23.981692,15.0884132 24.165428,13.9410572 24.97152,13.4062292 C25.1530832,13.285916 25.398072,13.3351344 25.518388,13.5166976 C25.6387012,13.6982608 25.5894828,13.9432496 25.4079196,14.0635656 C24.9638676,14.3588816 24.8796436,15.0162096 25.2187012,15.5291976 C25.3390144,15.7107608 25.2887012,15.9557496 25.107138,16.0760656 C25.0404196,16.1187208 24.9649512,16.1406 24.8905748,16.1406 L24.8906,16.1406 Z" id="Path"></path>
            <path d="M3.98356,20.7384856 C3.642296,20.7384856 3.304336,20.6312932 3.005744,20.422388 C2.610888,20.1467616 2.330888,19.726756 2.217152,19.23894 C2.1679336,19.0267532 2.2991836,18.814572 2.511376,18.765348 C2.7235628,18.7172216 2.935744,18.8473796 2.984968,19.059572 C3.054968,19.357072 3.2223128,19.611928 3.456376,19.774888 C3.6784076,19.9291064 3.934336,19.9837932 4.177152,19.9258248 C4.3904336,19.8787932 4.60152,20.0078564 4.650744,20.2200488 C4.6999624,20.4322356 4.5687124,20.6444168 4.35652,20.6936408 C4.23402,20.7242672 4.1082384,20.7384856 3.98356,20.7384856 L3.98356,20.7384856 Z" id="Path"></path>
            <path d="M1.619856,21.3248157 C1.4404824,21.3248157 1.278592,21.2023 1.235948,21.020748 C1.1867296,20.8085612 1.3179796,20.59638 1.530172,20.547156 C2.04862,20.4257508 2.355948,19.839512 2.21704,19.240116 C2.1678216,19.0279292 2.2990716,18.815748 2.511264,18.766524 C2.7234508,18.7183976 2.935632,18.8485556 2.984856,19.060748 C3.2232928,20.083392 2.651264,21.095116 1.70954,21.314972 C1.6800084,21.3215346 1.6493848,21.3248157 1.6198532,21.3248157 L1.619856,21.3248157 Z" id="Path"></path>
            <path d="M3.28664,22.4865376 C3.1072664,22.4865376 2.945376,22.36402 2.902732,22.181376 C2.6642952,21.158732 3.236324,20.147008 4.178048,19.927152 C4.3913296,19.8779336 4.602416,20.0091836 4.65164,20.221376 C4.700864,20.4335684 4.5696084,20.645744 4.357416,20.694968 C3.838968,20.8163732 3.53164,21.402612 3.670548,22.002008 C3.7197664,22.2141948 3.5885164,22.426376 3.376324,22.4756 C3.3456976,22.4832563 3.3161688,22.4865376 3.2866372,22.4865376 L3.28664,22.4865376 Z" id="Path"></path>
            <path d="M3.28664,22.4865264 C3.1072664,22.4865264 2.945376,22.36402 2.902732,22.181376 C2.8294504,21.866376 2.640232,21.59402 2.385376,21.435428 C2.175376,21.304178 1.935836,21.2626148 1.71052,21.3140228 C1.4983332,21.364336 1.286152,21.2319912 1.236928,21.0197988 C1.1877096,20.807612 1.3189596,20.5954308 1.531152,20.5462068 C1.961008,20.4444884 2.412704,20.5232381 2.8021,20.7649568 C3.23414,21.0329252 3.551324,21.4846408 3.67164,22.0019968 C3.7208584,22.2141836 3.5896084,22.4263648 3.377416,22.4755888 C3.3456976,22.4832451 3.316166,22.4865264 3.2866344,22.4865264 L3.28664,22.4865264 Z" id="Path"></path>
        </g>
    </g>
</svg>