<?xml version="1.0" encoding="UTF-8"?>
<svg width="50px" height="50px" viewBox="0 0 50 50" version="1.1" xmlns="http://www.w3.org/2000/svg" xmlns:xlink="http://www.w3.org/1999/xlink">
    <!-- Generator: Sketch 58 (84663) - https://sketch.com -->
    <title>coffe</title>
    <desc>Created with Sketch.</desc>
    <g id="coffe" stroke="none" stroke-width="1" fill="none" fill-rule="evenodd">
        <g id="Group-37-Copy" transform="translate(14.000000, 10.000000)" fill="#444547" fill-rule="nonzero">
            <path d="M10.1755412,3.91453695 C8.05044002,1.78943577 4.9369059,1.49415107 3.20749414,3.22356283 C1.47808237,4.9529746 1.82356943,8.06631107 3.89846826,10.1916099 C5.08356002,11.3767017 6.61611532,12.0194499 8.0482659,12.0194499 C9.13492943,12.0194499 10.1231647,11.673953 10.8643412,10.9327864 C12.6458824,9.15124519 12.3003459,6.03795813 10.1752941,3.91483342 L10.1755412,3.91453695 Z M9.48264002,4.60551107 C11.2120518,6.33492283 11.509313,8.80551107 10.2238165,10.1391346 C9.63127061,9.54658871 9.43436473,9.05247107 9.2355812,8.55835342 C8.98852237,7.96580754 8.6912612,7.27285695 7.80343061,6.38502636 C6.91362355,5.4952193 6.22264943,5.1999346 5.63010355,4.95287577 C5.08578355,4.75599954 4.5916659,4.50894071 3.90069179,3.86621224 C4.44501179,3.32189224 5.23441414,3.02660754 6.02579296,3.02660754 C7.21088473,3.07293107 8.49445414,3.61722636 9.48268943,4.60546166 L9.48264002,4.60551107 Z M4.64181885,9.4482593 C3.20966826,8.01610871 2.76377649,6.08786401 3.35632237,4.7039393 C4.1477012,5.39491342 4.74024708,5.64197224 5.28259061,5.88903107 C5.82691061,6.13608989 6.36925414,6.33296613 7.16063296,7.07412283 C7.90180943,7.8152993 8.14886826,8.3596193 8.34572473,8.95216519 C8.54260096,9.44628283 8.78965979,10.0388287 9.38416237,10.7317793 C8.00023767,11.3745275 6.07396943,10.8804 4.64176943,9.44820989 L4.64181885,9.4482593 Z" id="Shape" transform="translate(7.055188, 7.059725) rotate(46.000000) translate(-7.055188, -7.059725) "></path>
            <path d="M11.55,15.9468594 C11.55,18.3672452 13.9703859,20.3437158 16.9852941,20.3437158 C20.0002024,20.3437158 22.4205882,18.3672452 22.4205882,15.9468594 C22.4205882,13.5264735 20.0002024,11.5500014 16.9852941,11.5500014 C13.9703859,11.5480729 11.55,13.4762711 11.55,15.9468594 Z M16.9852941,19.3554805 C14.5649082,19.3554805 12.5382353,17.8229252 12.5382353,15.9468594 C13.37784,15.997042 13.8719576,16.1939182 14.3660753,16.3907944 C14.9586212,16.6378532 15.6515718,16.9351144 16.9350918,16.9351144 C18.2205882,16.9351144 18.9115624,16.637873 19.5041082,16.3907944 C20.0484282,16.1939182 20.5425459,15.9468594 21.4805788,15.9468594 C21.3821407,17.8229747 19.40568,19.3554805 16.9852447,19.3554805 L16.9852941,19.3554805 Z M21.2336188,14.9586241 C20.1951318,15.0088067 19.6025859,15.2558655 19.0602424,15.5029441 C18.5159224,15.7500029 17.9735788,15.9468791 16.8869153,15.9468791 C15.8002518,15.9468791 15.2559318,15.7500029 14.7135882,15.5029441 C14.2194706,15.3060678 13.6269247,15.059009 12.6869153,15.0088264 C13.2312353,13.5766758 14.9104447,12.5382382 16.9371176,12.5382382 C18.9618635,12.4880556 20.6912753,13.5245464 21.2336188,14.9586241 L21.2336188,14.9586241 Z" id="Shape" transform="translate(16.985294, 15.946858) rotate(-100.000000) translate(-16.985294, -15.946858) "></path>
            <path d="M1.05,25.1432394 C1.10021224,26.4769618 1.64257553,27.6138277 2.63081082,28.3550041 C3.32178494,28.8491218 4.11316376,29.0961806 4.90454259,29.0961806 C6.48532376,29.0961806 8.21473553,28.2063735 9.40180376,26.6255924 C11.1814179,24.2052065 11.0327873,21.0919688 9.10456235,19.6575453 C8.11632706,18.9163688 6.88103294,18.7195124 5.59553647,19.0649994 C4.36024235,19.4104964 3.17515059,20.2018653 2.33356941,21.3869571 C1.49396471,22.523823 1.05,23.8594724 1.05,25.1430418 L1.05,25.1432394 Z M8.61052376,26.0330465 C7.425432,27.66403 5.54738965,28.4052065 4.11326259,28.0095171 C4.70580847,27.1699124 4.85443906,26.5271641 5.00306965,25.9346183 C5.15170024,25.3420724 5.30031106,24.7977524 5.94110259,23.9079453 C6.58385082,23.0181383 7.07796847,22.7710794 7.620312,22.4255924 C8.11442965,22.128351 8.60854729,21.8330465 9.25129553,21.1400959 C9.992472,22.4255924 9.84576847,24.402063 8.61047435,26.0329971 L8.61052376,26.0330465 Z M3.12482965,21.9314747 C3.86600612,20.9432394 4.80403906,20.3004912 5.84247671,20.0052065 C6.18797365,19.9067684 6.48522494,19.8565858 6.78050965,19.8565858 C7.42325788,19.8565858 8.01580376,20.053462 8.45971906,20.4009058 C7.91539906,21.043654 7.47148376,21.2907128 7.02756847,21.5859975 C6.48324847,21.9314945 5.84247671,22.2769717 5.10130024,23.3154093 C4.36012376,24.353847 4.16326729,25.0448211 4.01463671,25.6875693 C3.866016,26.2318893 3.76757788,26.7742328 3.22325788,27.5656117 C2.53228376,27.0212917 2.086392,26.181687 2.03816612,25.1452258 C2.03816612,24.0566352 2.38366306,22.9197693 3.12482965,21.931534 L3.12482965,21.9314747 Z" id="Shape"></path>
        </g>
    </g>
</svg>