<?xml version="1.0" encoding="UTF-8"?>
<svg width="53px" height="49px" viewBox="0 0 53 49" version="1.1" xmlns="http://www.w3.org/2000/svg" xmlns:xlink="http://www.w3.org/1999/xlink">
    <!-- Generator: Sketch 52.6 (67491) - http://www.bohemiancoding.com/sketch -->
    <title>np_investments_744555_000000</title>
    <desc>Created with Sketch.</desc>
    <g id="investore" stroke="none" stroke-width="1" fill="none" fill-rule="evenodd">
        <g id="np_investments_744555_000000" transform="translate(-0.056738, 0.000000)">
            <path d="M35.7087694,34.2447175 L35.7062801,23.9186683 C35.7062801,21.259948 30.7722347,19.8235546 26.1296868,19.8235546 C21.4871389,19.8235546 16.5530935,21.2574625 16.5530935,23.9186683 L16.5530935,34.184812 C14.8652882,33.0745211 11.895378,32.4845158 9.03750384,32.4845158 C4.71589642,32.4845158 0.123057344,33.8213641 0.123057344,36.2958432 L0.123057344,44.2667747 C0.123057344,46.7387683 4.71602388,48.0706457 9.03750384,48.0706457 C12.4330616,48.0706457 15.9852659,47.2441412 17.3573565,45.6932263 C18.9356749,47.2466266 22.6125336,48.0706457 26.1303241,48.0706457 C29.685205,48.0706457 33.4018307,47.2267431 34.9530005,45.6409683 C36.2898488,47.2267431 39.8870459,48.0706457 43.3200128,48.0706457 C47.6416202,48.0706457 52.2344593,46.7362828 52.2344593,44.2642892 L52.2344593,36.2933577 C52.2344593,33.8188787 47.6414927,32.4845158 43.3200128,32.4845158 C40.4085461,32.484707 37.3789217,33.0921231 35.7087694,34.2447175 Z M9.03425747,33.7592918 C13.2040618,33.7592918 15.954616,34.9044426 16.5498471,35.9026975 L16.5498471,36.6868858 C15.9523854,37.6826552 13.2040618,38.8253205 9.03425747,38.8253205 C4.29936591,38.8253205 1.39439583,37.3515818 1.39439583,36.2935489 C1.39439583,35.235516 4.30204254,33.7592918 9.03425747,33.7592918 Z M1.39439583,38.3249185 C3.05983214,39.4899528 6.1068547,40.1048763 9.03425747,40.1048763 C11.8946171,40.1048763 14.8619781,39.5123919 16.5498471,38.3996092 L16.5498471,40.6823907 C15.9523854,41.6756747 13.2040618,42.8208254 9.03425747,42.8208254 C4.29936591,42.8208254 1.39439583,41.3470867 1.39439583,40.2915392 L1.39439583,38.3249185 Z M1.39439583,42.317938 C3.05983214,43.4804868 6.1068547,44.0954103 9.03425747,44.0954103 C11.8946171,44.0954103 14.8619781,43.5054177 16.5498471,42.3926286 L16.5498471,44.6778956 C15.9523854,45.673665 13.2040618,46.8163303 9.03425747,46.8163303 C4.29936591,46.8163303 1.39439583,45.3425916 1.39439583,44.2845587 L1.39439583,42.317938 Z M34.3366788,43.9732413 C34.3366788,45.1083866 31.2149655,46.6916759 26.1289896,46.6916759 C21.3044947,46.6916759 18.2526925,45.2677097 17.948704,44.152448 L17.948704,42.1584237 C19.7435744,43.3956632 22.9972709,44.0504174 26.1289896,44.0504174 C29.275621,44.0504174 32.5490735,43.3906923 34.3366788,42.1410256 L34.3366788,43.9732413 Z M34.3366788,39.9602746 C34.3366788,41.0954199 31.2149655,42.6787092 26.1289896,42.6787092 C21.3044947,42.6787092 18.2526925,41.254743 17.948704,40.1394813 L17.948704,38.145457 C19.7435744,39.3826965 22.9972709,40.0374507 26.1289896,40.0374507 C29.275621,40.0374507 32.5490735,39.3777256 34.3366788,38.1280589 L34.3366788,39.9602746 Z M34.3366788,35.9497934 C34.3366788,37.0849387 31.2149655,38.668228 26.1289896,38.668228 C21.0430136,38.668228 17.9213004,37.0849387 17.9213004,35.9497934 L17.9213004,34.1175776 C19.7087145,35.3672444 22.9847799,36.0269695 26.1289896,36.0269695 C29.275621,36.0269695 32.5490735,35.3672444 34.3366788,34.1175776 L34.3366788,35.9497934 Z M34.3366788,31.9393121 C34.3366788,33.0744574 31.2149655,34.6577467 26.1289896,34.6577467 C21.0430136,34.6577467 17.9213004,33.0744574 17.9213004,31.9393121 L17.9213004,30.1070964 C19.7087145,31.3567631 22.9847799,32.0164882 26.1289896,32.0164882 C29.275621,32.0164882 32.5490735,31.3567631 34.3366788,30.1070964 L34.3366788,31.9393121 Z M34.3366788,27.9288309 C34.3366788,29.0639761 31.2149655,30.6472655 26.1289896,30.6472655 C21.0430136,30.6472655 17.9213004,29.0639761 17.9213004,27.9288309 L17.9213004,26.0991006 C19.7087145,27.3512527 22.9847799,28.0109779 26.1289896,28.0109779 C29.275621,28.0109779 32.5490735,27.3512527 34.3366788,26.0991006 L34.3366788,27.9288309 Z M26.1289896,26.6368479 C21.0430774,26.6368479 17.9213004,25.0535586 17.9213004,23.9184133 C17.9213004,22.7807189 21.0430136,21.1950079 26.1289896,21.1950079 C31.2149655,21.1950079 34.3366788,22.7807826 34.3366788,23.9184133 C34.3366788,25.0535586 31.2149655,26.6368479 26.1289896,26.6368479 Z M50.9585399,44.2841126 C50.9585399,45.3395963 48.0508932,46.8158842 43.3186783,46.8158842 C38.8476895,46.8158842 36.0095714,45.5014686 35.7087694,44.4658684 L35.7087694,42.33489 C37.3791766,43.4850116 40.4063156,44.0949005 43.3186783,44.0949005 C46.2462722,44.0949005 49.2957802,43.4800152 50.9585399,42.3174281 L50.9585399,44.2841126 Z M50.9585399,40.2886077 C50.9585399,41.3440914 48.0508932,42.8203793 43.3186783,42.8203793 C38.8476895,42.8203793 36.0095714,41.5059637 35.7087694,40.4703635 L35.7087694,38.3419342 C37.3791766,39.4945413 40.4063156,40.1044302 43.3186783,40.1044302 C46.2462722,40.1044302 49.2957802,39.489545 50.9585399,38.3244724 L50.9585399,40.2886077 Z M43.3186783,38.8248107 C38.8476895,38.8248107 36.0095714,37.5103951 35.7087694,36.4747949 L35.7087694,36.1138261 C36.0124775,35.0757404 38.8504299,33.7588394 43.3186783,33.7588394 C48.0535698,33.7588394 50.9585399,35.2350635 50.9585399,36.2955819 C50.9585399,37.3510656 48.0508932,38.8248681 43.3186783,38.8248681 L43.3186783,38.8248107 Z" id="Shape" fill="#0033A5" fill-rule="nonzero"></path>
            <path d="M26.8057941,0.632321548 C26.7161781,0.542699114 26.6116175,0.472998441 26.494617,0.425698597 C26.4896378,0.423208695 26.4846593,0.423208695 26.4796801,0.420719431 C26.3701423,0.37839939 26.25065,0.353504198 26.1286722,0.353504198 C26.0066944,0.353504198 25.8871957,0.378398115 25.7801497,0.420719431 C25.7751706,0.423208695 25.770192,0.423208695 25.7652135,0.425698597 C25.648213,0.472997804 25.541167,0.545190927 25.4540364,0.632321548 L21.1622542,4.92410368 C20.7888391,5.29751881 20.7888391,5.90247502 21.1622542,6.27586465 C21.5356694,6.64927978 22.1406256,6.64927978 22.5140152,6.27586465 L25.1752209,3.61465893 L25.1752209,11.9589576 C25.1752209,12.4867122 25.603405,12.9148962 26.1311596,12.9148962 C26.6589142,12.9148962 27.0870982,12.4867122 27.0870982,11.9589576 L27.0846089,3.6172081 L29.7458147,6.27841382 C29.9325222,6.46512139 30.1764842,6.55722926 30.4229379,6.55722926 C30.6668998,6.55722926 30.9133535,6.46512139 31.1000611,6.27841382 C31.4734762,5.9049987 31.4734762,5.30004249 31.1000611,4.92665285 L26.8057941,0.632321548 Z" id="Path" fill="#75BD1D"></path>
            <path d="M9.64924467,13.6820312 C9.55962861,13.5924151 9.45506804,13.5227081 9.33806752,13.4754082 C9.33308835,13.4729189 9.32810983,13.4729189 9.32313066,13.4704297 C9.21359284,13.428109 9.09908413,13.4032144 8.97460818,13.4032144 C8.85013859,13.4032144 8.7331317,13.4281084 8.62608569,13.4704297 C8.62110716,13.4729189 8.616128,13.4729189 8.61114947,13.4754082 C8.49414895,13.5227074 8.38710294,13.5949005 8.29997232,13.6820312 L4.00819019,17.9738133 C3.63477506,18.3472284 3.63477506,18.9521846 4.00819019,19.3255743 C4.38160532,19.6989894 4.98656153,19.6989894 5.35995116,19.3255743 L8.02115689,16.6643685 L8.02115689,26.0512204 C8.02115689,26.578975 8.44933455,27.007159 8.97709553,27.007159 C9.50485014,27.007159 9.93303417,26.578975 9.93303417,26.0512204 L9.93054427,16.6643685 L12.59175,19.3255743 C12.7784576,19.5122818 13.0224195,19.6043897 13.2688732,19.6043897 C13.5128351,19.6043897 13.7592888,19.5122818 13.9459964,19.3255743 C14.3194115,18.9521591 14.3194115,18.3472029 13.9459964,17.9738133 L9.64924467,13.6820312 Z" id="Path" fill="#75BD1D"></path>
            <path d="M43.9608141,13.6792271 C43.8711981,13.589611 43.7666375,13.519904 43.649637,13.4726041 C43.6446578,13.4701149 43.6396787,13.4701149 43.6347001,13.467625 C43.5251623,13.4253049 43.4106536,13.4004097 43.2861776,13.4004097 C43.1617017,13.4004097 43.0447012,13.4253036 42.9376552,13.467625 C42.9326766,13.4701149 42.9276975,13.4701149 42.9227183,13.4726041 C42.8057178,13.5199033 42.6986718,13.5920965 42.6115411,13.6792271 L38.319759,17.9710092 C37.9463439,18.3444243 37.9463439,18.9493805 38.319759,19.3227702 C38.6931741,19.6961853 39.2981304,19.6961853 39.67152,19.3227702 L42.3327257,16.6615645 L42.3327257,25.0058631 C42.3327257,25.5336177 42.7609097,25.9618018 43.2886644,25.9618018 C43.816419,25.9618018 44.244603,25.5336177 44.244603,25.0058631 L44.2421137,16.6641136 L46.9033195,19.3253193 C47.090027,19.5120269 47.3339889,19.6041348 47.5804427,19.6041348 C47.8244046,19.6041348 48.0708583,19.5120269 48.2575659,19.3253193 C48.6259974,18.9494188 48.6259974,18.3444626 48.2525873,17.9710729 L43.9608141,13.6792271 Z" id="Path" fill="#75BD1D"></path>
        </g>
    </g>
</svg>