<svg xmlns="http://www.w3.org/2000/svg" width="44" height="20" viewBox="0 0 44 20">
    <g fill="none" fill-rule="nonzero">
        <path fill="#000" d="M20.513 19.304l23.22-4.514L40.87.066 17.65 4.579l2.863 14.725zm.627-.71l5.836-7.923 3.073 1.9c.371.252.823.311 1.248.229a1.77 1.77 0 0 0 1.101-.685l2.137-2.913 8.35 5.165-21.745 4.227zm21.795-4.882l-8.08-4.983 5.625-7.647 2.455 12.63zM39.933.836l-8.014 10.931a1.168 1.168 0 0 1-1.586.308L18.808 4.942 39.933.836zm-21.54 4.54l8.085 5.01-5.63 7.618-2.455-12.629z"/>
        <g stroke="#000" stroke-linecap="round" stroke-width=".5">
            <path d="M14.305 16.19l-9.816 1.908M13.16 10.3L.399 12.781M13.732 13.245l-5.89 1.145"/>
        </g>
    </g>
</svg>
