<?xml version="1.0" encoding="UTF-8"?>
<svg width="31px" height="25px" viewBox="0 0 31 25" version="1.1" xmlns="http://www.w3.org/2000/svg" xmlns:xlink="http://www.w3.org/1999/xlink">
    <!-- Generator: sketchtool 55 (78076) - https://sketchapp.com -->
    <title>0D03313C-C2C0-41AD-87A1-E12999F18D25</title>
    <desc>Created with sketchtool.</desc>
    <g id="homepage" stroke="none" stroke-width="1" fill="none" fill-rule="evenodd">
        <g id="contact" transform="translate(-389.000000, -646.000000)" fill-rule="nonzero">
            <g id="Group-6" transform="translate(404.650883, 658.421989) rotate(-25.000000) translate(-404.650883, -658.421989) translate(389.150883, 647.530098)">
                <g id="np_phone_1755636_000000" transform="translate(9.216216, 0.000000)" fill="#000000">
                    <path d="M1.48525799,0 C0.666237224,0 0,0.666237224 0,1.48525799 L0,20.2985258 C0,21.1175466 0.666237224,21.7837838 1.48525799,21.7837838 L11.8820639,21.7837838 C12.7010846,21.7837838 13.3673219,21.1175466 13.3673219,20.2985258 L13.3673219,1.48525799 C13.3673219,0.666237224 12.7010846,0 11.8820639,0 L1.48525799,0 Z M1.48525799,0.495085995 L11.8820639,0.495085995 C12.435174,0.495085995 12.8722359,0.932147912 12.8722359,1.48525799 L12.8722359,2.47542998 L0.495085995,2.47542998 L0.495085995,1.48525799 C0.495085995,0.932147912 0.932147912,0.495085995 1.48525799,0.495085995 Z M0.495085995,2.97051597 L12.8722359,2.97051597 L12.8722359,17.8230958 L0.495085995,17.8230958 L0.495085995,2.97051597 Z M0.495085995,18.3181818 L12.8722359,18.3181818 L12.8722359,20.2985258 C12.8722359,20.8516359 12.435174,21.2886978 11.8820639,21.2886978 L1.48525799,21.2886978 C0.932147912,21.2886978 0.495085995,20.8516359 0.495085995,20.2985258 L0.495085995,18.3181818 Z M4.95085995,19.5558968 C4.81451822,19.5558968 4.70331695,19.6670981 4.70331695,19.8034398 C4.70331695,19.9397815 4.81451822,20.0509828 4.95085995,20.0509828 L8.41646192,20.0509828 C8.55280365,20.0509828 8.66400491,19.9397815 8.66400491,19.8034398 C8.66400491,19.6670981 8.55280365,19.5558968 8.41646192,19.5558968 L4.95085995,19.5558968 Z" id="Shape"></path>
                </g>
                <g id="Group-4" transform="translate(25.972973, 5.864865)" stroke="#000000" stroke-linecap="round" stroke-width="0.5">
                    <path d="M0.744744745,1.21021021 C1.51743487,2.39880704 1.90377994,3.58740387 1.90377994,4.77600071 C1.90377994,5.96459754 1.51743487,7.15319437 0.744744745,8.3417912" id="Line-8-Copy"></path>
                    <path d="M3.16516517,-1.42108547e-14 C4.30208714,1.74887941 4.87054813,3.49775883 4.87054813,5.24663824 C4.87054813,6.99551766 4.30208714,8.74439707 3.16516517,10.4932765" id="Line-8-Copy-2"></path>
                </g>
                <g id="Group-4-Copy" transform="translate(2.513514, 11.310811) scale(-1, 1) translate(-2.513514, -11.310811) translate(0.000000, 5.864865)" stroke="#000000" stroke-linecap="round" stroke-width="0.5">
                    <path d="M0.744744745,1.21021021 C1.51743487,2.39880704 1.90377994,3.58740387 1.90377994,4.77600071 C1.90377994,5.96459754 1.51743487,7.15319437 0.744744745,8.3417912" id="Line-8-Copy"></path>
                    <path d="M3.16516517,-1.42108547e-14 C4.30208714,1.74887941 4.87054813,3.49775883 4.87054813,5.24663824 C4.87054813,6.99551766 4.30208714,8.74439707 3.16516517,10.4932765" id="Line-8-Copy-2"></path>
                </g>
            </g>
        </g>
    </g>
</svg>