<svg xmlns="http://www.w3.org/2000/svg" width="29" height="26" viewBox="0 0 29 26">
    <g fill="#000" fill-rule="evenodd">
        <path fill-rule="nonzero" d="M26.409 19.48h-5.484a.284.284 0 0 1-.284-.285V13.23H7.715v5.965a.284.284 0 0 1-.284.284H1.948c-.93 0-1.687-.76-1.687-1.693V6.252c0-.934.757-1.693 1.687-1.693h24.46c.934 0 1.693.76 1.693 1.693v11.534a1.694 1.694 0 0 1-1.693 1.693zm-5.199-.569h5.2c.62 0 1.125-.504 1.125-1.125l-.001-11.534c0-.621-.504-1.125-1.125-1.125H1.949c-.617 0-1.12.504-1.12 1.125v11.534c0 .621.503 1.125 1.12 1.125h5.2v-5.965c0-.157.127-.284.284-.284h13.494c.157 0 .284.127.284.284v5.965z"/>
        <path fill-rule="nonzero" d="M20.926 5.127H7.432a.284.284 0 0 1-.283-.284L7.147.419c0-.157.127-.284.284-.284h13.494c.157 0 .284.127.284.284v4.425a.282.282 0 0 1-.283.283zm-13.21-.568h12.927V.703H7.716v3.856z"/>
        <path d="M23.021 13.226H5.337a.284.284 0 1 1 0-.568H23.02a.284.284 0 1 1 0 .568z"/>
        <path fill-rule="nonzero" d="M20.926 25.866H7.432a.284.284 0 0 1-.283-.284l-.002-12.637c0-.157.127-.284.284-.284h13.494c.157 0 .284.127.284.284V25.58a.282.282 0 0 1-.283.285zm-13.21-.569h12.927V13.23H7.716v12.067z"/>
        <path d="M22.659 7.712a.373.373 0 0 1-.109-.023.346.346 0 0 1-.091-.062.32.32 0 0 1-.062-.092.358.358 0 0 1-.023-.107.311.311 0 0 1 .085-.205.299.299 0 0 1 .404 0 .311.311 0 0 1 .062.311.508.508 0 0 1-.062.091.3.3 0 0 1-.204.087zM25.5 7.712a.373.373 0 0 1-.11-.023.346.346 0 0 1-.09-.062.32.32 0 0 1-.063-.092.358.358 0 0 1-.023-.107c0-.074.035-.148.086-.204a.301.301 0 0 1 .09-.057.29.29 0 0 1 .313.057.311.311 0 0 1 .063.311.508.508 0 0 1-.063.092.312.312 0 0 1-.204.085zM14.38 15.677H9.615a.284.284 0 1 1 0-.568h4.765a.284.284 0 1 1 0 .568zM18.742 19.352H9.615a.284.284 0 1 1 0-.568h9.127a.284.284 0 1 1 0 .568zM18.742 23.027H9.615a.284.284 0 1 1 0-.568h9.127a.284.284 0 1 1 0 .568z"/>
    </g>
</svg>
