<?xml version="1.0"?>
<svg xmlns="http://www.w3.org/2000/svg" xmlns:xlink="http://www.w3.org/1999/xlink" xmlns:svgjs="http://svgjs.com/svgjs" version="1.1" width="512" height="512" x="0" y="0" viewBox="0 0 60 60" style="enable-background:new 0 0 512 512" xml:space="preserve" class=""><g><g xmlns="http://www.w3.org/2000/svg" id="Page-1" fill="none" fill-rule="evenodd"><g id="006---Call" fill="rgb(0,0,0)" fill-rule="nonzero"><path id="Shape" d="m30 0c-10.9083086.00439016-20.95532575 5.92716181-26.24109703 15.4692705-5.28577129 9.5421086-4.97790395 21.2008819.80409703 30.4507295l-4.446 11.406c-.24886295.7028792-.08606091 1.4858367.42236253 2.0312517.50842343.5454149 1.27803872.7627149 1.99663747.5637483l12.872-3.7c10.9695448 6.0978506 24.5755501 4.7228661 34.1033019-3.4463835 9.5277519-8.1692496 12.9633064-21.4059761 8.6111796-33.1777086-4.3521269-11.77173253-15.5719974-19.59020223-28.1224815-19.5969079zm0 58c-4.8994146.0059712-9.7139537-1.2788027-13.959-3.725-.2383497-.1374002-.5218618-.1734247-.787-.1l-13.263 3.848 4.62-11.85c.11699318-.2999878.08237734-.6379576-.093-.908-6.98692093-10.7410422-5.79303-24.854029 2.89896834-34.26871 8.69199836-9.41468088 22.66494176-11.72955111 33.92866106-5.62089491 11.2637192 6.10865621 16.9450552 19.08263761 13.7952411 31.50301291-3.1498142 12.4203753-14.3273212 21.1189446-27.1408705 21.121592z" fill="#313131" data-original="#000000" style="" class=""/><path id="Shape" d="m38.224 5.333c-.5246705-.17535041-1.0921496.10782949-1.2675.6325s.1078295 1.09214959.6325 1.2675c5.3809442 1.80562684 9.9527305 5.4510873 12.911 10.295.186314.3049262.5211514.4872923.8783822.4784027.3572309-.0088896.6825832-.2076843.8535-.5215.1709169-.3138158.1614318-.6949765-.0248822-.9999027-3.2030073-5.2473688-8.1546164-9.19647454-13.983-11.152z" fill="#313131" data-original="#000000" style="" class=""/><path id="Shape" d="m50.161 34.6-6.961-.77c-.9295345-.1039641-1.8528698.2419534-2.4852804.9310833-.6324105.6891298-.8979442 1.638708-.7147196 2.5559167.0803466.3388406-.0452493.6933262-.321.906-3.55 2.415-9.622.845-14.12-3.653s-6.071-10.57-3.654-14.121c.2110357-.2743129.5630035-.3998481.9-.321.9173575.1841464 1.867487-.0810627 2.5568577-.7136943.6893707-.6326315 1.035012-1.5565439.9301423-2.4863057l-.774-6.966c-.1882457-1.65898141-1.6528587-2.87331243-3.318-2.751-3.1666627.10350963-6.1830135 1.37516434-8.468 3.57-6.532 6.538-3.868 19.845 5.951 29.663 4.3107217 4.481428 9.8129978 7.636788 15.858 9.094 1.4059739.3034315 2.8396734.4599386 4.278.467 3.5334465.1308894 6.9697518-1.1721513 9.528-3.613 2.1939875-2.2854563 3.4651969-5.3015956 3.569-8.468.1181541-1.6664009-1.0956181-3.1308578-2.755-3.324zm-2.228 10.378c-2.73 2.73-6.987 3.654-11.98 2.6-5.6642201-1.3761979-10.8174111-4.3418935-14.853-8.548-9.041-9.038-11.709-21.076-5.951-26.83 1.9422938-1.8465255 4.4981621-2.91060999 7.177-2.988h.075c.5730866-.01066182 1.0620678.41234572 1.134.981l.774 6.966c.0306639.2942755-.0805249.5855827-.2994679.7845859-.218943.1990033-.5195125.2819542-.8095321.2234141-1.1265337-.2427182-2.2888447.2131442-2.95 1.157-2.946 4.332-1.273 11.494 3.893 16.66s12.329 6.84 16.66 3.891c.9432615-.6615856 1.3986517-1.8236973 1.156-2.95-.0597702-.29113.02478-.5932014.227-.811.1996411-.2201676.4924866-.331657.788-.3l6.965.773c.5968854.0770337 1.0281674.6090948.98 1.209-.0761879 2.6801887-1.1395519 5.2378176-2.986 7.182z" fill="#313131" data-original="#000000" style="" class=""/></g></g></g></svg>
