<?xml version="1.0" encoding="UTF-8"?>
<svg width="44px" height="20px" viewBox="0 0 44 20" version="1.1" xmlns="http://www.w3.org/2000/svg" xmlns:xlink="http://www.w3.org/1999/xlink">
    <!-- Generator: sketchtool 55 (78076) - https://sketchapp.com -->
    <title>32832B4A-3ED4-4572-B981-5DD2C2BF19B8</title>
    <desc>Created with sketchtool.</desc>
    <g id="homepage" stroke="none" stroke-width="1" fill="none" fill-rule="evenodd">
        <g id="contact" transform="translate(-586.000000, -648.000000)" fill-rule="nonzero">
            <g id="Group-5" transform="translate(607.536052, 659.464597) rotate(-11.000000) translate(-607.536052, -659.464597) translate(586.036052, 651.964597)">
                <g id="np_mail_1454261_000000" transform="translate(19.000000, 0.000000)" fill="#000000">
                    <path d="M0,15 L23.6538462,15 L23.6538462,0 L0,0 L0,15 Z M0.750461538,14.4230769 L7.99142308,7.75903846 L10.6450385,10.2109615 C10.9616827,10.5287308 11.394375,10.6729615 11.8270673,10.6729615 C12.2597596,10.6729615 12.6924519,10.5287308 13.038375,10.2109615 L15.6919904,7.75903846 L22.9035288,14.4230769 L0.750461538,14.4230769 Z M23.0768077,13.7886923 L16.0963269,7.35571154 L23.0768077,0.922730769 L23.0768077,13.7886923 Z M22.5866538,0.576865385 L12.6347308,9.77821154 C12.1727308,10.2109038 11.4808846,10.2109038 11.0188846,9.77821154 L1.06696154,0.576865385 L22.5866538,0.576865385 Z M0.57675,0.922788462 L7.55723077,7.38375 L0.57675,13.7884615 L0.57675,0.922788462 Z" id="Shape"></path>
                </g>
                <g id="Group-3" transform="translate(0.000000, 4.000000)" stroke="#000000" stroke-linecap="round" stroke-width="0.5">
                    <path d="M13.5,6.75903846 L3.5,6.75903846" id="Line-8"></path>
                    <path d="M13.5,0.759038462 L0.5,0.759038462" id="Line-8-Copy-4"></path>
                    <path d="M13.5,3.75903846 L7.5,3.75903846" id="Line-8-Copy-3"></path>
                </g>
            </g>
        </g>
    </g>
</svg>