<?xml version="1.0" encoding="UTF-8"?>
<svg width="28px" height="26px" viewBox="0 0 28 26" version="1.1" xmlns="http://www.w3.org/2000/svg" xmlns:xlink="http://www.w3.org/1999/xlink">
    <!-- Generator: sketchtool 55 (78076) - https://sketchapp.com -->
    <title>49CE14C2-18B9-4CC2-8D10-B7F914A5DB19</title>
    <desc>Created with sketchtool.</desc>
    <g id="homepage" stroke="none" stroke-width="1" fill="none" fill-rule="evenodd">
        <g id="contact" transform="translate(-919.000000, -646.000000)" fill="#000000">
            <g id="np_fax_1328529_000000" transform="translate(919.000000, 646.000000)">
                <path d="M26.0700417,19.4793182 L20.657,19.4793182 C20.5020521,19.4793182 20.3767258,19.3523643 20.3767258,19.1954041 L20.3767258,13.2298814 L7.61630917,13.2298814 L7.61630917,19.1954041 C7.61630917,19.3523643 7.49098292,19.4793182 7.336035,19.4793182 L1.92299333,19.4793182 C1.00471,19.4793182 0.257314167,18.7199114 0.257314167,17.7862159 L0.257314167,6.25196591 C0.257314167,5.31827045 1.00471,4.55886364 1.92299333,4.55886364 L26.069785,4.55886364 C26.99151,4.55886364 27.7411808,5.31827045 27.7411808,6.25196591 L27.7411808,17.7862159 C27.7423204,18.7199114 26.99151,19.4793182 26.069785,19.4793182 L26.0700417,19.4793182 Z M20.9384583,18.9114841 L26.0712083,18.9114841 C26.684175,18.9114841 27.18205,18.4071432 27.18205,17.7862159 L27.1809108,6.25196591 C27.1809108,5.63103864 26.6830358,5.12669773 26.0700691,5.12669773 L1.92327742,5.12669773 C1.31488992,5.12669773 0.81926075,5.63103864 0.81926075,6.25196591 L0.81926075,17.7862159 C0.81926075,18.4071432 1.31486075,18.9114841 1.92441492,18.9114841 L7.05716492,18.9114841 L7.05716492,12.9459614 C7.05716492,12.7890011 7.18249117,12.6620473 7.33743908,12.6620473 L20.6584391,12.6620473 C20.813387,12.6620473 20.9387132,12.7890011 20.9387132,12.9459614 L20.9384583,18.9114841 Z" id="Shape" fill-rule="nonzero"></path>
                <path d="M20.6581667,5.12672727 L7.33716667,5.12672727 C7.18221875,5.12672727 7.0568925,4.99977341 7.0568925,4.84281318 L7.05575325,0.418972273 C7.05575325,0.262012045 7.1810795,0.135058182 7.33602742,0.135058182 L20.6570274,0.135058182 C20.8119753,0.135058182 20.9373016,0.262012045 20.9373016,0.418972273 L20.9373016,4.843995 C20.9384408,4.9998 20.8131158,5.12675386 20.6581678,5.12675386 L20.6581667,5.12672727 Z M7.61745833,4.55889318 L20.377875,4.55889318 L20.377875,0.702915909 L7.61745833,0.702915909 L7.61745833,4.55889318 Z" id="Shape" fill-rule="nonzero"></path>
                <path d="M22.7260833,13.2263182 L5.268375,13.2263182 C5.11342708,13.2263182 4.98810083,13.0993643 4.98810083,12.9424041 C4.98810083,12.7854439 5.11342708,12.65849 5.268375,12.65849 L22.7260833,12.65849 C22.8810313,12.65849 23.0063575,12.7854439 23.0063575,12.9424041 C23.0063575,13.0993643 22.8810313,13.2263182 22.7260833,13.2263182 Z" id="Path"></path>
                <path d="M20.6581667,25.8661591 L7.33716667,25.8661591 C7.18221875,25.8661591 7.0568925,25.7392052 7.0568925,25.582245 L7.05575325,12.9447677 C7.05575325,12.7878075 7.1810795,12.6608536 7.33602742,12.6608536 L20.6570274,12.6608536 C20.8119753,12.6608536 20.9373016,12.7878075 20.9373016,12.9447677 L20.9373016,25.5813586 C20.9384408,25.7394741 20.8131158,25.866425 20.6581678,25.866425 L20.6581667,25.8661591 Z M7.61745833,25.2971727 L20.377875,25.2971727 L20.377875,13.2296273 L7.61745833,13.2296273 L7.61745833,25.2971727 Z" id="Shape" fill-rule="nonzero"></path>
                <path d="M22.3682083,7.71195455 C22.3351683,7.71195455 22.2952917,7.7004135 22.2611113,7.68887245 C22.2269308,7.67156059 22.1995871,7.65424814 22.1711058,7.62654927 C22.1426228,7.59769636 22.1266733,7.56999632 22.1095817,7.53537495 C22.0981883,7.50190586 22.0867949,7.46151132 22.0867949,7.42804223 C22.0867949,7.38764768 22.0981883,7.35417859 22.1095817,7.31955427 C22.1266713,7.28031495 22.1437621,7.25146086 22.1711058,7.22260677 C22.2497188,7.14874314 22.3727671,7.12104427 22.4798642,7.16605382 C22.5140446,7.17759516 22.5413883,7.19952291 22.5698696,7.22260677 C22.6200013,7.280312 22.6484825,7.35302336 22.6484825,7.426887 C22.6484825,7.46035609 22.6427857,7.50075064 22.6313926,7.53421973 C22.6143027,7.56884405 22.5926563,7.59654291 22.5698684,7.62539405 C22.5140405,7.67732905 22.446823,7.71195336 22.3682072,7.71195336 L22.3682083,7.71195455 Z" id="Path"></path>
                <path d="M25.1722917,7.71195455 C25.1392517,7.71195455 25.099375,7.7004135 25.0651946,7.68887245 C25.0310142,7.67156059 25.0036704,7.65424814 24.9751892,7.62654927 C24.9467062,7.59769636 24.9307567,7.56999632 24.913665,7.53537495 C24.9022716,7.50190586 24.8908785,7.46151132 24.8908785,7.42804223 C24.8908785,7.35417859 24.925059,7.28031495 24.9751877,7.223762 C25.0036707,7.20067961 25.0310156,7.17875245 25.0651931,7.16720905 C25.166594,7.1221995 25.2953356,7.14412695 25.3739515,7.223762 C25.4240831,7.28146723 25.4525644,7.35417859 25.4525644,7.42804223 C25.4525644,7.46151132 25.4468678,7.50190586 25.4354745,7.53537495 C25.4183848,7.56999927 25.3967382,7.59769814 25.3739503,7.62654927 C25.3454673,7.65540218 25.3181224,7.67155882 25.2782486,7.68887245 C25.2463461,7.7004135 25.2121686,7.71195455 25.172292,7.71195455 L25.1722917,7.71195455 Z" id="Path"></path>
                <path d="M14.196,15.6765227 L9.49170833,15.6765227 C9.33676042,15.6765227 9.21143417,15.5495689 9.21143417,15.3926086 C9.21143417,15.2356484 9.33676042,15.1086945 9.49170833,15.1086945 L14.196,15.1086945 C14.3509479,15.1086945 14.4762742,15.2356484 14.4762742,15.3926086 C14.4774137,15.5495689 14.3509479,15.6765227 14.196,15.6765227 Z" id="Path"></path>
                <path d="M18.5015833,19.3522727 L9.49170833,19.3522727 C9.33676042,19.3522727 9.21143417,19.2253189 9.21143417,19.0683586 C9.21143417,18.9113984 9.33676042,18.7844445 9.49170833,18.7844445 L18.5015833,18.7844445 C18.6565313,18.7844445 18.7818575,18.9113984 18.7818575,19.0683586 C18.782997,19.2253189 18.6576717,19.3522727 18.5015833,19.3522727 Z" id="Path"></path>
                <path d="M18.5015833,23.0271364 L9.49170833,23.0271364 C9.33676042,23.0271364 9.21143417,22.9001825 9.21143417,22.7432223 C9.21143417,22.586262 9.33676042,22.4593082 9.49170833,22.4593082 L18.5015833,22.4593082 C18.6565313,22.4593082 18.7818575,22.586262 18.7818575,22.7432223 C18.782997,22.9001825 18.6576717,23.0271364 18.5015833,23.0271364 Z" id="Path"></path>
            </g>
        </g>
    </g>
</svg>