<svg width="50" height="50" xmlns="http://www.w3.org/2000/svg">
 <!-- Generator: Sketch 58 (84663) - https://sketch.com -->

 <title>handfull</title>
 <desc>Created with Sketch.</desc>
 <g>
  <title>background</title>
  <rect fill="none" id="canvas_background" height="402" width="582" y="-1" x="-1"/>
 </g>
 <g>
  <title>Layer 1</title>
  <g fill-rule="evenodd" fill="none" id="handfull">
   <g fill="#FBB03B" id="Group-9-Copy-2">
    <g id="Untitled-1-04-Copy">
     <g id="SVGID_1_-link">
      <path fill="#000000" id="SVGID_1_" d="m12.1992,27.672225c0,1.2456 3.2616,6.3576 9.4896,6.6672c5.3472,0.2664 7.4808,-0.5952 9.972,-1.8408c2.4912,-1.2456 6.228,-5.2944 6.8496,-7.1616c0.6216,-1.8672 -0.0072,-2.4024 -0.6216,-2.4912c-1.0896,-0.156 -1.5144,0.696 -1.7136,1.0896c-0.312,0.6216 -1.0008,1.6488 -1.8768,2.6352c-0.4248,0.48 -1.4016,1.4688 -2.6592,2.3688c-0.8808,0.6288 -1.9032,1.0488 -3.1392,1.2504c-3.2712,0.5328 -6.336,-0.648 -6.6456,-0.96c-0.492,-0.492 -0.312,-1.2456 0.6216,-1.2456c0.9336,0 4.0176,0.8016 5.2944,0.9336c1.236,0.1272 1.7424,-0.8832 1.8672,-1.5576c0.0984,-0.5232 -0.0144,-1.7544 -2.8032,-2.1792c-2.9112,-0.4464 -4.6704,-0.6216 -6.228,-0.6216c-2.1792,0 -4.944,0.7128 -5.604,0.9336c-0.936,0.312 -2.8032,1.2456 -2.8032,2.1792"/>
     </g>
     <path fill="#000000" id="Path" d="m30.3312,27.984225c-0.468,-0.156 0.468,-2.0232 0.7776,-2.9592c0.2208,-0.66 0.468,-2.0232 1.4016,-2.0232c0.9336,0 0.6216,1.2456 0.6216,1.2456c0,0 -2.3352,3.8928 -2.8008,3.7368"/>
     <path fill="#000000" id="Path" d="m33.996,23.623425c0.1968,-0.3936 0.6216,-1.5576 1.5576,-1.5576c0.6216,0 0.9024,0.3768 0.6216,0.9336c-0.1344,0.2712 -0.6168,1.4256 -1.4016,2.3352c-1.02,1.1832 -2.4288,2.16 -2.9592,2.3352c-0.9336,0.3144 1.8696,-3.4224 2.1816,-4.0464"/>
    </g>
    <path fill="#000000" fill-rule="nonzero" id="Path" d="m21.33583,20.55114c0,1.55862 -2.33583,1.55862 -2.33583,0c0,-1.55862 2.33583,-1.55862 2.33583,0"/>
    <path fill="#000000" fill-rule="nonzero" id="Path" d="m25.42716,20.55114c0,1.55862 -2.33584,1.55862 -2.33584,0c0,-1.55862 2.33584,-1.55862 2.33584,0"/>
    <path fill="#000000" fill-rule="nonzero" id="Path" d="m23.3828,18.50679c0,1.55862 -2.33787,1.55862 -2.33787,0c0,-1.56067 2.33787,-1.56067 2.33787,0"/>
    <path fill="#000000" fill-rule="nonzero" id="Path" d="m27.47413,18.50679c0,1.55862 -2.33788,1.55862 -2.33788,0c0,-1.56067 2.33788,-1.56067 2.33788,0"/>
    <path fill="#000000" fill-rule="nonzero" id="Path" d="m29.51848,20.55114c0,1.55862 -2.33788,1.55862 -2.33788,0c0,-1.55862 2.33788,-1.55862 2.33788,0"/>
    <path fill="#000000" fill-rule="nonzero" id="Path" d="m31.56546,18.50679c0,1.55652 -2.33788,1.55652 -2.33788,0c0,-1.55862 2.33788,-1.55862 2.33788,0"/>
    <path fill="#000000" fill-rule="nonzero" id="Path" d="m25.42716,16.16897c0,1.55861 -2.33584,1.55861 -2.33584,0c0,-1.55863 2.33584,-1.55863 2.33584,0"/>
    <path fill="#000000" fill-rule="nonzero" id="Path" d="m29.51848,16.16897c0,1.55861 -2.33788,1.55861 -2.33788,0c0,-1.55863 2.33788,-1.55863 2.33788,0"/>
   </g>
  </g>
 </g>
</svg>