<?xml version="1.0" encoding="utf-8"?>
<!-- Generator: Adobe Illustrator 24.0.1, SVG Export Plug-In . SVG Version: 6.00 Build 0)  -->
<svg version="1.1" id="Layer_1" xmlns="http://www.w3.org/2000/svg" xmlns:xlink="http://www.w3.org/1999/xlink" x="0px" y="0px"
	 viewBox="0 0 42.52 42.52" style="enable-background:new 0 0 42.52 42.52;" xml:space="preserve">
<style type="text/css">
	.st0{fill:none;}
	.st1{fill:#444547;}
	.st2{clip-path:url(#SVGID_2_);fill:#444547;}
	.st3{clip-path:url(#SVGID_6_);fill:#444547;}
	.st4{clip-path:url(#SVGID_8_);fill:#4B4A4A;}
	.st5{clip-path:url(#SVGID_10_);fill:#4B4A4A;}
	.st6{clip-path:url(#SVGID_12_);fill:#4B4A4A;}
	.st7{clip-path:url(#SVGID_14_);fill:#4B4A4A;}
	.st8{clip-path:url(#SVGID_16_);fill:#4B4A4A;}
	.st9{clip-path:url(#SVGID_18_);fill:#4B4A4A;}
	.st10{clip-path:url(#SVGID_20_);fill:#4B4A4A;}
	.st11{clip-path:url(#SVGID_22_);fill:#4B4A4A;}
	.st12{clip-path:url(#SVGID_24_);fill:#4B4A4A;}
	.st13{clip-path:url(#SVGID_26_);fill:#4B4A4A;}
	.st14{clip-path:url(#SVGID_28_);fill:#4B4A4A;}
	.st15{clip-path:url(#SVGID_30_);fill:#4B4A4A;}
	.st16{clip-path:url(#SVGID_32_);fill:#4B4A4A;}
	.st17{clip-path:url(#SVGID_34_);fill:#4B4A4A;}
	.st18{clip-path:url(#SVGID_36_);fill:#4B4A4A;}
	.st19{clip-path:url(#SVGID_38_);fill:#4B4A4A;}
	.st20{clip-path:url(#SVGID_40_);fill:#4B4A4A;}
	.st21{clip-path:url(#SVGID_42_);fill:#4B4A4A;}
	.st22{clip-path:url(#SVGID_44_);fill:#4B4A4A;}
	.st23{clip-path:url(#SVGID_46_);fill:#4B4A4A;}
	.st24{clip-path:url(#SVGID_48_);fill:#4B4A4A;}
	.st25{clip-path:url(#SVGID_50_);fill:#4B4A4A;}
	.st26{clip-path:url(#SVGID_52_);fill:#4B4A4A;}
	.st27{clip-path:url(#SVGID_54_);fill:#4B4A4A;}
	.st28{clip-path:url(#SVGID_56_);fill:#444547;}
	.st29{clip-path:url(#SVGID_58_);fill:#444547;}
	.st30{clip-path:url(#SVGID_60_);fill:#444547;}
	.st31{clip-path:url(#SVGID_62_);fill:#444547;}
	.st32{clip-path:url(#SVGID_64_);fill:#444547;}
	.st33{clip-path:url(#SVGID_66_);fill:#444547;}
	.st34{clip-path:url(#SVGID_68_);fill:#444547;}
	.st35{clip-path:url(#SVGID_70_);fill:#444547;}
	.st36{clip-path:url(#SVGID_72_);fill:#444547;}
	.st37{clip-path:url(#SVGID_74_);fill:#444547;}
	.st38{clip-path:url(#SVGID_76_);fill:#444547;}
	.st39{clip-path:url(#SVGID_78_);fill:#444547;}
	.st40{clip-path:url(#SVGID_80_);fill:#4B4A4A;}
	.st41{clip-path:url(#SVGID_82_);fill:#4B4A4A;}
	.st42{clip-path:url(#SVGID_84_);fill:#4B4A4A;}
	.st43{clip-path:url(#SVGID_86_);fill:#4B4A4A;}
	.st44{clip-path:url(#SVGID_88_);fill:#4B4A4A;}
	.st45{clip-path:url(#SVGID_90_);fill:#4B4A4A;}
	.st46{clip-path:url(#SVGID_92_);fill:#4B4A4A;}
	.st47{clip-path:url(#SVGID_94_);fill:#4B4A4A;}
	.st48{clip-path:url(#SVGID_96_);fill:#4B4A4A;}
	.st49{clip-path:url(#SVGID_98_);fill:#4B4A4A;}
	.st50{clip-path:url(#SVGID_100_);fill:#4B4A4A;}
	.st51{clip-path:url(#SVGID_102_);fill:#4B4A4A;}
	.st52{fill:#FFFFFF;}
	.st53{clip-path:url(#SVGID_104_);fill:#FFFFFF;}
	.st54{clip-path:url(#SVGID_106_);fill:#FFFFFF;}
	.st55{clip-path:url(#SVGID_108_);fill:#FFFFFF;}
	.st56{clip-path:url(#SVGID_110_);fill:#FFFFFF;}
	.st57{clip-path:url(#SVGID_112_);fill:#FFFFFF;}
	.st58{clip-path:url(#SVGID_114_);fill:#FFFFFF;}
	.st59{clip-path:url(#SVGID_116_);fill:#FFFFFF;}
	.st60{clip-path:url(#SVGID_118_);fill:#FFFFFF;}
	.st61{clip-path:url(#SVGID_120_);fill:#FFFFFF;}
	.st62{clip-path:url(#SVGID_122_);fill:#FFFFFF;}
	.st63{clip-path:url(#SVGID_124_);fill:#FFFFFF;}
	.st64{clip-path:url(#SVGID_126_);fill:#FFFFFF;}
	.st65{clip-path:url(#SVGID_128_);fill:#FFFFFF;}
	.st66{clip-path:url(#SVGID_130_);fill:#FFFFFF;}
	.st67{clip-path:url(#SVGID_132_);fill:#FFFFFF;}
	.st68{clip-path:url(#SVGID_134_);fill:#FFFFFF;}
	.st69{clip-path:url(#SVGID_136_);fill:#FFFFFF;}
	.st70{clip-path:url(#SVGID_138_);fill:#FFFFFF;}
	.st71{clip-path:url(#SVGID_140_);fill:#FFFFFF;}
	.st72{clip-path:url(#SVGID_142_);fill:#FFFFFF;}
	.st73{clip-path:url(#SVGID_144_);fill:#FFFFFF;}
	.st74{clip-path:url(#SVGID_146_);fill:#FFFFFF;}
	.st75{clip-path:url(#SVGID_148_);fill:#FFFFFF;}
	.st76{clip-path:url(#SVGID_150_);fill:#FFFFFF;}
	.st77{clip-path:url(#SVGID_152_);fill:#FFFFFF;}
	.st78{clip-path:url(#SVGID_154_);fill:#FFFFFF;}
	.st79{clip-path:url(#SVGID_156_);fill:#FFFFFF;}
	.st80{clip-path:url(#SVGID_158_);fill:#FFFFFF;}
	.st81{clip-path:url(#SVGID_160_);fill:#FFFFFF;}
	.st82{clip-path:url(#SVGID_162_);fill:#FFFFFF;}
	.st83{clip-path:url(#SVGID_164_);fill:#FFFFFF;}
	.st84{clip-path:url(#SVGID_166_);fill:#FFFFFF;}
	.st85{clip-path:url(#SVGID_168_);fill:#FFFFFF;}
	.st86{clip-path:url(#SVGID_170_);fill:#FFFFFF;}
	.st87{clip-path:url(#SVGID_172_);fill:#FFFFFF;}
	.st88{clip-path:url(#SVGID_174_);fill:#FFFFFF;}
	.st89{clip-path:url(#SVGID_176_);fill:#FFFFFF;}
	.st90{clip-path:url(#SVGID_178_);fill:#FFFFFF;}
	.st91{clip-path:url(#SVGID_180_);fill:#FFFFFF;}
	.st92{clip-path:url(#SVGID_182_);fill:#FFFFFF;}
	.st93{clip-path:url(#SVGID_184_);fill:#FFFFFF;}
	.st94{clip-path:url(#SVGID_186_);fill:#FFFFFF;}
	.st95{clip-path:url(#SVGID_188_);fill:#FFFFFF;}
	.st96{clip-path:url(#SVGID_190_);fill:#FFFFFF;}
	.st97{clip-path:url(#SVGID_192_);fill:#FFFFFF;}
	.st98{clip-path:url(#SVGID_194_);fill:#FFFFFF;}
	.st99{clip-path:url(#SVGID_196_);fill:#FFFFFF;}
	.st100{clip-path:url(#SVGID_198_);fill:#FFFFFF;}
	.st101{clip-path:url(#SVGID_200_);fill:#FFFFFF;}
	.st102{clip-path:url(#SVGID_202_);fill:#444547;}
	.st103{clip-path:url(#SVGID_204_);fill:#444547;}
	.st104{clip-path:url(#SVGID_206_);fill:#FFFFFF;}
	.st105{clip-path:url(#SVGID_208_);fill:#FFFFFF;}
	.st106{clip-path:url(#SVGID_210_);fill:#FFFFFF;}
</style>
<g>
	<defs>
		<path id="SVGID_5_" d="M28.43,19.2c-0.41,0.6-1.14,0.94-2.01,0.94l-1.37,0l-4.7-0.01c-1.52,0-3.04,0.01-4.56,0.03h-0.05
			c-0.95,0-1.53-0.43-1.81-1.36c-0.37-1.21-0.13-2.43,0.71-3.52c0.22-0.29,0.48-0.47,0.77-0.58l6.68,2.44
			c0.06,0.02,0.12,0.03,0.18,0.03c0.22,0,0.42-0.14,0.5-0.35c0.1-0.28-0.04-0.58-0.32-0.68l-6.5-2.37c0.07-1.02,0.42-1.81,1.04-2.28
			c0.11-0.08,0.22-0.13,0.34-0.19l3.51,1.39c0.06,0.03,0.13,0.04,0.2,0.04c0.21,0,0.41-0.13,0.5-0.34c0.11-0.27-0.03-0.58-0.3-0.69
			l-3-1.19c0.75-0.83,1.87-2.28,1.56-3.02c-0.04-0.1-0.14-0.4-0.24-0.46c0.57-0.45,1.19-0.68,1.86-0.68c0.57,0,1.15,0.17,1.71,0.5
			c1.34,0.78,1.87,1.97,1.58,3.54c-0.04,0.22,0.05,0.43,0.24,0.55c1.72,1.08,2.08,1.8,1.74,3.48c-0.03,0.16,0.01,0.32,0.11,0.44
			c0.19,0.23,0.38,0.44,0.56,0.64c0.52,0.58,1,1.12,1.24,1.75C28.87,17.96,28.81,18.66,28.43,19.2L28.43,19.2z M25.92,23.89
			l-4.24,12.21c-0.1,0.28-0.5,0.29-0.61,0.01l-4.45-12.21l-0.99-2.66c0.04,0,0.07,0.02,0.11,0.02h0.05h0.01
			c1.52-0.02,3.03-0.03,4.55-0.03l4.7,0.01l1.37,0c0.17,0,0.33-0.03,0.49-0.06L25.92,23.89z M27.78,14.37
			c0.31-1.86-0.21-2.96-1.97-4.14c0.23-1.85-0.52-3.37-2.14-4.3C22.07,5,20.27,5.1,18.9,6.19c-0.31,0.24-0.47,0.62-0.45,1.01
			c0.02,0.27,0.13,0.52,0.3,0.72c-0.18,0.48-1.01,1.67-1.74,2.34c-0.23,0.1-0.45,0.23-0.65,0.38c-0.89,0.67-1.42,1.77-1.49,3.12
			c-0.41,0.19-0.77,0.48-1.08,0.88c-1.05,1.38-1.36,2.93-0.88,4.49c0.27,0.88,0.78,1.46,1.47,1.79l5.78,15.51
			c0.18,0.48,0.64,0.8,1.17,0.8c0.52,0,0.99-0.33,1.16-0.81l5.65-15.51c0.01-0.03,0.01-0.07,0.02-0.11
			c0.46-0.24,0.86-0.57,1.15-0.99c0.58-0.84,0.69-1.88,0.3-2.93c-0.31-0.82-0.88-1.47-1.44-2.09
			C28.03,14.66,27.91,14.52,27.78,14.37z"/>
	</defs>
	<clipPath id="SVGID_2_">
		<use xlink:href="#SVGID_5_"  style="overflow:visible;"/>
	</clipPath>
	<rect x="7.69" y="0.29" class="st2" width="27.15" height="41.93"/>
</g>
</svg>
