<?xml version="1.0" encoding="utf-8"?>
<!-- Generator: Adobe Illustrator 23.1.1, SVG Export Plug-In . SVG Version: 6.00 Build 0)  -->
<svg version="1.1" id="Layer_1" xmlns="http://www.w3.org/2000/svg" xmlns:xlink="http://www.w3.org/1999/xlink" x="0px" y="0px"
	 viewBox="0 0 50 50" style="enable-background:new 0 0 50 50;" xml:space="preserve">
<style type="text/css">
	.st0{clip-path:url(#SVGID_2_);fill:#4C4B4B;}
	.st1{clip-path:url(#SVGID_4_);fill:#4C4B4B;}
	.st2{clip-path:url(#SVGID_6_);fill:#4C4B4B;}
	.st3{clip-path:url(#SVGID_8_);fill:#4C4B4B;}
	.st4{clip-path:url(#SVGID_10_);fill:#4C4B4B;}
	.st5{clip-path:url(#SVGID_12_);fill:#4C4B4B;}
	.st6{clip-path:url(#SVGID_14_);fill:#4C4B4B;}
	.st7{clip-path:url(#SVGID_16_);fill:#4C4B4B;}
	.st8{clip-path:url(#SVGID_18_);fill:#4C4B4B;}
	.st9{clip-path:url(#SVGID_20_);fill:#4C4B4B;}
	.st10{clip-path:url(#SVGID_22_);fill:#4C4B4B;}
	.st11{clip-path:url(#SVGID_24_);fill:#4C4B4B;}
	.st12{clip-path:url(#SVGID_26_);fill:#4C4B4B;}
	.st13{clip-path:url(#SVGID_28_);fill:#4C4B4B;}
	.st14{clip-path:url(#SVGID_30_);fill:#4C4B4B;}
	.st15{clip-path:url(#SVGID_32_);fill:#4C4B4B;}
	.st16{clip-path:url(#SVGID_34_);fill:#4C4B4B;}
	.st17{clip-path:url(#SVGID_36_);fill:#4C4B4B;}
	.st18{clip-path:url(#SVGID_38_);fill:#4C4B4B;}
	.st19{clip-path:url(#SVGID_40_);fill:#4C4B4B;}
	.st20{clip-path:url(#SVGID_42_);fill:#4C4B4B;}
	.st21{clip-path:url(#SVGID_44_);fill:#4C4B4B;}
	.st22{clip-path:url(#SVGID_46_);fill:#4C4B4B;}
	.st23{clip-path:url(#SVGID_48_);fill:#4C4B4B;}
</style>
<g>
	<g>
		<g>
			<defs>
				<path id="SVGID_1_" d="M26.35,28.34c-4.54,0-8.24,3.71-8.24,8.25c0,4.56,3.7,8.25,8.24,8.25s8.24-3.71,8.24-8.25
					S30.89,28.34,26.35,28.34z M26.35,46.05c-5.2,0-9.43-4.24-9.43-9.44s4.22-9.44,9.43-9.44s9.43,4.24,9.43,9.44
					S31.55,46.05,26.35,46.05z"/>
			</defs>
			<clipPath id="SVGID_2_">
				<use xlink:href="#SVGID_1_"  style="overflow:visible;"/>
			</clipPath>
			<rect x="9.39" y="19.64" class="st0" width="33.9" height="33.93"/>
		</g>
	</g>
	<g>
		<g>
			<defs>
				<path id="SVGID_3_" d="M13.39,43.69c-5.2,0-9.43-4.24-9.43-9.44s4.22-9.44,9.43-9.44c3.26,0,6.33,1.73,8.04,4.51
					c0.17,0.29,0.08,0.65-0.2,0.81c-0.29,0.17-0.65,0.09-0.81-0.2C18.93,27.5,16.24,26,13.4,26c-4.54,0-8.24,3.71-8.24,8.25
					c0,4.56,3.7,8.25,8.24,8.25c1.8,0,3.59-0.6,5.02-1.71c0.26-0.2,0.63-0.15,0.83,0.11c0.2,0.26,0.15,0.63-0.11,0.83
					C17.51,42.98,15.46,43.69,13.39,43.69L13.39,43.69z"/>
			</defs>
			<clipPath id="SVGID_4_">
				<use xlink:href="#SVGID_3_"  style="overflow:visible;"/>
			</clipPath>
			<rect x="-3.56" y="17.28" class="st1" width="32.59" height="33.93"/>
		</g>
	</g>
	<g>
		<g>
			<defs>
				<path id="SVGID_5_" d="M30.86,29.54c-0.15,0-0.3-0.06-0.42-0.17c-0.23-0.23-0.24-0.6,0-0.84c1.55-1.56,2.39-3.62,2.39-5.82
					c0-4.56-3.7-8.25-8.24-8.25s-8.24,3.71-8.24,8.25c0,1.02,0.18,2.01,0.56,2.96c0.12,0.3-0.03,0.65-0.35,0.77
					c-0.3,0.12-0.65-0.03-0.77-0.35c-0.42-1.08-0.63-2.22-0.63-3.4c0-5.2,4.22-9.44,9.43-9.44s9.43,4.24,9.43,9.44
					c0,2.51-0.98,4.87-2.74,6.66C31.16,29.48,31.01,29.54,30.86,29.54L30.86,29.54z"/>
			</defs>
			<clipPath id="SVGID_6_">
				<use xlink:href="#SVGID_5_"  style="overflow:visible;"/>
			</clipPath>
			<rect x="7.64" y="5.75" class="st2" width="33.9" height="31.31"/>
		</g>
	</g>
	<g>
		<g>
			<defs>
				<path id="SVGID_7_" d="M36.63,38.65c-0.56,0-1.11-0.05-1.65-0.15c-0.32-0.06-0.54-0.36-0.48-0.69c0.06-0.32,0.36-0.54,0.69-0.48
					c0.47,0.09,0.96,0.12,1.44,0.12c4.54,0,8.24-3.71,8.24-8.25c0-4.56-3.7-8.25-8.24-8.25c-1.08,0-2.13,0.21-3.14,0.62
					c-0.3,0.12-0.65-0.02-0.78-0.32c-0.12-0.3,0.02-0.65,0.32-0.78c1.14-0.47,2.35-0.71,3.59-0.71c5.2,0,9.43,4.24,9.43,9.44
					S41.83,38.65,36.63,38.65L36.63,38.65z"/>
			</defs>
			<clipPath id="SVGID_8_">
				<use xlink:href="#SVGID_7_"  style="overflow:visible;"/>
			</clipPath>
			<rect x="25.16" y="12.24" class="st3" width="28.41" height="33.93"/>
		</g>
	</g>
	<g>
		<g>
			<defs>
				<path id="SVGID_9_" d="M9.63,26.82c-0.17,0-0.32-0.06-0.44-0.2c-3.8-4.15-5.32-8.81-4.62-14.3c0.03-0.27,0.26-0.5,0.54-0.51
					c5.31-0.42,9.49,1.58,12.45,5.91c0.18,0.27,0.12,0.65-0.15,0.83c-0.27,0.18-0.65,0.12-0.83-0.15
					c-2.65-3.88-6.21-5.65-10.88-5.43c-0.51,4.9,0.92,9.11,4.36,12.85c0.23,0.24,0.21,0.62-0.03,0.84
					C9.91,26.76,9.76,26.82,9.63,26.82L9.63,26.82z"/>
			</defs>
			<clipPath id="SVGID_10_">
				<use xlink:href="#SVGID_9_"  style="overflow:visible;"/>
			</clipPath>
			<rect x="-3.11" y="4.26" class="st4" width="28.29" height="30.08"/>
		</g>
	</g>
	<g>
		<g>
			<defs>
				<path id="SVGID_11_" d="M19.13,16.34c-0.26,0-0.48-0.15-0.56-0.41c-1.43-4.25-0.18-8.24,3.71-11.83c0.2-0.18,0.5-0.21,0.72-0.06
					c4.62,3.04,6.92,6.8,6.83,11.14c0,0.33-0.27,0.59-0.59,0.59h-0.02c-0.33,0-0.59-0.27-0.59-0.6c0.08-3.85-1.85-7.08-5.91-9.88
					c-3.31,3.2-4.3,6.55-3.05,10.25c0.11,0.32-0.06,0.65-0.38,0.75C19.26,16.33,19.19,16.34,19.13,16.34L19.13,16.34z"/>
			</defs>
			<clipPath id="SVGID_12_">
				<use xlink:href="#SVGID_11_"  style="overflow:visible;"/>
			</clipPath>
			<rect x="10.49" y="-3.56" class="st5" width="26.88" height="27.42"/>
		</g>
	</g>
	<g>
		<g>
			<defs>
				<path id="SVGID_13_" d="M23.9,14.48c-0.27,0-0.53-0.2-0.59-0.47L22.3,9.23c-0.06-0.32,0.14-0.63,0.47-0.71
					c0.32-0.06,0.63,0.14,0.71,0.47l1.01,4.78c0.06,0.32-0.14,0.63-0.47,0.71C23.97,14.48,23.93,14.48,23.9,14.48L23.9,14.48z"/>
			</defs>
			<clipPath id="SVGID_14_">
				<use xlink:href="#SVGID_13_"  style="overflow:visible;"/>
			</clipPath>
			<rect x="14.78" y="0.99" class="st6" width="17.23" height="21"/>
		</g>
	</g>
	<g>
		<g>
			<defs>
				<path id="SVGID_15_" d="M16.15,25.95c-0.17,0-0.35-0.08-0.47-0.23l-6.06-7.52c-0.21-0.26-0.17-0.63,0.09-0.83
					c0.26-0.2,0.63-0.17,0.83,0.09l6.06,7.52c0.21,0.26,0.17,0.63-0.09,0.83C16.42,25.91,16.29,25.95,16.15,25.95z"/>
			</defs>
			<clipPath id="SVGID_16_">
				<use xlink:href="#SVGID_15_"  style="overflow:visible;"/>
			</clipPath>
			<rect x="1.99" y="9.73" class="st7" width="22.28" height="23.74"/>
		</g>
	</g>
	<g>
		<g>
			<defs>
				<path id="SVGID_17_" d="M29.05,41.01c-0.06,0-0.12-0.02-0.18-0.03c-0.32-0.11-0.48-0.44-0.38-0.75c0.38-1.13-0.12-2.32-1.1-2.65
					c-0.32-0.11-0.48-0.44-0.38-0.75s0.44-0.48,0.75-0.38c1.61,0.54,2.44,2.41,1.85,4.15C29.52,40.85,29.29,41.01,29.05,41.01
					L29.05,41.01z"/>
			</defs>
			<clipPath id="SVGID_18_">
				<use xlink:href="#SVGID_17_"  style="overflow:visible;"/>
			</clipPath>
			<rect x="19.46" y="28.91" class="st8" width="17.86" height="19.62"/>
		</g>
	</g>
	<g>
		<g>
			<defs>
				<path id="SVGID_19_" d="M29.05,41.01c-0.06,0-0.12-0.02-0.18-0.03c-0.32-0.11-0.48-0.44-0.38-0.75c0.3-0.89,0.93-1.62,1.73-2.03
					c0.72-0.36,1.52-0.42,2.26-0.18c0.32,0.11,0.48,0.44,0.38,0.75c-0.11,0.32-0.44,0.48-0.75,0.38c-0.44-0.15-0.9-0.11-1.34,0.11
					c-0.53,0.26-0.93,0.75-1.13,1.34C29.52,40.85,29.29,41.01,29.05,41.01L29.05,41.01z"/>
			</defs>
			<clipPath id="SVGID_20_">
				<use xlink:href="#SVGID_19_"  style="overflow:visible;"/>
			</clipPath>
			<rect x="20.93" y="30.37" class="st9" width="19.44" height="18.16"/>
		</g>
	</g>
	<g>
		<g>
			<defs>
				<path id="SVGID_21_" d="M28.28,37.72c-0.3,0-0.62-0.05-0.9-0.15c-0.32-0.11-0.48-0.44-0.38-0.75s0.44-0.48,0.75-0.38
					c0.44,0.15,0.9,0.11,1.34-0.11c0.53-0.26,0.93-0.75,1.13-1.34c0.11-0.32,0.44-0.48,0.75-0.38c0.32,0.11,0.48,0.44,0.38,0.75
					c-0.3,0.89-0.92,1.62-1.73,2.03C29.2,37.62,28.74,37.72,28.28,37.72L28.28,37.72z"/>
			</defs>
			<clipPath id="SVGID_22_">
				<use xlink:href="#SVGID_21_"  style="overflow:visible;"/>
			</clipPath>
			<rect x="19.46" y="27.08" class="st10" width="19.44" height="18.16"/>
		</g>
	</g>
	<g>
		<g>
			<defs>
				<path id="SVGID_23_" d="M32.27,39.19c-0.06,0-0.12-0.02-0.2-0.03c-1.61-0.54-2.44-2.41-1.85-4.15c0.11-0.32,0.44-0.48,0.75-0.38
					c0.32,0.11,0.48,0.44,0.38,0.75c-0.38,1.13,0.12,2.32,1.1,2.65c0.32,0.11,0.48,0.44,0.38,0.75
					C32.75,39.03,32.51,39.19,32.27,39.19L32.27,39.19z"/>
			</defs>
			<clipPath id="SVGID_24_">
				<use xlink:href="#SVGID_23_"  style="overflow:visible;"/>
			</clipPath>
			<rect x="22.53" y="27.08" class="st11" width="17.86" height="19.62"/>
		</g>
	</g>
	<g>
		<g>
			<defs>
				<path id="SVGID_25_" d="M19.72,23.12c-0.06,0-0.12-0.02-0.18-0.03c-0.32-0.11-0.48-0.44-0.38-0.75c0.38-1.13-0.12-2.32-1.1-2.65
					c-0.32-0.11-0.48-0.44-0.38-0.75s0.44-0.48,0.75-0.38c1.61,0.54,2.44,2.41,1.85,4.15C20.2,22.96,19.96,23.12,19.72,23.12
					L19.72,23.12z"/>
			</defs>
			<clipPath id="SVGID_26_">
				<use xlink:href="#SVGID_25_"  style="overflow:visible;"/>
			</clipPath>
			<rect x="10.12" y="11.02" class="st12" width="17.86" height="19.62"/>
		</g>
	</g>
	<g>
		<g>
			<defs>
				<path id="SVGID_27_" d="M19.72,23.12c-0.06,0-0.12-0.02-0.18-0.03c-0.32-0.11-0.48-0.44-0.38-0.75c0.3-0.89,0.93-1.62,1.73-2.03
					c0.72-0.36,1.52-0.42,2.26-0.18c0.32,0.11,0.48,0.44,0.38,0.75c-0.11,0.32-0.44,0.48-0.75,0.38c-0.44-0.15-0.9-0.11-1.34,0.11
					c-0.53,0.26-0.93,0.75-1.13,1.34C20.2,22.96,19.96,23.12,19.72,23.12L19.72,23.12z"/>
			</defs>
			<clipPath id="SVGID_28_">
				<use xlink:href="#SVGID_27_"  style="overflow:visible;"/>
			</clipPath>
			<rect x="11.6" y="12.48" class="st13" width="19.44" height="18.16"/>
		</g>
	</g>
	<g>
		<g>
			<defs>
				<path id="SVGID_29_" d="M18.95,19.83c-0.3,0-0.62-0.05-0.9-0.15c-0.32-0.11-0.48-0.44-0.38-0.75c0.11-0.32,0.44-0.48,0.75-0.38
					c0.44,0.15,0.9,0.11,1.34-0.11c0.53-0.26,0.93-0.75,1.13-1.34c0.11-0.32,0.44-0.48,0.75-0.38c0.32,0.11,0.48,0.44,0.38,0.75
					c-0.3,0.89-0.93,1.62-1.73,2.03C19.87,19.73,19.42,19.83,18.95,19.83L18.95,19.83z"/>
			</defs>
			<clipPath id="SVGID_30_">
				<use xlink:href="#SVGID_29_"  style="overflow:visible;"/>
			</clipPath>
			<rect x="10.12" y="9.19" class="st14" width="19.44" height="18.16"/>
		</g>
	</g>
	<g>
		<g>
			<defs>
				<path id="SVGID_31_" d="M22.93,21.29c-0.06,0-0.12-0.02-0.2-0.03c-1.61-0.54-2.44-2.41-1.85-4.15c0.11-0.32,0.44-0.48,0.75-0.38
					c0.32,0.11,0.48,0.44,0.38,0.75c-0.38,1.13,0.12,2.32,1.1,2.65c0.32,0.11,0.48,0.44,0.38,0.75
					C23.41,21.14,23.19,21.29,22.93,21.29L22.93,21.29z"/>
			</defs>
			<clipPath id="SVGID_32_">
				<use xlink:href="#SVGID_31_"  style="overflow:visible;"/>
			</clipPath>
			<rect x="13.19" y="9.19" class="st15" width="17.86" height="19.62"/>
		</g>
	</g>
	<g>
		<g>
			<defs>
				<path id="SVGID_33_" d="M38.42,27.45c-0.2,0-0.38-0.09-0.5-0.27c-0.18-0.27-0.11-0.65,0.17-0.83c0.66-0.45,0.8-1.43,0.29-2.21
					c-0.18-0.27-0.11-0.65,0.17-0.83s0.65-0.11,0.83,0.17c0.87,1.32,0.6,3.04-0.62,3.85C38.64,27.42,38.54,27.45,38.42,27.45z"/>
			</defs>
			<clipPath id="SVGID_34_">
				<use xlink:href="#SVGID_33_"  style="overflow:visible;"/>
			</clipPath>
			<rect x="30.31" y="15.73" class="st16" width="17.08" height="19.24"/>
		</g>
	</g>
	<g>
		<g>
			<defs>
				<path id="SVGID_35_" d="M40.78,25.51c-0.18,0-0.35-0.02-0.53-0.06c-0.75-0.15-1.43-0.62-1.86-1.29
					c-0.18-0.27-0.11-0.65,0.17-0.83c0.27-0.18,0.65-0.11,0.83,0.17c0.27,0.41,0.68,0.69,1.11,0.78c0.36,0.08,0.72,0.02,1.02-0.18
					c0.27-0.18,0.65-0.11,0.83,0.17c0.18,0.27,0.11,0.65-0.17,0.83C41.75,25.36,41.27,25.51,40.78,25.51z"/>
			</defs>
			<clipPath id="SVGID_36_">
				<use xlink:href="#SVGID_35_"  style="overflow:visible;"/>
			</clipPath>
			<rect x="30.77" y="15.73" class="st17" width="19.18" height="17.29"/>
		</g>
	</g>
	<g>
		<g>
			<defs>
				<path id="SVGID_37_" d="M41.38,28.22c-0.2,0-0.38-0.09-0.5-0.27c-0.27-0.41-0.68-0.69-1.11-0.78c-0.36-0.08-0.72-0.02-1.02,0.18
					c-0.27,0.18-0.65,0.11-0.83-0.17c-0.18-0.27-0.11-0.65,0.17-0.83C38.64,26,39.32,25.86,40,26c0.75,0.15,1.43,0.62,1.86,1.29
					c0.18,0.27,0.11,0.65-0.17,0.83C41.6,28.19,41.48,28.22,41.38,28.22L41.38,28.22z"/>
			</defs>
			<clipPath id="SVGID_38_">
				<use xlink:href="#SVGID_37_"  style="overflow:visible;"/>
			</clipPath>
			<rect x="30.31" y="18.45" class="st18" width="19.18" height="17.29"/>
		</g>
	</g>
	<g>
		<g>
			<defs>
				<path id="SVGID_39_" d="M41.38,28.22c-0.2,0-0.38-0.09-0.5-0.27c-0.87-1.32-0.6-3.04,0.62-3.85c0.27-0.18,0.65-0.11,0.83,0.17
					c0.18,0.27,0.11,0.65-0.17,0.83c-0.66,0.45-0.8,1.43-0.29,2.21c0.18,0.27,0.11,0.65-0.17,0.83
					C41.6,28.19,41.48,28.22,41.38,28.22L41.38,28.22z"/>
			</defs>
			<clipPath id="SVGID_40_">
				<use xlink:href="#SVGID_39_"  style="overflow:visible;"/>
			</clipPath>
			<rect x="32.86" y="16.49" class="st19" width="17.08" height="19.24"/>
		</g>
	</g>
	<g>
		<g>
			<defs>
				<path id="SVGID_41_" d="M9.94,35.14c-0.51,0-1.02-0.17-1.47-0.48c-0.59-0.42-1.01-1.05-1.19-1.77
					c-0.08-0.32,0.12-0.63,0.44-0.71c0.32-0.08,0.63,0.12,0.71,0.44c0.11,0.45,0.36,0.83,0.71,1.08c0.33,0.23,0.72,0.32,1.08,0.23
					c0.32-0.08,0.63,0.12,0.71,0.44c0.08,0.32-0.12,0.63-0.44,0.71C10.32,35.11,10.14,35.14,9.94,35.14z"/>
			</defs>
			<clipPath id="SVGID_42_">
				<use xlink:href="#SVGID_41_"  style="overflow:visible;"/>
			</clipPath>
			<rect x="-0.23" y="24.63" class="st20" width="18.72" height="18.01"/>
		</g>
	</g>
	<g>
		<g>
			<defs>
				<path id="SVGID_43_" d="M6.4,36.01c-0.27,0-0.51-0.18-0.57-0.45c-0.08-0.32,0.12-0.63,0.44-0.71c0.78-0.18,1.25-1.07,1.04-1.97
					c-0.08-0.32,0.12-0.63,0.44-0.71c0.32-0.08,0.63,0.12,0.71,0.44c0.36,1.53-0.5,3.05-1.92,3.38C6.49,36.01,6.44,36.01,6.4,36.01
					L6.4,36.01z"/>
			</defs>
			<clipPath id="SVGID_44_">
				<use xlink:href="#SVGID_43_"  style="overflow:visible;"/>
			</clipPath>
			<rect x="-1.71" y="24.64" class="st21" width="17.75" height="18.9"/>
		</g>
	</g>
	<g>
		<g>
			<defs>
				<path id="SVGID_45_" d="M8.91,37.77c-0.27,0-0.51-0.18-0.57-0.47c-0.36-1.53,0.5-3.05,1.92-3.38c0.32-0.08,0.63,0.12,0.71,0.44
					c0.08,0.32-0.12,0.63-0.44,0.71c-0.78,0.18-1.25,1.07-1.04,1.97c0.08,0.32-0.12,0.63-0.44,0.71C9,37.75,8.95,37.77,8.91,37.77
					L8.91,37.77z"/>
			</defs>
			<clipPath id="SVGID_46_">
				<use xlink:href="#SVGID_45_"  style="overflow:visible;"/>
			</clipPath>
			<rect x="0.73" y="26.39" class="st22" width="17.75" height="18.9"/>
		</g>
	</g>
	<g>
		<g>
			<defs>
				<path id="SVGID_47_" d="M8.91,37.77c-0.27,0-0.51-0.18-0.57-0.47c-0.11-0.48-0.39-0.89-0.78-1.13c-0.32-0.2-0.68-0.26-1.01-0.18
					c-0.32,0.08-0.63-0.12-0.71-0.44s0.12-0.63,0.44-0.71c0.65-0.15,1.32-0.03,1.91,0.33c0.65,0.41,1.13,1.08,1.31,1.86
					c0.08,0.32-0.12,0.63-0.44,0.71C9,37.75,8.95,37.77,8.91,37.77L8.91,37.77z"/>
			</defs>
			<clipPath id="SVGID_48_">
				<use xlink:href="#SVGID_47_"  style="overflow:visible;"/>
			</clipPath>
			<rect x="-1.71" y="27.26" class="st23" width="18.73" height="18.01"/>
		</g>
	</g>
</g>
</svg>
