<?xml version="1.0" encoding="utf-8"?>
<!-- Generator: Adobe Illustrator 23.1.1, SVG Export Plug-In . SVG Version: 6.00 Build 0)  -->
<svg version="1.1" id="Layer_1" xmlns="http://www.w3.org/2000/svg" xmlns:xlink="http://www.w3.org/1999/xlink" x="0px" y="0px"
	 viewBox="0 0 50 50" style="enable-background:new 0 0 50 50;" xml:space="preserve">
<style type="text/css">
	.st0{fill:none;stroke:#4C4B4B;stroke-width:1.5413;stroke-linecap:round;stroke-linejoin:round;stroke-miterlimit:10;}
</style>
<g>
	<path class="st0" d="M25,5.99C14.5,5.99,5.99,14.5,5.99,25S14.5,44.01,25,44.01S44.01,35.5,44.01,25S35.5,5.99,25,5.99z
		 M23.83,27.8c-0.74-0.31-1.33-0.9-1.64-1.64 M23.85,22.2L23.85,22.2c-0.74,0.3-1.34,0.9-1.65,1.63c0,0,0,0,0,0
		c-0.15,0.36-0.23,0.75-0.23,1.17c0,0.41,0.08,0.8,0.23,1.15"/>
	<path class="st0" d="M22.2,23.83c-0.15,0.36-0.23,0.75-0.23,1.17c0,0.41,0.08,0.8,0.23,1.15l-8.02,3.3
		c-1.48,0.61-3.16-0.15-3.68-1.67l-0.03-0.08c-0.6-1.75-0.59-3.65,0-5.4l0.06-0.15c0.51-1.49,2.15-2.25,3.61-1.69
		c0,0,0.01,0,0.01,0.01c0.02,0,0.05,0.02,0.07,0.02L22.2,23.83C22.2,23.83,22.2,23.83,22.2,23.83z"/>
	<path class="st0" d="M27.8,26.17C27.8,26.17,27.8,26.17,27.8,26.17l8.01,3.35c0,0,0.01,0,0.02,0.01c1.47,0.6,3.14-0.16,3.66-1.67
		l0.06-0.16c0.6-1.75,0.6-3.64,0-5.39l-0.03-0.08c-0.51-1.51-2.2-2.27-3.68-1.67l-8.03,3.3"/>
	<path class="st0" d="M26.15,27.8L26.15,27.8l0.4,0.99l2.89,7.05c0.61,1.48-0.15,3.16-1.67,3.68l-0.08,0.03
		c-1.75,0.6-3.65,0.6-5.4,0l-0.15-0.06c-1.49-0.51-2.25-2.16-1.68-3.62c0-0.01,0.01-0.02,0.01-0.03c0-0.01,0.01-0.02,0.01-0.04
		l3.34-7.99"/>
	<path class="st0" d="M23.85,22.2l-3.3-8.03c-0.61-1.48,0.15-3.16,1.66-3.68l0.08-0.03c1.75-0.6,3.65-0.6,5.39,0l0.16,0.06
		c1.5,0.51,2.26,2.19,1.67,3.66c0,0.01,0,0.01-0.01,0.02l-3.34,8.01h0"/>
	<g>
		<path class="st0" d="M23.83,27.8l-3.34,8.01c0,0.01,0,0.01-0.01,0.02c0,0.01-0.01,0.02-0.01,0.03c-0.63,1.44-2.34,2.07-3.75,1.37
			l-0.08-0.04c-1.66-0.81-3-2.15-3.82-3.81l-0.07-0.15c-0.7-1.44-0.04-3.17,1.44-3.78l8.01-3.29C22.5,26.9,23.09,27.49,23.83,27.8z"
			/>
		<path class="st0" d="M26.17,22.2L26.17,22.2l3.35-8.01c0-0.01,0-0.01,0.01-0.02c0.62-1.46,2.34-2.1,3.77-1.41l0.08,0.04
			c1.66,0.81,3,2.15,3.81,3.81l0.08,0.15c0.7,1.44,0.04,3.17-1.44,3.78l-8.01,3.29v0"/>
		<path class="st0" d="M23.85,22.2L23.85,22.2l-3.3-8.01c-0.61-1.48-2.34-2.14-3.78-1.44l-0.15,0.08c-1.66,0.81-3,2.15-3.81,3.81
			l-0.04,0.08c-0.69,1.41-0.07,3.11,1.36,3.75c0,0,0.01,0,0.01,0.01c0.02,0.01,0.04,0.02,0.05,0.02l8.01,3.34"/>
		<path class="st0" d="M26.15,27.8L26.15,27.8l0.4,0.99l2.89,7.03c0.61,1.48,2.34,2.14,3.78,1.44l0.15-0.08
			c1.66-0.81,3.01-2.15,3.82-3.81l0.04-0.08c0.7-1.43,0.06-3.15-1.41-3.77c0,0-0.01,0-0.02-0.01l-8.01-3.34"/>
	</g>
	<path class="st0" d="M22.2,26.16C22.2,26.16,22.19,26.16,22.2,26.16"/>
	<path class="st0" d="M23.85,22.2c0.36-0.15,0.74-0.23,1.15-0.23c0.41,0,0.81,0.08,1.17,0.23h0c0.74,0.31,1.33,0.9,1.64,1.64v0
		c0.15,0.35,0.23,0.74,0.23,1.15c0,0.42-0.08,0.81-0.23,1.17c0,0,0,0,0,0c-0.31,0.74-0.91,1.33-1.65,1.63v0
		c-0.36,0.15-0.74,0.23-1.15,0.23c-0.41,0-0.81-0.08-1.17-0.23"/>
</g>
</svg>
