<?xml version="1.0" encoding="utf-8"?>
<!-- Generator: Adobe Illustrator 23.1.1, SVG Export Plug-In . SVG Version: 6.00 Build 0)  -->
<svg version="1.1" id="Layer_1" xmlns="http://www.w3.org/2000/svg" xmlns:xlink="http://www.w3.org/1999/xlink" x="0px" y="0px"
	 viewBox="0 0 50 50" style="enable-background:new 0 0 50 50;" xml:space="preserve">
<style type="text/css">
	.st0{fill:#FFFFFF;}
	.st1{fill:#4C4B4B;}
</style>
<g>
	<g>
		<path class="st0" d="M13.95,36.95c-2.99-4.55-2.59-9.87,1.52-15.83c5.84-7.91,18.97-14.38,19.82-13.81
			c0.33,0.06,3.88,5.66,5.31,12.37c1.59,6.68,0.04,14.25-3.91,18.15c-5.59,5.85-13.68,5.98-18.56,2.95"/>
		<path class="st1" d="M11.16,29.48c0.26-2.81,1.46-5.79,3.58-8.86c0.01-0.01,0.01-0.02,0.02-0.02c3.43-4.64,9.01-8.45,12.03-10.31
			c1.92-1.18,3.88-2.24,5.5-2.97c2.3-1.04,2.96-1.02,3.37-0.81c0.28,0.13,0.57,0.44,1.15,1.35c0.48,0.76,1.02,1.74,1.52,2.76
			c1,2.03,2.35,5.21,3.13,8.87c1.68,7.08-0.02,14.88-4.14,18.97c-2.74,2.87-6.23,4.62-10.08,5.06c-3.42,0.4-6.92-0.33-9.58-1.98
			c-0.42-0.26-0.54-0.8-0.28-1.22c0.26-0.42,0.8-0.54,1.22-0.28c4.49,2.79,12.14,2.76,17.45-2.81c0.01-0.01,0.01-0.01,0.02-0.02
			c3.66-3.62,5.2-10.9,3.67-17.32c0-0.01,0-0.01,0-0.02C38.5,14.05,35.7,9.28,34.91,8.2c-0.97,0.23-4.03,1.59-7.76,3.95
			c-2.76,1.74-7.85,5.29-10.96,9.49c-3.82,5.54-4.33,10.53-1.5,14.83c0.27,0.41,0.16,0.96-0.25,1.23c-0.41,0.27-0.96,0.16-1.23-0.25
			c-0.38-0.57-0.7-1.16-0.98-1.76C11.32,33.72,10.97,31.65,11.16,29.48z M35.13,8.18C35.13,8.18,35.13,8.18,35.13,8.18
			C35.13,8.18,35.13,8.18,35.13,8.18z M35.12,8.16C35.12,8.16,35.12,8.16,35.12,8.16C35.12,8.16,35.12,8.16,35.12,8.16z"/>
	</g>
	<g>
		<g>
			<path class="st1" d="M7.98,42.47c0.19,0.4,0.65,0.61,1.08,0.47c5.9-1.93,11.34-5.28,15.71-9.69c4.31-4.34,7.59-9.71,9.49-15.51
				c0.15-0.46-0.1-0.96-0.57-1.12c-0.46-0.15-0.97,0.1-1.12,0.57C28.86,28.54,19.86,37.54,8.51,41.25
				c-0.46,0.15-0.72,0.65-0.57,1.12C7.95,42.4,7.96,42.44,7.98,42.47z"/>
		</g>
	</g>
	<g>
		<g>
			<path class="st1" d="M27.12,25.12c0.3,0.64,0.66,1.23,1.09,1.73c0.32,0.37,0.88,0.42,1.25,0.1c0.37-0.32,0.42-0.87,0.1-1.25
				c-1.11-1.31-1.72-3.48-1.51-5.4c0.05-0.49-0.3-0.92-0.79-0.97c-0.49-0.05-0.92,0.3-0.97,0.79
				C26.11,21.81,26.42,23.61,27.12,25.12z"/>
		</g>
	</g>
	<g>
		<g>
			<path class="st1" d="M28.55,26.99c0.09,0.2,0.26,0.36,0.48,0.45c2.21,0.88,4.96,0.41,6.7-1.14c0.36-0.33,0.4-0.89,0.07-1.25
				c-0.33-0.36-0.89-0.4-1.25-0.07c-1.23,1.1-3.28,1.45-4.86,0.81c-0.45-0.18-0.97,0.04-1.15,0.49
				C28.43,26.52,28.45,26.78,28.55,26.99z"/>
		</g>
	</g>
	<g>
		<g>
			<path class="st1" d="M19.89,34.24c0.17,0.37,0.37,0.72,0.59,1.05c0.27,0.4,0.83,0.51,1.23,0.24c0.4-0.27,0.51-0.82,0.24-1.23
				c-1.19-1.75-1.41-4.42-0.58-6.82c0.16-0.46-0.08-0.97-0.54-1.13c-0.46-0.16-0.97,0.08-1.13,0.54
				C18.82,29.41,18.91,32.12,19.89,34.24z"/>
		</g>
	</g>
	<g>
		<g>
			<path class="st1" d="M20.91,35.73c0.08,0.18,0.22,0.33,0.41,0.42c2.84,1.41,6.8,1.31,9.63-0.24c0.43-0.24,0.59-0.77,0.35-1.2
				c-0.24-0.43-0.77-0.59-1.2-0.35c-2.31,1.27-5.67,1.36-7.99,0.21c-0.44-0.22-0.97-0.04-1.19,0.4
				C20.8,35.21,20.81,35.49,20.91,35.73z"/>
		</g>
	</g>
</g>
</svg>
