<?xml version="1.0" encoding="utf-8"?>
<!-- Generator: Adobe Illustrator 23.1.1, SVG Export Plug-In . SVG Version: 6.00 Build 0)  -->
<svg version="1.1" id="Layer_1" xmlns="http://www.w3.org/2000/svg" xmlns:xlink="http://www.w3.org/1999/xlink" x="0px" y="0px"
	 viewBox="0 0 50 50" style="enable-background:new 0 0 50 50;" xml:space="preserve">
<style type="text/css">
	.st0{fill:#4C4B4B;stroke:#4C4B4B;stroke-width:0.599;stroke-miterlimit:10;}
</style>
<g>
	<path class="st0" d="M26.95,15.42c5.67,0,10.12-1.83,10.12-4.17c0-2.34-4.45-4.17-10.12-4.17s-10.12,1.83-10.12,4.17
		C16.83,13.59,21.28,15.42,26.95,15.42z M26.95,7.94c5.46,0,9.26,1.74,9.26,3.31c0,1.56-3.8,3.31-9.26,3.31
		c-5.46,0-9.26-1.74-9.26-3.31C17.7,9.68,21.5,7.94,26.95,7.94z"/>
	<path class="st0" d="M26.95,12.88c2.04,0,4.23-0.51,4.23-1.63c0-1.12-2.19-1.63-4.23-1.63c-2.04,0-4.23,0.51-4.23,1.63
		C22.72,12.37,24.91,12.88,26.95,12.88z M26.95,10.48c2.14,0,3.27,0.55,3.37,0.77c-0.09,0.22-1.23,0.77-3.37,0.77
		c-2.17,0-3.3-0.56-3.37-0.76C23.65,11.04,24.79,10.48,26.95,10.48z"/>
	<path class="st0" d="M44.72,37.07c-3.2-1.46-3.15-9.32-3.15-9.4V11.25c0-4.02-6.42-7.17-14.62-7.17s-14.62,3.15-14.62,7.17
		c0,0.2,0.02,0.4,0.05,0.6v19.47c0,1.24-0.66,2.4-1.71,3.02c-1.13,0.66-2.96,1.55-5.29,2c-0.19,0.04-0.33,0.2-0.35,0.39
		c-0.01,0.19,0.11,0.37,0.29,0.44c0.18,0.06,3.43,1.17,6.98,1.17c0.96,0,1.94-0.08,2.88-0.28c-1.28,2.85-2.92,5.62-4.83,7.06
		c-0.14,0.11-0.2,0.29-0.16,0.46c0.05,0.17,0.2,0.3,0.38,0.31c0.07,0.01,0.4,0.03,0.94,0.03c2.53,0,9.47-0.55,13.64-6.2
		c0.26-0.35,0.7-0.55,1.15-0.51c0.74,0.06,1.93,0.11,3.39,0c0.53-0.04,1.05,0.18,1.38,0.6c1.26,1.57,4.68,5.23,9.16,5.39
		c0.17,0.01,0.31-0.08,0.39-0.22c0.08-0.14,0.07-0.32-0.02-0.45c-0.02-0.04-1.91-2.88-2.92-7.16c1.18,0.56,2.83,0.7,4.22,0.7
		c1.43,0,2.59-0.15,2.7-0.17c0.19-0.03,0.34-0.17,0.37-0.36C44.99,37.34,44.89,37.15,44.72,37.07z M26.95,4.94
		c7.46,0,13.75,2.89,13.75,6.3c0,3.42-6.3,6.3-13.75,6.3c-7.08,0-13.12-2.6-13.71-5.79c0-0.03-0.01-0.06-0.01-0.09
		c-0.02-0.14-0.03-0.28-0.03-0.42C13.2,7.83,19.5,4.94,26.95,4.94z M37.43,36.19c-0.18-0.99-0.31-2.04-0.36-3.14
		c-0.01-0.24-0.21-0.42-0.45-0.41c-0.24,0.01-0.42,0.21-0.41,0.45c0.24,5.37,2.28,9.53,3.22,11.17c-3.72-0.53-6.58-3.62-7.69-4.99
		c-0.16-0.2-0.35-0.37-0.56-0.51c0.02-0.11,0-0.22-0.07-0.32c-0.03-0.06-0.83-1.46-0.64-8.15c0.01-0.24-0.18-0.44-0.42-0.44
		c-0.23-0.02-0.44,0.18-0.44,0.42c-0.14,5.03,0.27,7.22,0.55,8.11c-0.18-0.03-0.36-0.03-0.55-0.02c-1.4,0.11-2.54,0.06-3.25,0
		c-0.75-0.06-1.48,0.27-1.91,0.86c-3.76,5.11-10.16,5.78-12.71,5.84c4.58-4.48,7.31-15.38,7.43-15.87c0.06-0.23-0.08-0.47-0.32-0.52
		c-0.23-0.06-0.47,0.08-0.52,0.32c-0.02,0.07-1,4.01-2.72,8.09c-2.93,0.84-6.47,0.22-8.46-0.26c1.69-0.5,3.04-1.17,3.96-1.71
		c1.32-0.77,2.14-2.21,2.14-3.76V13.79c1.36,1.81,4.13,3.25,7.7,4.02v4.67c0,0.24,0.19,0.43,0.43,0.43c0.24,0,0.43-0.19,0.43-0.43
		v-4.5c1.59,0.28,3.32,0.44,5.14,0.44c0.26,0,0.51,0,0.76-0.01v7.77c0,0.24,0.19,0.43,0.43,0.43c0.24,0,0.43-0.19,0.43-0.43v-7.8
		c3.47-0.18,6.55-0.93,8.83-2.07v11.44c0,0.24,0.19,0.43,0.43,0.43c0.24,0,0.43-0.19,0.43-0.43V15.85c0-0.01,0-0.01,0-0.02
		c1.04-0.62,1.87-1.33,2.44-2.11v13.94c0,0.31-0.05,6.91,2.63,9.48C41.47,37.27,38.59,37.22,37.43,36.19z"/>
	<path class="st0" d="M24.5,25.69c-0.24,0-0.43,0.19-0.43,0.43v5.03c0,0.24,0.19,0.43,0.43,0.43c0.24,0,0.43-0.19,0.43-0.43v-5.03
		C24.93,25.88,24.74,25.69,24.5,25.69z"/>
</g>
</svg>
