<?xml version="1.0" encoding="utf-8"?>
<!-- Generator: Adobe Illustrator 23.1.1, SVG Export Plug-In . SVG Version: 6.00 Build 0)  -->
<svg version="1.1" id="Layer_1" xmlns="http://www.w3.org/2000/svg" xmlns:xlink="http://www.w3.org/1999/xlink" x="0px" y="0px"
	 viewBox="0 0 50 50" style="enable-background:new 0 0 50 50;" xml:space="preserve">
<style type="text/css">
	.st0{clip-path:url(#SVGID_2_);fill:#454548;}
	.st1{clip-path:url(#SVGID_4_);fill:#454548;}
	.st2{clip-path:url(#SVGID_6_);fill:#454548;}
</style>
<g>
	<g>
		<g>
			<defs>
				<path id="SVGID_1_" d="M13.99,14.81c-2.26-2.44-2.89-5.61-1.83-7.84c1.25,1.18,2.22,1.61,3.09,2.05c0.87,0.43,1.76,0.78,3,2.04
					c1.17,1.26,1.54,2.16,1.83,3.15c0.29,0.82,0.66,1.8,1.59,2.97C19.37,18.17,16.25,17.24,13.99,14.81L13.99,14.81z M22.18,7.16
					c2.74,2.93,3.09,6.99,0.9,9.11c-0.94-1-1.23-1.82-1.53-2.65c-0.38-0.98-0.81-2.13-2.22-3.64s-2.53-2.03-3.48-2.47
					c-0.89-0.35-1.68-0.79-2.77-1.88c0.92-0.86,2.24-1.29,3.53-1.25C18.56,4.52,20.63,5.48,22.18,7.16L22.18,7.16z M23.36,6.07
					C20.01,2.48,14.92,1.81,12,4.54c-2.93,2.74-2.53,7.85,0.74,11.45c1.88,2.01,4.34,3.15,6.69,3.22c1.77,0.07,3.41-0.45,4.67-1.62
					C27.1,14.78,26.72,9.66,23.36,6.07L23.36,6.07z"/>
			</defs>
			<clipPath id="SVGID_2_">
				<use xlink:href="#SVGID_1_"  style="overflow:visible;"/>
			</clipPath>
			
				<rect x="1.75" y="-5.27" transform="matrix(0.7193 -0.6947 0.6947 0.7193 -2.5958 15.6501)" class="st0" width="32.63" height="32.62"/>
		</g>
	</g>
	<g>
		<g>
			<defs>
				<path id="SVGID_3_" d="M30.44,19.61c0.66,1.56,1.38,2.34,2.05,3.05c0.69,0.69,1.3,1.42,1.89,3.09c0.61,1.67,0.61,2.62,0.53,3.6
					c-0.03,0.87-0.08,1.93,0.38,3.39c-2.5-0.04-5.05-2.04-6.18-5.16C27.9,24.5,28.53,21.26,30.44,19.61z M39.59,23.69
					c1.35,3.72,0.13,7.71-2.75,8.75c-0.4-1.33-0.37-2.2-0.34-3.07c0.05-1.06,0.11-2.28-0.6-4.25c-0.72-1.99-1.57-2.87-2.27-3.66
					c-0.61-0.72-1.27-1.36-1.79-2.8C34.77,17.78,38.23,19.97,39.59,23.69L39.59,23.69z M37.38,33.97c3.72-1.35,5.41-6.19,3.73-10.84
					s-6.09-7.26-9.81-5.91s-5.41,6.19-3.73,10.84C29.25,32.71,33.58,35.36,37.38,33.97z"/>
			</defs>
			<clipPath id="SVGID_4_">
				<use xlink:href="#SVGID_3_"  style="overflow:visible;"/>
			</clipPath>
			
				<rect x="18.94" y="8.51" transform="matrix(0.9848 -0.1736 0.1736 0.9848 -3.9237 6.3484)" class="st1" width="30.78" height="34.19"/>
		</g>
	</g>
	<g>
		<g>
			<defs>
				<path id="SVGID_5_" d="M11.63,35.41c1.21-1.62,2.75-2.67,4.46-3.16c0.57-0.16,1.05-0.25,1.54-0.25c1.05,0,2.03,0.33,2.75,0.88
					c-0.88,1.05-1.62,1.46-2.34,1.95c-0.88,0.57-1.95,1.13-3.16,2.83s-1.54,2.83-1.79,3.88c-0.25,0.88-0.41,1.79-1.29,3.08
					c-1.13-0.88-1.87-2.26-1.95-3.96C9.85,38.89,10.42,37.03,11.63,35.41z M20.63,42.12c-1.95,2.67-5.01,3.88-7.37,3.24
					c0.97-1.38,1.21-2.42,1.46-3.39c0.25-0.97,0.49-1.87,1.54-3.33s1.87-1.87,2.75-2.42c0.8-0.49,1.62-0.97,2.67-2.11
					C22.89,36.21,22.64,39.45,20.63,42.12L20.63,42.12z M8.24,40.66c0.08,2.18,0.97,4.05,2.59,5.26c1.13,0.8,2.42,1.21,3.72,1.21
					c2.59,0,5.42-1.46,7.37-4.05c2.92-3.96,2.67-9.06-0.49-11.42c-1.62-1.21-3.64-1.54-5.75-0.97c-2.03,0.57-3.96,1.87-5.34,3.8
					C8.96,36.37,8.24,38.57,8.24,40.66L8.24,40.66z"/>
			</defs>
			<clipPath id="SVGID_6_">
				<use xlink:href="#SVGID_5_"  style="overflow:visible;"/>
			</clipPath>
			<rect x="0.05" y="22.25" class="st2" width="32.11" height="33.09"/>
		</g>
	</g>
</g>
</svg>
