<?xml version="1.0" encoding="utf-8"?>
<!-- Generator: Adobe Illustrator 23.1.1, SVG Export Plug-In . SVG Version: 6.00 Build 0)  -->
<svg version="1.1" id="Layer_1" xmlns="http://www.w3.org/2000/svg" xmlns:xlink="http://www.w3.org/1999/xlink" x="0px" y="0px"
	 viewBox="0 0 50 50" style="enable-background:new 0 0 50 50;" xml:space="preserve">
<style type="text/css">
	.st0{fill:#454548;}
</style>
<g>
	<path class="st0" d="M44.16,9.05l-7.43-6.03c-0.68-0.56-1.68-0.44-2.25,0.24l-1.34,1.66c-0.56,0.68-0.44,1.68,0.24,2.25l2.04,1.66
		l-7.76,9.58l0,0L26.9,19.3l-3.62,4.48l-4.01-3.25c-1.02-0.83-2.39-1.2-3.65-0.98c-1.09,0.19-2,0.81-2.54,1.73L7.04,31.57
		c-1.34,2.28-1.95,4.7-1.77,6.99c0.19,2.51,1.32,4.66,3.27,6.24l0.68,0.56c1.95,1.58,4.29,2.23,6.78,1.89
		c2.28-0.31,4.52-1.42,6.47-3.19L31.28,36c0.78-0.74,1.2-1.74,1.15-2.85c0.19-1.17-0.38-2.29-1.7-3.37l-4.05-3.28L38.8,11.53
		l2.04,1.64c0.68,0.56,1.68,0.44,2.25-0.24l1.34-1.66C44.96,10.61,44.86,9.61,44.16,9.05z M30.14,30.89
		c0.68,0.56,1.14,1.42,1.17,2.26c0.01,0.47-0.09,1.14-0.67,1.68l-9.07,8.31c-1.74,1.6-3.8,2.62-5.79,2.88
		c-0.35,0.04-0.71,0.07-1.06,0.07c-1.71,0-3.31-0.58-4.68-1.68l-0.71-0.58c-1.66-1.33-2.62-3.16-2.76-5.29
		c-0.15-2.01,0.43-4.23,1.61-6.27l6.24-10.6c0.41-0.69,1.05-0.93,1.51-1.02c0.83-0.15,1.77,0.1,2.45,0.67l3.35,2.7l0.84,0.68
		l-0.44,0.55c-0.18,0.22-0.33,0.49-0.41,0.77c-0.28,0.87-0.01,1.8,0.68,2.36c0.24,0.19,0.5,0.33,0.8,0.4
		c0.18,0.04,0.35,0.07,0.53,0.07c0.38,0,0.77-0.1,1.11-0.3c0.25-0.15,0.47-0.33,0.67-0.56l0.44-0.55L30.14,30.89z M24.58,27.31
		c-0.1,0.12-0.22,0.22-0.34,0.3c-0.18,0.1-0.37,0.15-0.56,0.15c-0.09,0-0.18-0.01-0.27-0.03c-0.13-0.03-0.27-0.1-0.38-0.19
		c-0.34-0.28-0.46-0.74-0.33-1.17c0.04-0.15,0.12-0.28,0.22-0.4l4.83-5.99l0,0l0,0l0,0l8.5-10.49l1.66,1.33L24.58,27.31z
		 M43.25,11.04l-0.67,0.83c-0.37,0.46-1.03,0.53-1.49,0.16l-1.63-1.32l-0.83-0.74l-1.66-1.33l-2.51-1.98
		c-0.46-0.37-0.53-1.03-0.16-1.49l0.67-0.83c0.37-0.46,1.03-0.53,1.49-0.16l6.62,5.35C43.54,9.92,43.62,10.58,43.25,11.04z"/>
</g>
</svg>
