<?xml version="1.0" encoding="utf-8"?>
<!-- Generator: Adobe Illustrator 23.1.1, SVG Export Plug-In . SVG Version: 6.00 Build 0)  -->
<svg version="1.1" id="Layer_1" xmlns="http://www.w3.org/2000/svg" xmlns:xlink="http://www.w3.org/1999/xlink" x="0px" y="0px"
	 viewBox="0 0 50 50" style="enable-background:new 0 0 50 50;" xml:space="preserve">
<style type="text/css">
	.st0{fill:#434647;}
</style>
<g>
	<path class="st0" d="M22.6,39.6c-0.1,0-0.3,0-0.4-0.1c-0.3-0.2-0.4-0.6-0.2-1L38.7,11c0.2-0.3,0.6-0.4,1-0.2c0.3,0.2,0.4,0.6,0.2,1
		L23.2,39.2C23.1,39.4,22.8,39.6,22.6,39.6z"/>
	<path class="st0" d="M20.5,32.8c-0.2,0-0.5-0.1-0.6-0.3c-0.2-0.3-0.1-0.8,0.2-1L41,17.5c0.3-0.2,0.8-0.1,1,0.2
		c0.2,0.3,0.1,0.8-0.2,1L20.9,32.6C20.8,32.7,20.6,32.8,20.5,32.8z"/>
	<path class="st0" d="M37.4,29.7c-0.1,0-0.3,0-0.4-0.1l-12.9-7.8c-0.3-0.2-0.4-0.6-0.2-1c0.2-0.3,0.6-0.4,1-0.2l12.9,7.8
		c0.3,0.2,0.4,0.6,0.2,1C37.8,29.6,37.6,29.7,37.4,29.7z"/>
	<path class="st0" d="M30,34.3C30,34.3,30,34.3,30,34.3c-0.5,0-0.8-0.4-0.7-0.8l2.3-21c0-0.4,0.4-0.7,0.8-0.6c0.4,0,0.7,0.4,0.6,0.8
		l-2.3,21C30.7,34,30.4,34.3,30,34.3z"/>
	<path class="st0" d="M20.8,42.5c-0.1,0-0.2,0-0.3-0.1C20.3,42.3,4.4,34,6.7,14.2l-0.2-0.1c-0.7-0.5-1.3-1.2-1.5-2s-0.1-1.7,0.4-2.5
		c0.9-1.5,3-2,4.5-1.1l0.2,0.1C26.7-2.6,41.4,7.7,41.5,7.8c0.3,0.2,0.4,0.7,0.2,1c-0.2,0.3-0.7,0.4-1,0.2c-0.6-0.4-14.3-10-30.2,1
		c-0.2,0.2-0.5,0.2-0.8,0L9.2,9.7c-0.9-0.5-2-0.3-2.5,0.6c-0.3,0.4-0.3,0.9-0.2,1.4c0.1,0.5,0.4,0.9,0.8,1.1l0.6,0.4
		c0.2,0.1,0.4,0.4,0.3,0.7C5.7,33.1,21,41.1,21.1,41.2c0.3,0.2,0.5,0.6,0.3,1C21.3,42.4,21,42.5,20.8,42.5z"/>
	<path class="st0" d="M35.6,39c-1.9,0-3.4-1.5-3.4-3.4v-0.8c0-0.4,0.3-0.7,0.7-0.7c0.4,0,0.7,0.3,0.7,0.7v0.8c0,1.1,0.9,2,2,2
		c1.1,0,2-0.9,2-2v-3c0-0.2,0.1-0.4,0.2-0.5l0,0c0.2-0.2,0.5-0.3,0.8-0.1c0.3,0.1,0.4,0.4,0.4,0.7c0,1.1,0.9,2,2,2c1.1,0,2-0.9,2-2
		c0-0.4,0.3-0.7,0.7-0.7s0.7,0.3,0.7,0.7c0,1.9-1.5,3.4-3.4,3.4c-0.8,0-1.5-0.3-2.1-0.7v0.3C39,37.5,37.5,39,35.6,39z"/>
	<path class="st0" d="M23.9,43.3c-1.3,0-2.5-0.3-3.5-0.9c-5.3-3.2-4.8-13.3,1.1-23C27.5,9.7,36.2,4.6,41.5,7.8
		c3.3,2,4.4,6.8,3.1,12.9v11.9c0,1.9-1.5,3.4-3.4,3.4c-0.8,0-1.5-0.3-2.1-0.7v0.3c0,1.9-1.5,3.4-3.4,3.4c-0.6,0-1.2-0.2-1.7-0.4
		c-1,0.9-2.1,1.7-3.1,2.4c-0.3,0.2-0.8,0.1-1-0.2c-0.2-0.3-0.1-0.8,0.2-1c1.1-0.7,2.2-1.6,3.3-2.6c0.3-0.2,0.7-0.3,0.9,0
		c0.3,0.2,0.7,0.5,1.3,0.5c1.1,0,2-0.9,2-2v-3c0-0.2,0.1-0.4,0.2-0.5l0,0c0.2-0.2,0.5-0.3,0.8-0.1c0.3,0.1,0.4,0.4,0.4,0.7
		c0,1.1,0.9,2,2,2c1.1,0,2-0.9,2-2v-12c0-0.1,0-0.1,0-0.2c1.2-5.5,0.3-9.7-2.4-11.4c-4.5-2.7-12.6,2.3-18,11.1
		c-5.4,8.9-6.1,18.3-1.6,21.1c1,0.6,2.3,0.9,3.8,0.7c0.4-0.1,0.7,0.2,0.8,0.6c0.1,0.4-0.2,0.7-0.6,0.8
		C24.7,43.3,24.3,43.3,23.9,43.3z"/>
	<path class="st0" d="M27.7,46.6c-1.9,0-3.4-1.5-3.4-3.4v-3.1c-0.8,0-1.5-0.3-2.1-0.6c-2-1.2-2.8-3.8-2.4-7.5
		c0.4-3.4,1.8-7.4,4.1-11.2c4.9-8,11.8-12.5,15.8-10.1c2,1.2,2.8,3.8,2.4,7.5c-0.4,3.4-1.8,7.4-4.1,11.2c-1.9,3.2-4.3,6-6.8,7.9v5.9
		C31.2,45.1,29.6,46.6,27.7,46.6z M25,38.7c0.2,0,0.4,0.1,0.5,0.2c0.1,0.1,0.2,0.3,0.2,0.5v3.8c0,1.1,0.9,2,2,2c1.1,0,2-0.9,2-2
		v-6.3c0-0.2,0.1-0.4,0.3-0.6c2.4-1.8,4.8-4.6,6.7-7.7c2.2-3.6,3.6-7.3,3.9-10.6c0.3-3-0.3-5.2-1.8-6.1c-3.2-1.9-9.5,2.5-13.8,9.6
		c-2.2,3.6-3.6,7.3-3.9,10.6c-0.3,3,0.3,5.2,1.8,6.1C23.5,38.6,24.2,38.7,25,38.7C25,38.7,25,38.7,25,38.7z"/>
</g>
</svg>
