<?xml version="1.0" encoding="utf-8"?>
<!-- Generator: Adobe Illustrator 23.1.1, SVG Export Plug-In . SVG Version: 6.00 Build 0)  -->
<svg version="1.1" id="Layer_1" xmlns="http://www.w3.org/2000/svg" xmlns:xlink="http://www.w3.org/1999/xlink" x="0px" y="0px"
	 viewBox="0 0 50 50" style="enable-background:new 0 0 50 50;" xml:space="preserve">
<style type="text/css">
	.st0{fill:none;}
	.st1{fill:#454548;}
	.st2{clip-path:url(#SVGID_2_);fill:#454548;}
	.st3{clip-path:url(#SVGID_4_);fill:#454548;}
</style>
<g>
	<g>
		<g>
			<g>
				<path class="st0" d="M19.25,16.09c-3.47,0-5.5,2.53-6.06,7.52c-0.67,5.99-3.72,11.24-8.16,14.06l-0.14,0.1
					c-0.83,0.52-1.62,1.02-1.91,1.84c-0.21,0.59-0.11,1.42,0.49,1.84c0.46,0.33,1.08,0.51,1.86,0.51c0.56,0,1.13-0.08,1.62-0.16
					c1.32-0.21,2.64-0.54,3.9-0.99c3.07-1.08,5.64-2.64,7.65-4.63c3.37-3.34,6.88-9.25,6.68-14.33c-0.03-0.81-0.17-1.61-0.43-2.34
					l0,0c-0.78-2.29-3.26-3.37-5.37-3.42L19.25,16.09z"/>
				<path class="st1" d="M27.2,6.69L27.2,6.69c-1.03-0.17-2.02,0.08-2.91,0.72c-2.26,1.64-3.34,5.63-3.72,7.41
					c-0.38-0.06-0.78-0.1-1.16-0.11h-0.16c-4.17,0-6.81,3.1-7.43,8.74C11.2,29.03,8.39,33.9,4.3,36.49l-0.14,0.1
					c-0.91,0.57-2.04,1.29-2.48,2.58c-0.45,1.27-0.05,2.69,0.99,3.43c0.72,0.51,1.59,0.76,2.67,0.76c0.64,0,1.26-0.08,1.84-0.17
					c1.4-0.22,2.8-0.59,4.13-1.05c3.28-1.14,6.03-2.81,8.17-4.96c3.58-3.56,7.31-9.87,7.09-15.36c-0.03-0.95-0.21-1.86-0.49-2.73
					c-0.64-1.88-2.11-3.1-3.77-3.77c0.38-1.83,1.38-5.23,3.05-6.44c0.49-0.37,1-0.49,1.57-0.4c0.49,0.08,0.94-0.25,1.02-0.73
					C28.01,7.24,27.68,6.77,27.2,6.69z M24.75,19.51L24.75,19.51c0.25,0.75,0.4,1.53,0.43,2.34c0.21,5.07-3.32,10.99-6.68,14.33
					c-2,1.99-4.58,3.55-7.65,4.63c-1.26,0.45-2.58,0.78-3.9,0.99c-0.49,0.08-1.07,0.16-1.62,0.16c-0.78,0-1.38-0.16-1.86-0.51
					c-0.59-0.43-0.7-1.26-0.49-1.84c0.29-0.83,1.08-1.32,1.91-1.84l0.14-0.1c4.45-2.81,7.49-8.06,8.16-14.06
					c0.56-4.99,2.59-7.52,6.06-7.52h0.14C21.49,16.14,23.97,17.2,24.75,19.51z"/>
			</g>
		</g>
		<g>
			<g>
				<defs>
					<path id="SVGID_1_" d="M17.07,33.2c2.51-2.61,5.41-7.09,5.25-11.11c-0.02-0.4,0.29-0.72,0.68-0.73
						c0.38-0.02,0.72,0.29,0.73,0.68c0.17,4.45-2.8,9.19-5.64,12.15c-0.14,0.14-0.32,0.22-0.51,0.22c-0.17,0-0.35-0.06-0.49-0.19
						C16.8,33.93,16.8,33.49,17.07,33.2L17.07,33.2z"/>
				</defs>
				<clipPath id="SVGID_2_">
					<use xlink:href="#SVGID_1_"  style="overflow:visible;"/>
				</clipPath>
				<rect x="8.91" y="13.4" class="st2" width="22.77" height="28.94"/>
			</g>
		</g>
	</g>
	<g>
		<g>
			<g>
				<path class="st0" d="M39.78,16.09c-3.47,0-5.5,2.53-6.06,7.52c-0.67,5.99-3.72,11.24-8.16,14.06l-0.14,0.1
					c-0.83,0.52-1.62,1.02-1.91,1.84c-0.21,0.59-0.11,1.42,0.49,1.84c0.46,0.33,1.08,0.51,1.86,0.51c0.56,0,1.13-0.08,1.62-0.16
					c1.32-0.21,2.64-0.54,3.9-0.99c3.07-1.08,5.64-2.64,7.65-4.63c3.37-3.34,6.88-9.25,6.68-14.33c-0.03-0.81-0.17-1.61-0.43-2.34
					l0,0c-0.78-2.29-3.26-3.37-5.37-3.42L39.78,16.09z"/>
				<path class="st1" d="M47.73,6.69L47.73,6.69c-1.03-0.17-2.02,0.08-2.91,0.72c-2.26,1.64-3.34,5.63-3.72,7.41
					c-0.38-0.06-0.78-0.1-1.16-0.11h-0.16c-4.17,0-6.81,3.1-7.43,8.74c-0.62,5.58-3.43,10.45-7.52,13.04l-0.14,0.1
					c-0.91,0.57-2.04,1.29-2.48,2.58c-0.45,1.27-0.05,2.69,0.99,3.43c0.72,0.51,1.59,0.76,2.67,0.76c0.64,0,1.26-0.08,1.84-0.17
					c1.4-0.22,2.8-0.59,4.13-1.05c3.28-1.14,6.03-2.81,8.17-4.96c3.58-3.56,7.31-9.87,7.09-15.36c-0.03-0.95-0.21-1.86-0.49-2.73
					c-0.64-1.88-2.11-3.1-3.77-3.77c0.38-1.83,1.38-5.23,3.05-6.44c0.49-0.37,1-0.49,1.57-0.4c0.49,0.08,0.94-0.25,1.02-0.73
					C48.56,7.24,48.22,6.77,47.73,6.69z M45.28,19.51L45.28,19.51c0.25,0.75,0.4,1.53,0.43,2.34c0.21,5.07-3.32,10.99-6.68,14.33
					c-2,1.99-4.58,3.55-7.65,4.63c-1.26,0.45-2.58,0.78-3.9,0.99c-0.49,0.08-1.07,0.16-1.62,0.16c-0.78,0-1.38-0.16-1.86-0.51
					c-0.59-0.43-0.7-1.26-0.49-1.84c0.29-0.83,1.08-1.32,1.91-1.84l0.14-0.1c4.45-2.81,7.49-8.06,8.16-14.06
					c0.56-4.99,2.59-7.52,6.06-7.52h0.14C42.02,16.14,44.5,17.2,45.28,19.51z"/>
			</g>
		</g>
		<g>
			<g>
				<defs>
					<path id="SVGID_3_" d="M37.6,33.2c2.51-2.61,5.41-7.09,5.25-11.11c-0.02-0.4,0.29-0.72,0.68-0.73
						c0.38-0.02,0.72,0.29,0.73,0.68c0.17,4.45-2.8,9.19-5.64,12.15c-0.14,0.14-0.32,0.22-0.51,0.22c-0.17,0-0.35-0.06-0.49-0.19
						C37.35,33.93,37.33,33.49,37.6,33.2L37.6,33.2z"/>
				</defs>
				<clipPath id="SVGID_4_">
					<use xlink:href="#SVGID_3_"  style="overflow:visible;"/>
				</clipPath>
				<rect x="29.46" y="13.4" class="st3" width="22.77" height="28.94"/>
			</g>
		</g>
	</g>
</g>
</svg>
