<?xml version="1.0" encoding="utf-8"?>
<!-- Generator: Adobe Illustrator 23.1.1, SVG Export Plug-In . SVG Version: 6.00 Build 0)  -->
<svg version="1.1" id="Layer_1" xmlns="http://www.w3.org/2000/svg" xmlns:xlink="http://www.w3.org/1999/xlink" x="0px" y="0px"
	 viewBox="0 0 50 50" style="enable-background:new 0 0 50 50;" xml:space="preserve">
<style type="text/css">
	.st0{fill:#4C4B4B;}
</style>
<g>
	<path class="st0" d="M20.99,46.01c-0.51-0.27-0.99-0.54-1.45-0.83c-0.75-0.47-1.41-0.95-2-1.46c-0.7-0.61-1.27-1.22-1.73-1.87
		c-0.53-0.74-0.9-1.52-1.12-2.33c-0.24-0.85-0.3-1.8-0.19-2.74c0.11-0.94,0.38-1.94,0.82-2.98c0.4-0.95,0.93-1.93,1.62-3
		c1.23-1.89,2.7-3.69,4.53-5.8c0.4-0.46,0.81-0.92,1.2-1.38c1.25-1.42,2.43-2.77,3.48-4.1c1.61-2.04,2.65-3.72,3.27-5.28
		c0.72-1.78,0.9-3.52,0.52-5.17c-0.31-1.39-1.02-2.8-2.13-4.19c-0.24-0.31-0.5-0.61-0.78-0.91c0.55,0.35,1.05,0.7,1.53,1.08
		c0.66,0.53,1.22,1.06,1.71,1.63c0.56,0.65,1.01,1.34,1.33,2.04c0.36,0.78,0.58,1.61,0.64,2.46c0.07,0.88-0.01,1.82-0.25,2.79
		c-0.23,0.93-0.61,1.92-1.13,2.94c-0.47,0.93-1.06,1.89-1.78,2.94c-1.36,1.96-2.96,3.82-4.61,5.72l-0.45,0.52
		c-1.5,1.73-2.92,3.36-4.11,4.96c-1.49,2.01-2.42,3.76-2.83,5.34c-0.24,0.9-0.32,1.79-0.26,2.64c0.07,0.83,0.28,1.65,0.63,2.46
		c0.57,1.3,1.5,2.57,2.83,3.86C20.52,45.59,20.75,45.8,20.99,46.01z"/>
	<path class="st0" d="M24.81,38.77c-0.16-0.13-0.32-0.28-0.49-0.44c-0.47-0.47-0.82-0.96-1.05-1.49c-0.2-0.46-0.41-1.21-0.26-2.17
		c0.12-0.8,0.48-1.67,1.06-2.59c0.49-0.78,1.13-1.6,2.02-2.57c0.78-0.85,1.61-1.68,2.42-2.48c1.62-1.6,3.16-3.16,4.19-4.68
		c0.51-0.75,0.91-1.5,1.19-2.22c0.26-0.68,0.44-1.38,0.52-2.09c0.1-0.91,0.05-1.73-0.04-2.38c0.36,0.54,0.76,1.27,0.99,2.2
		c0.17,0.7,0.23,1.42,0.15,2.16c-0.08,0.82-0.33,1.71-0.73,2.57c-0.4,0.87-0.96,1.78-1.69,2.7c-0.63,0.81-1.4,1.67-2.36,2.62
		c-1.38,1.37-1.99,1.89-2.44,2.27c-0.59,0.51-0.92,0.79-2.25,2.31c-0.67,0.76-1.13,1.44-1.42,2.09c-0.31,0.67-0.45,1.36-0.42,2.04
		c0.02,0.56,0.15,1.12,0.4,1.72C24.69,38.5,24.75,38.64,24.81,38.77z"/>
	<path class="st0" d="M20.14,19.17c0.72-0.74,1.28-1.39,1.78-2.07c0.7-0.94,1.2-1.84,1.53-2.74c0.38-1.03,0.52-2.06,0.4-3.06
		c-0.1-0.87-0.39-1.77-0.87-2.68c-0.05-0.1-0.1-0.19-0.15-0.28c0.15,0.13,0.31,0.28,0.47,0.44c0.58,0.58,1.35,1.51,1.75,2.7
		c0.19,0.56,0.29,1.13,0.29,1.7c0,0.58-0.1,1.16-0.31,1.71c-0.36,0.99-1.03,1.91-1.98,2.73c-0.71,0.61-1.53,1.13-2.5,1.59
		c-0.26,0.12-0.52,0.24-0.78,0.34C19.88,19.44,20.01,19.31,20.14,19.17z"/>
</g>
</svg>
