<?xml version="1.0" encoding="utf-8"?>
<!-- Generator: Adobe Illustrator 23.1.1, SVG Export Plug-In . SVG Version: 6.00 Build 0)  -->
<svg version="1.1" id="Layer_1" xmlns="http://www.w3.org/2000/svg" xmlns:xlink="http://www.w3.org/1999/xlink" x="0px" y="0px"
	 viewBox="0 0 50 50" style="enable-background:new 0 0 50 50;" xml:space="preserve">
<style type="text/css">
	.st0{clip-path:url(#SVGID_2_);fill:#4C4B4B;}
	.st1{clip-path:url(#SVGID_4_);fill:#4C4B4B;}
	.st2{clip-path:url(#SVGID_6_);fill:#4C4B4B;}
	.st3{clip-path:url(#SVGID_8_);fill:#4C4B4B;}
	.st4{clip-path:url(#SVGID_10_);fill:#4C4B4B;}
</style>
<g>
	<g>
		<g>
			<defs>
				<path id="SVGID_1_" d="M15.61,22.68l-1.29,1.29c-0.24,0.24-0.24,0.63,0,0.85c0.24,0.24,0.63,0.24,0.85,0l1.29-1.29
					c0.16-0.15,0.22-0.37,0.16-0.58c-0.06-0.21-0.22-0.37-0.43-0.43C16,22.47,15.77,22.53,15.61,22.68L15.61,22.68z"/>
			</defs>
			<clipPath id="SVGID_2_">
				<use xlink:href="#SVGID_1_"  style="overflow:visible;"/>
			</clipPath>
			<rect x="6.67" y="15.02" class="st0" width="17.46" height="17.46"/>
		</g>
	</g>
	<g>
		<g>
			<defs>
				<path id="SVGID_3_" d="M22.95,15.17l-5.23,5.23c-0.19,0.18-0.27,0.46-0.19,0.72c0.07,0.25,0.27,0.46,0.52,0.52
					c0.25,0.07,0.54-0.01,0.72-0.19l5.23-5.23c0.28-0.28,0.27-0.75-0.01-1.03C23.69,14.89,23.23,14.89,22.95,15.17L22.95,15.17z"/>
			</defs>
			<clipPath id="SVGID_4_">
				<use xlink:href="#SVGID_3_"  style="overflow:visible;"/>
			</clipPath>
			<rect x="10.02" y="7.49" class="st1" width="21.64" height="21.64"/>
		</g>
	</g>
	<g>
		<g>
			<defs>
				<path id="SVGID_5_" d="M34.87,25.17l-1.3,1.3c-0.16,0.15-0.22,0.37-0.16,0.6c0.06,0.22,0.22,0.37,0.43,0.43s0.43-0.01,0.6-0.16
					l1.3-1.3c0.22-0.24,0.22-0.61,0-0.85C35.48,24.95,35.11,24.95,34.87,25.17L34.87,25.17z"/>
			</defs>
			<clipPath id="SVGID_6_">
				<use xlink:href="#SVGID_5_"  style="overflow:visible;"/>
			</clipPath>
			<rect x="25.92" y="17.54" class="st2" width="17.46" height="17.46"/>
		</g>
	</g>
	<g>
		<g>
			<defs>
				<path id="SVGID_7_" d="M31.31,28.56l-5.22,5.22c-0.19,0.18-0.27,0.46-0.19,0.72c0.06,0.25,0.27,0.46,0.52,0.52
					c0.25,0.07,0.54-0.01,0.72-0.21l5.22-5.22c0.28-0.28,0.27-0.75-0.01-1.03C32.06,28.28,31.6,28.28,31.31,28.56L31.31,28.56z"/>
			</defs>
			<clipPath id="SVGID_8_">
				<use xlink:href="#SVGID_7_"  style="overflow:visible;"/>
			</clipPath>
			<rect x="18.39" y="20.88" class="st3" width="21.64" height="21.64"/>
		</g>
	</g>
	<g>
		<g>
			<defs>
				<path id="SVGID_9_" d="M44.35,16.59l-1.49,1.49c-4.26,4.26-7.58,2.21-7.97,1.94l-1.05-1.05c0.99-0.18,1.88-0.66,2.57-1.39
					c0.18-0.18,0.25-0.43,0.19-0.67s-0.25-0.43-0.49-0.49s-0.51,0.01-0.67,0.19c-0.72,0.85-1.85,1.21-2.93,0.94
					c-0.27-1.08,0.09-2.21,0.94-2.93c0.18-0.18,0.25-0.43,0.19-0.67c-0.06-0.24-0.25-0.43-0.49-0.49s-0.51,0.01-0.67,0.19
					c-0.73,0.69-1.23,1.58-1.39,2.57l-1.05-1.05c-0.27-0.39-2.32-3.72,1.94-7.98l1.49-1.48c0.27-0.27,0.72-0.27,1,0l0.91,0.91
					c0.18,0.36,0.96,2.17-0.91,4.05c-0.18,0.18-0.25,0.43-0.19,0.67c0.06,0.24,0.25,0.43,0.49,0.49s0.51-0.01,0.67-0.19
					c0.93-0.88,1.51-2.06,1.63-3.33l2.27,2.27c0.18,0.36,0.96,2.17-0.91,4.04c-0.27,0.27-0.27,0.72,0,0.99
					c0.27,0.27,0.72,0.27,0.99,0c0.93-0.88,1.51-2.06,1.63-3.33l3.33,3.33c0.13,0.13,0.21,0.31,0.21,0.49S44.47,16.46,44.35,16.59
					L44.35,16.59z M36.92,27l-9.91,9.91c-0.82,0.82-2.15,0.82-2.97,0L13.14,26.01c-0.82-0.82-0.82-2.15,0-2.97l9.91-9.91
					c0.82-0.82,2.15-0.82,2.97,0l10.89,10.89C37.74,24.84,37.74,26.17,36.92,27z M18.09,42.85l-1.48,1.48c-0.27,0.27-0.72,0.27-1,0
					L12.27,41c1.27-0.1,2.47-0.69,3.33-1.61c0.27-0.27,0.25-0.7-0.01-0.97c-0.27-0.27-0.7-0.27-0.97-0.01
					c-1.87,1.87-3.68,1.11-4.04,0.91l-2.27-2.27c1.27-0.1,2.47-0.69,3.33-1.63c0.27-0.27,0.27-0.72,0-0.99
					c-0.27-0.27-0.72-0.27-0.99,0c-1.87,1.87-3.68,1.11-4.04,0.91l-0.91-0.91c-0.13-0.13-0.21-0.31-0.21-0.49s0.07-0.37,0.21-0.49
					l1.49-1.49c4.26-4.26,7.58-2.21,7.97-1.94l1.05,1.05c-0.99,0.18-1.88,0.66-2.57,1.39c-0.18,0.18-0.25,0.43-0.19,0.67
					s0.25,0.43,0.49,0.49c0.24,0.06,0.51-0.01,0.67-0.19c0.72-0.85,1.85-1.21,2.93-0.94c0.27,1.08-0.09,2.21-0.94,2.93
					c-0.18,0.18-0.25,0.43-0.19,0.67s0.25,0.43,0.49,0.49c0.24,0.06,0.51-0.01,0.67-0.19c0.73-0.69,1.23-1.58,1.39-2.57l1.05,1.05
					C20.28,35.26,22.35,38.59,18.09,42.85L18.09,42.85z M40.37,9.64L35.42,4.7c-0.82-0.82-2.15-0.82-2.97,0l-1.49,1.48
					c-2.66,2.66-3.18,5.1-3.03,6.89l-0.94-0.94c-1.37-1.36-3.59-1.36-4.95,0l-9.91,9.91c-0.66,0.66-1.03,1.55-1.03,2.48
					c0,0.93,0.37,1.82,1.03,2.48l0.94,0.94c-1.79-0.15-4.23,0.37-6.87,3.03L4.7,32.45c-0.39,0.39-0.61,0.93-0.61,1.48
					s0.22,1.09,0.61,1.48l4.95,4.95l4.95,4.95c0.82,0.82,2.15,0.82,2.97,0l1.48-1.49c2.66-2.66,3.18-5.1,3.03-6.87l0.94,0.94
					c1.37,1.36,3.59,1.36,4.95,0l9.91-9.91c0.66-0.66,1.03-1.54,1.03-2.48c0-0.93-0.37-1.82-1.03-2.48l-0.94-0.94
					c0.18,0.01,0.36,0.03,0.55,0.03c1.72,0,3.95-0.66,6.34-3.05l1.48-1.48c0.39-0.39,0.61-0.93,0.61-1.48s-0.22-1.09-0.61-1.48
					L40.37,9.64z"/>
			</defs>
			<clipPath id="SVGID_10_">
				<use xlink:href="#SVGID_9_"  style="overflow:visible;"/>
			</clipPath>
			<rect x="-3.37" y="-3.39" class="st4" width="56.79" height="56.79"/>
		</g>
	</g>
</g>
</svg>
