<?xml version="1.0" encoding="utf-8"?>
<!-- Generator: Adobe Illustrator 23.1.1, SVG Export Plug-In . SVG Version: 6.00 Build 0)  -->
<svg version="1.1" id="Layer_1" xmlns="http://www.w3.org/2000/svg" xmlns:xlink="http://www.w3.org/1999/xlink" x="0px" y="0px"
	 viewBox="0 0 50 50" style="enable-background:new 0 0 50 50;" xml:space="preserve">
<style type="text/css">
	.st0{fill:#4C4B4B;stroke:#4C4B4B;stroke-width:0.3939;stroke-miterlimit:10;}
</style>
<path class="st0" d="M45.32,45.1H25.46V31.81l5.41-2.58c0,0.02-0.01,0.03-0.01,0.05c-0.09,1.12,0.24,2.05,0.98,2.77
	c1.42,1.38,4.07,1.63,5.79,1.63c0.91,0,1.57-0.07,1.64-0.08c0.16-0.02,0.3-0.12,0.37-0.26c0.07-0.14,0.06-0.31-0.02-0.45
	c-0.11-0.18-2.82-4.47-5.83-4.86C33.67,28.01,33.56,28,33.44,28l2.28-1.09c0.57,0.37,1.17,0.56,1.8,0.56c0.21,0,0.43-0.02,0.64-0.06
	c2.98-0.58,5.42-5.02,5.52-5.21c0.08-0.14,0.07-0.31,0-0.45c-0.08-0.14-0.22-0.23-0.38-0.24c-0.21-0.01-5.28-0.24-7.32,2
	c-0.66,0.72-0.94,1.61-0.83,2.65l-2.11,1.01c0.04-0.08,0.08-0.16,0.12-0.25c1.23-2.77-1.01-7.32-1.11-7.51
	c-0.07-0.14-0.21-0.24-0.37-0.25c-0.16-0.01-0.31,0.05-0.41,0.18c-0.13,0.17-3.22,4.19-2.55,7.15c0.2,0.87,0.68,1.56,1.45,2.05
	l-4.71,2.25V18.94c0.58,0.35,1.18,0.53,1.78,0.53c0.31,0,0.63-0.05,0.94-0.14c2.91-0.87,4.9-5.52,4.99-5.72
	c0.06-0.15,0.04-0.31-0.05-0.45c-0.09-0.13-0.24-0.21-0.4-0.2c-0.21,0.01-5.28,0.28-7.09,2.71c-0.06,0.08-0.12,0.17-0.17,0.26V13.7
	c0-0.06-0.01-0.12-0.04-0.18c0.9-0.42,1.51-1.08,1.8-1.98c0.95-2.88-1.73-7.18-1.84-7.36c-0.17-0.27-0.62-0.27-0.79,0
	c-0.11,0.18-2.79,4.48-1.84,7.36c0.3,0.9,0.9,1.56,1.8,1.98c-0.02,0.05-0.04,0.12-0.04,0.18v2.23c-0.05-0.09-0.11-0.17-0.17-0.26
	c-1.82-2.43-6.88-2.7-7.09-2.71c-0.16-0.01-0.31,0.07-0.4,0.2c-0.09,0.13-0.11,0.3-0.05,0.45c0.08,0.2,2.08,4.86,4.99,5.72
	c0.32,0.09,0.63,0.14,0.94,0.14c0.61,0,1.2-0.18,1.78-0.53v11.85l-4.71-2.25c0.77-0.5,1.26-1.19,1.45-2.05
	c0.67-2.96-2.42-6.98-2.55-7.15c-0.1-0.13-0.25-0.19-0.41-0.18c-0.16,0.02-0.3,0.11-0.37,0.25c-0.1,0.19-2.34,4.74-1.11,7.51
	c0.04,0.08,0.08,0.17,0.12,0.25l-2.11-1.01c0.11-1.04-0.17-1.93-0.83-2.65c-2.05-2.24-7.11-2.01-7.32-2
	c-0.16,0.01-0.3,0.1-0.38,0.24c-0.08,0.14-0.08,0.31,0,0.45c0.1,0.19,2.55,4.63,5.52,5.21c0.22,0.04,0.43,0.06,0.64,0.06
	c0.63,0,1.23-0.19,1.8-0.56L16.56,28c-0.11,0-0.23,0.01-0.34,0.03c-3.01,0.4-5.71,4.68-5.83,4.86c-0.08,0.14-0.09,0.3-0.02,0.45
	c0.07,0.14,0.21,0.24,0.37,0.26c0.07,0.01,0.73,0.08,1.64,0.08c1.72,0,4.37-0.25,5.79-1.63c0.74-0.72,1.07-1.65,0.98-2.77
	c0-0.02-0.01-0.03-0.01-0.05l5.41,2.58V45.1H4.68c-0.26,0-0.46,0.21-0.46,0.46c0,0.26,0.21,0.46,0.46,0.46h40.65
	c0.26,0,0.46-0.21,0.46-0.46C45.79,45.3,45.58,45.1,45.32,45.1z M38.38,32.73c-1.44,0.06-4.49,0.01-5.89-1.35
	c-0.5-0.49-0.74-1.09-0.71-1.85c0.58-0.49,1.2-0.68,1.89-0.59C35.6,29.2,37.53,31.56,38.38,32.73z M31.55,20.55
	c0.56,1.34,1.56,4.21,0.77,5.99c-0.28,0.64-0.77,1.07-1.49,1.3c-0.66-0.37-1.05-0.89-1.2-1.57C29.2,24.37,30.74,21.75,31.55,20.55z
	 M36.67,24.13c1.32-1.44,4.35-1.68,5.8-1.7c-0.78,1.22-2.56,3.69-4.48,4.06c-0.69,0.13-1.32-0.02-1.92-0.47
	C36,25.27,36.2,24.65,36.67,24.13z M26.38,16.23c1.17-1.56,4.17-2.09,5.6-2.26c-0.65,1.29-2.19,3.92-4.06,4.48
	c-0.67,0.2-1.31,0.11-1.96-0.28C25.83,17.42,25.96,16.78,26.38,16.23z M24.03,18.16c-0.65,0.39-1.29,0.48-1.96,0.28
	c-1.87-0.56-3.4-3.19-4.06-4.48c1.44,0.17,4.44,0.7,5.6,2.26C24.04,16.78,24.17,17.42,24.03,18.16z M18.45,20.55
	c0.81,1.2,2.35,3.82,1.92,5.73c-0.15,0.68-0.55,1.2-1.2,1.57c-0.72-0.24-1.2-0.67-1.49-1.3C16.89,24.76,17.89,21.88,18.45,20.55z
	 M17.51,31.38c-1.4,1.36-4.45,1.41-5.89,1.35c0.85-1.17,2.78-3.53,4.71-3.78c0.69-0.09,1.31,0.1,1.89,0.59
	C18.24,30.29,18.01,30.89,17.51,31.38z M12.01,26.49c-1.92-0.37-3.7-2.84-4.48-4.06c1.45,0.03,4.48,0.26,5.8,1.7
	c0.47,0.51,0.67,1.13,0.6,1.88C13.32,26.47,12.69,26.62,12.01,26.49z M23.65,11.25C23.04,9.4,24.32,6.63,25,5.36
	c0.68,1.27,1.97,4.03,1.35,5.89c-0.22,0.66-0.66,1.14-1.35,1.45C24.31,12.39,23.87,11.91,23.65,11.25z"/>
</svg>
