<?xml version="1.0" encoding="utf-8"?>
<!-- Generator: Adobe Illustrator 23.1.1, SVG Export Plug-In . SVG Version: 6.00 Build 0)  -->
<svg version="1.1" id="Layer_1" xmlns="http://www.w3.org/2000/svg" xmlns:xlink="http://www.w3.org/1999/xlink" x="0px" y="0px"
	 viewBox="0 0 50 50" style="enable-background:new 0 0 50 50;" xml:space="preserve">
<style type="text/css">
	.st0{clip-path:url(#SVGID_2_);fill:#454548;}
</style>
<g>
	<g>
		<defs>
			<path id="SVGID_1_" d="M35.09,22.1c-0.58,0.84-1.6,1.32-2.83,1.32h-1.93l-6.62-0.01c-2.14,0-4.28,0.01-6.42,0.04h-0.07
				c-1.34,0-2.15-0.61-2.55-1.91c-0.52-1.7-0.18-3.42,1-4.95c0.31-0.41,0.68-0.66,1.08-0.82l9.4,3.43c0.08,0.03,0.17,0.04,0.25,0.04
				c0.31,0,0.59-0.2,0.7-0.49c0.14-0.39-0.06-0.82-0.45-0.96l-9.15-3.34c0.1-1.44,0.59-2.55,1.46-3.21
				c0.15-0.11,0.31-0.18,0.48-0.27l4.94,1.96c0.08,0.04,0.18,0.06,0.28,0.06c0.3,0,0.58-0.18,0.7-0.48
				c0.15-0.38-0.04-0.82-0.42-0.97l-4.22-1.68c1.06-1.17,2.63-3.21,2.2-4.25c-0.06-0.14-0.2-0.56-0.34-0.65
				c0.8-0.63,1.68-0.96,2.62-0.96c0.8,0,1.62,0.24,2.41,0.7c1.89,1.1,2.63,2.77,2.22,4.98c-0.06,0.31,0.07,0.61,0.34,0.77
				c2.42,1.52,2.93,2.53,2.45,4.9c-0.04,0.23,0.01,0.45,0.15,0.62c0.27,0.32,0.53,0.62,0.79,0.9c0.73,0.82,1.41,1.58,1.75,2.46
				C35.71,20.35,35.62,21.34,35.09,22.1L35.09,22.1z M31.55,28.7l-5.97,17.19c-0.14,0.39-0.7,0.41-0.86,0.01l-6.26-17.19l-1.39-3.74
				c0.06,0,0.1,0.03,0.15,0.03h0.07h0.01c2.14-0.03,4.27-0.04,6.4-0.04l6.62,0.01h1.93c0.24,0,0.46-0.04,0.69-0.08L31.55,28.7z
				 M34.17,15.3c0.44-2.62-0.3-4.17-2.77-5.83c0.32-2.6-0.73-4.74-3.01-6.05c-2.25-1.31-4.79-1.17-6.71,0.37
				c-0.44,0.34-0.66,0.87-0.63,1.42c0.03,0.38,0.18,0.73,0.42,1.01c-0.25,0.68-1.42,2.35-2.45,3.29c-0.32,0.14-0.63,0.32-0.91,0.53
				c-1.25,0.94-2,2.49-2.1,4.39c-0.58,0.27-1.08,0.68-1.52,1.24C13,17.62,12.56,19.8,13.24,22c0.38,1.24,1.1,2.06,2.07,2.52
				l8.14,21.83c0.25,0.68,0.9,1.13,1.65,1.13c0.73,0,1.39-0.46,1.63-1.14l7.95-21.83c0.01-0.04,0.01-0.1,0.03-0.15
				c0.65-0.34,1.21-0.8,1.62-1.39c0.82-1.18,0.97-2.65,0.42-4.12c-0.44-1.15-1.24-2.07-2.03-2.94
				C34.52,15.71,34.35,15.51,34.17,15.3z"/>
		</defs>
		<clipPath id="SVGID_2_">
			<use xlink:href="#SVGID_1_"  style="overflow:visible;"/>
		</clipPath>
		<rect x="5.89" y="-4.52" class="st0" width="38.22" height="59.02"/>
	</g>
</g>
</svg>
