<?xml version="1.0" encoding="utf-8"?>
<!-- Generator: Adobe Illustrator 23.1.1, SVG Export Plug-In . SVG Version: 6.00 Build 0)  -->
<svg version="1.1" id="Layer_1" xmlns="http://www.w3.org/2000/svg" xmlns:xlink="http://www.w3.org/1999/xlink" x="0px" y="0px"
	 viewBox="0 0 50 50" style="enable-background:new 0 0 50 50;" xml:space="preserve">
<style type="text/css">
	.st0{clip-path:url(#SVGID_2_);fill:#4C4B4B;}
	.st1{clip-path:url(#SVGID_4_);fill:#4C4B4B;}
	.st2{clip-path:url(#SVGID_6_);fill:#4C4B4B;}
	.st3{clip-path:url(#SVGID_8_);fill:#4C4B4B;}
	.st4{clip-path:url(#SVGID_10_);fill:#4C4B4B;}
	.st5{clip-path:url(#SVGID_12_);fill:#4C4B4B;}
	.st6{clip-path:url(#SVGID_14_);fill:#4C4B4B;}
</style>
<g>
	<g>
		<g>
			<defs>
				<path id="SVGID_1_" d="M23.31,6.78c1.31-0.19,2.86-0.23,3.6,0.03c0.73,0.26,1.9,1.29,2.78,2.25c0.45,0.49,0.51,0.59,0.77,0.94
					c-0.44,0.09-0.54,0.14-1.22,0.23c-1.31,0.19-2.86,0.23-3.6-0.03c-0.73-0.26-1.9-1.29-2.78-2.25c-0.45-0.49-0.51-0.59-0.77-0.94
					C22.52,6.92,22.62,6.88,23.31,6.78z M23.1,5.35c-1.4,0.19-2.53,0.49-2.53,0.49l0,0c-0.23,0.05-0.42,0.23-0.51,0.45
					c-0.09,0.23-0.05,0.47,0.09,0.66c0,0,0.68,0.94,1.62,1.97c0.94,1.03,2.1,2.18,3.37,2.64c1.27,0.45,2.92,0.3,4.31,0.1
					c1.4-0.19,2.53-0.49,2.53-0.49c0.23-0.07,0.42-0.23,0.51-0.45c0.09-0.23,0.05-0.47-0.09-0.66c0,0-0.68-0.94-1.62-1.97
					c-0.94-1.03-2.1-2.18-3.37-2.64C26.12,5,24.49,5.15,23.1,5.35L23.1,5.35z"/>
			</defs>
			<clipPath id="SVGID_2_">
				<use xlink:href="#SVGID_1_"  style="overflow:visible;"/>
			</clipPath>
			<rect x="11.29" y="-3.58" class="st0" width="29.96" height="24.17"/>
		</g>
	</g>
	<g>
		<g>
			<defs>
				<path id="SVGID_3_" d="M39.4,7.27c0.52,0.07,0.59,0.1,0.96,0.19c-0.23,0.3-0.26,0.35-0.61,0.73c-0.79,0.86-1.83,1.76-2.46,1.99
					s-2.03,0.19-3.2,0.02c-0.52-0.07-0.59-0.1-0.96-0.17c0.23-0.3,0.26-0.35,0.61-0.73c0.79-0.86,1.83-1.76,2.46-1.99
					C36.84,7.06,38.23,7.09,39.4,7.27L39.4,7.27z M39.61,5.84c-1.26-0.17-2.72-0.31-3.89,0.1c-1.17,0.42-2.22,1.45-3.06,2.37
					s-1.47,1.76-1.47,1.76l0,0c-0.14,0.19-0.17,0.44-0.09,0.66c0.09,0.23,0.28,0.4,0.51,0.45c0,0,1.03,0.26,2.29,0.44
					s2.72,0.31,3.89-0.1c1.17-0.42,2.22-1.45,3.06-2.37s1.47-1.76,1.47-1.76l0,0c0.14-0.19,0.17-0.44,0.09-0.66s-0.28-0.4-0.51-0.45
					C41.9,6.25,40.87,6.01,39.61,5.84z"/>
			</defs>
			<clipPath id="SVGID_4_">
				<use xlink:href="#SVGID_3_"  style="overflow:visible;"/>
			</clipPath>
			<rect x="22.33" y="-3.07" class="st1" width="28.85" height="23.61"/>
		</g>
	</g>
	<g>
		<g>
			<defs>
				<path id="SVGID_5_" d="M32.89,26.04c4.87,0,8.82,3.88,8.82,8.68s-3.93,8.68-8.82,8.68s-8.82-3.88-8.82-8.68
					C24.07,29.91,28.02,26.04,32.89,26.04z M32.89,24.59c-5.67,0-10.28,4.54-10.28,10.13s4.61,10.13,10.28,10.13
					s10.28-4.54,10.28-10.13S38.57,24.59,32.89,24.59z"/>
			</defs>
			<clipPath id="SVGID_6_">
				<use xlink:href="#SVGID_5_"  style="overflow:visible;"/>
			</clipPath>
			<rect x="13.88" y="15.86" class="st2" width="38.03" height="37.7"/>
		</g>
	</g>
	<g>
		<g>
			<defs>
				<path id="SVGID_7_" d="M16.88,20.26c-4.49,0.09-8.42,3.06-9.66,7.32c-1.24,4.26,0.47,8.82,4.23,11.24
					c3.75,2.44,8.7,2.18,12.17-0.61c0.16-0.12,0.24-0.3,0.26-0.49c0.02-0.19-0.03-0.38-0.16-0.52c-0.12-0.16-0.3-0.24-0.49-0.26
					c-0.19-0.02-0.38,0.03-0.54,0.16c-2.99,2.41-7.21,2.62-10.42,0.52s-4.68-5.99-3.61-9.64s4.42-6.18,8.28-6.27
					c3.86-0.09,7.32,2.3,8.54,5.92c0.12,0.38,0.54,0.58,0.93,0.45c0.38-0.12,0.59-0.54,0.47-0.91
					C25.42,22.95,21.38,20.15,16.88,20.26L16.88,20.26z"/>
			</defs>
			<clipPath id="SVGID_8_">
				<use xlink:href="#SVGID_7_"  style="overflow:visible;"/>
			</clipPath>
			<rect x="-1.91" y="11.51" class="st3" width="37.54" height="37.7"/>
		</g>
	</g>
	<g>
		<g>
			<defs>
				<path id="SVGID_9_" d="M31.79,9.42c-0.33,0-0.63,0.23-0.72,0.54l-0.65,2.51c-0.98,3.84-3.21,7.26-6.34,9.73l-4.16,3.27l0,0
					c-0.16,0.12-0.26,0.3-0.3,0.49c-0.03,0.19,0.03,0.4,0.16,0.54c0.12,0.16,0.31,0.24,0.51,0.26s0.4-0.05,0.54-0.17L25,23.31
					c3.39-2.67,5.8-6.36,6.84-10.51L32,12.17l0.82,1.61c1.9,3.75,2.43,8.05,1.47,12.15l-0.66,2.81l0,0
					c-0.05,0.19-0.03,0.4,0.07,0.58s0.28,0.3,0.47,0.33c0.19,0.05,0.4,0,0.58-0.1c0.17-0.1,0.28-0.28,0.31-0.49l0.66-2.81
					c1.03-4.42,0.47-9.06-1.59-13.11l-1.69-3.35l0,0C32.33,9.55,32.07,9.42,31.79,9.42L31.79,9.42z"/>
			</defs>
			<clipPath id="SVGID_10_">
				<use xlink:href="#SVGID_9_"  style="overflow:visible;"/>
			</clipPath>
			<rect x="10.91" y="0.68" class="st4" width="34.07" height="37.73"/>
		</g>
	</g>
	<g>
		<g>
			<defs>
				<path id="SVGID_11_" d="M16.41,24.71c-0.35,0.02-0.65,0.26-0.7,0.61c-0.23,1.19,0.12,2.41,0.91,3.32
					c0.8,0.91,1.97,1.41,3.2,1.38l0,0c0.4-0.02,0.72-0.35,0.72-0.75c-0.02-0.4-0.35-0.72-0.77-0.7c-0.79,0.03-1.52-0.3-2.04-0.87
					c-0.51-0.58-0.72-1.36-0.58-2.11l0,0c0.05-0.21-0.02-0.44-0.16-0.61C16.84,24.8,16.62,24.71,16.41,24.71L16.41,24.71z"/>
			</defs>
			<clipPath id="SVGID_12_">
				<use xlink:href="#SVGID_11_"  style="overflow:visible;"/>
			</clipPath>
			<rect x="6.91" y="15.98" class="st5" width="22.35" height="22.75"/>
		</g>
	</g>
	<g>
		<g>
			<defs>
				<path id="SVGID_13_" d="M31.13,29.22c-0.26,0-0.49,0.14-0.63,0.37c-0.12,0.23-0.12,0.49,0,0.72c0.61,1.1,1.68,1.89,2.93,2.15
					c1.24,0.26,2.55-0.02,3.56-0.75c0.16-0.12,0.26-0.28,0.3-0.47c0.03-0.19-0.02-0.38-0.14-0.54s-0.3-0.26-0.49-0.28
					c-0.19-0.03-0.38,0.02-0.54,0.14c-0.68,0.51-1.54,0.68-2.37,0.51c-0.84-0.17-1.54-0.7-1.96-1.43l0,0
					C31.67,29.36,31.41,29.22,31.13,29.22L31.13,29.22z"/>
			</defs>
			<clipPath id="SVGID_14_">
				<use xlink:href="#SVGID_13_"  style="overflow:visible;"/>
			</clipPath>
			<rect x="21.68" y="20.49" class="st6" width="24.34" height="20.78"/>
		</g>
	</g>
</g>
</svg>
