<?xml version="1.0" encoding="utf-8"?>
<!-- Generator: Adobe Illustrator 23.1.1, SVG Export Plug-In . SVG Version: 6.00 Build 0)  -->
<svg version="1.1" id="Layer_1" xmlns="http://www.w3.org/2000/svg" xmlns:xlink="http://www.w3.org/1999/xlink" x="0px" y="0px"
	 viewBox="0 0 50 50" style="enable-background:new 0 0 50 50;" xml:space="preserve">
<style type="text/css">
	.st0{fill:#4C4B4B;}
</style>
<g>
	<path class="st0" d="M25,23.07c1.28,0.87,2.74,1.7,4.26,2.49c0.51,0.26,1.13,0.17,1.53-0.23l0.36-0.36
		c-1.78-0.93-3.48-2.02-5.06-3.24l-0.49-0.39c-0.35-0.28-0.85-0.28-1.2,0l-0.49,0.39c-1.58,1.22-3.27,2.3-5.05,3.23l0.36,0.36
		c0.4,0.4,1.02,0.5,1.53,0.23C22.27,24.76,23.72,23.94,25,23.07L25,23.07z"/>
	<path class="st0" d="M25.64,31.79c-0.39-0.22-0.87-0.22-1.26,0c-0.25,0.14-0.5,0.27-0.75,0.41c0,0,0,0,0.01,0
		c-0.29,0.15-0.58,0.3-0.87,0.45c-0.05,0.03-0.1,0.06-0.16,0.08c0,0,0,0,0,0c-1.47,0.72-3.01,1.34-4.59,1.85l0.38,0.31
		c0.56,0.47,1.32,0.61,2.01,0.38c1.62-0.54,3.18-1.13,4.6-1.8v0c1.49,0.7,3.12,1.31,4.82,1.87c0.68,0.22,1.43,0.09,1.99-0.37
		l0.4-0.33c-2.03-0.64-4-1.46-5.84-2.44L25.64,31.79z"/>
	<path class="st0" d="M21.87,14.67c1.07-0.9,2.08-1.8,3.13-2.79v0c1.12,1.06,2.21,2.03,3.37,3c0.35,0.29,0.87,0.24,1.16-0.11
		l0.36-0.44c-1.4-1.19-2.71-2.48-3.9-3.87l-0.41-0.49c-0.3-0.37-0.86-0.37-1.16,0l-0.41,0.49c-1.12,1.3-2.34,2.52-3.64,3.65
		l0.32,0.43C20.97,14.91,21.51,14.97,21.87,14.67z"/>
	<path class="st0" d="M29.71,16.04c-0.33,0.42-0.68,0.82-1.03,1.22c-0.19,0.21-0.38,0.41-0.57,0.62c-0.18,0.2-0.36,0.39-0.55,0.59
		c-0.25,0.25-0.5,0.5-0.76,0.75c-0.14,0.14-0.28,0.28-0.42,0.41c-0.18,0.17-0.38,0.34-0.56,0.5l0.75,0.59
		c0.2,0.16,0.49,0.15,0.68-0.02c0.02-0.02,0.04-0.04,0.06-0.06c0.19-0.17,0.36-0.35,0.55-0.53c0.23-0.22,0.46-0.44,0.68-0.66
		c0.25-0.26,0.49-0.52,0.73-0.78c0.15-0.16,0.3-0.31,0.44-0.48c0.37-0.41,0.72-0.83,1.07-1.26c0.02-0.02,0.03-0.04,0.05-0.06
		c0,0,0,0,0,0c0-0.01,0.01-0.01,0.01-0.02c0.05,0.04,0.1,0.07,0.15,0.11c0.31,0.23,0.62,0.45,0.94,0.66
		c0.21,0.14,0.42,0.28,0.63,0.42c0.13,0.09,0.26,0.17,0.4,0.25c0.02,0.02,0.05,0.03,0.07,0.05c0.41,0.26,0.95,0.14,1.21-0.26
		c0.09-0.15,0.18-0.3,0.24-0.46c-0.25-0.15-0.5-0.3-0.75-0.46c-0.14-0.09-0.28-0.18-0.42-0.27c-0.2-0.13-0.39-0.26-0.59-0.39
		c-0.31-0.21-0.62-0.43-0.92-0.65c-0.04-0.03-0.08-0.06-0.13-0.09l-0.5-0.39c-0.32-0.25-0.79-0.19-1.04,0.13L29.75,16
		C29.74,16.01,29.73,16.03,29.71,16.04z"/>
	<path class="st0" d="M19.17,16.84c0,0.01,0.01,0.01,0.01,0.02c0,0,0,0,0,0c0.02,0.02,0.04,0.05,0.06,0.07
		c0.34,0.42,0.69,0.84,1.06,1.25c0.15,0.16,0.3,0.32,0.45,0.48c0.24,0.26,0.48,0.52,0.73,0.78c0.22,0.23,0.45,0.44,0.68,0.67
		c0.18,0.18,0.36,0.36,0.54,0.53c0,0,0,0,0,0c0.21,0.19,0.54,0.17,0.73-0.04l0.58-0.63c-0.13-0.12-0.26-0.23-0.39-0.35
		c-0.14-0.13-0.28-0.27-0.42-0.41c-0.26-0.25-0.51-0.49-0.76-0.75c-0.18-0.19-0.36-0.39-0.54-0.58c-0.19-0.21-0.39-0.41-0.58-0.63
		c-0.34-0.39-0.68-0.78-1-1.18c-0.02-0.03-0.04-0.05-0.07-0.08l-0.38-0.5c-0.25-0.32-0.72-0.38-1.04-0.13l-0.5,0.39
		c-0.04,0.03-0.08,0.06-0.12,0.09c-0.3,0.22-0.61,0.44-0.92,0.65c-0.19,0.13-0.39,0.26-0.59,0.39c-0.14,0.09-0.28,0.18-0.42,0.27
		c-0.25,0.16-0.5,0.31-0.76,0.46c0.07,0.16,0.15,0.31,0.24,0.46c0.26,0.4,0.8,0.52,1.21,0.26c0.03-0.02,0.05-0.03,0.08-0.05
		c0.13-0.08,0.27-0.17,0.4-0.25c0.21-0.14,0.42-0.28,0.63-0.42c0.32-0.22,0.64-0.44,0.94-0.67C19.06,16.91,19.12,16.88,19.17,16.84z
		"/>
	<path class="st0" d="M40.44,31.71c0.02-0.11,0.03-0.23,0.03-0.34c-0.03-0.53-0.31-0.98-0.71-1.24c0.02-0.03,0.04-0.06,0.07-0.09
		c0.45-0.63,0.31-1.57-0.51-2.04c-0.06-0.04-0.13-0.06-0.2-0.07c-0.07-0.01-0.14-0.03-0.22-0.05c0.41-0.56,1.03-1.95,0.64-6.35
		c-0.07-0.96-0.81-1.68-1.75-1.7c-0.12-0.34-0.36-0.63-0.69-0.79c-0.17-0.08-0.34-0.18-0.51-0.26c0.06-0.11,0.11-0.24,0.14-0.37
		c0.35-1.72-0.6-4.13-1.47-5.86c-0.02-0.04-0.04-0.07-0.06-0.11c-0.31-0.51-0.88-0.82-1.48-0.82c-0.47,0-0.91,0.2-1.24,0.54
		c-0.79-2.88-3.4-5.23-3.74-5.54c-0.25-0.22-0.57-0.34-0.9-0.34c-0.06,0-0.12,0-0.19,0.01c-0.12,0.02-0.24,0.05-0.35,0.1
		c-0.46-0.65-1.27-1.06-2.11-1.17C25.12,5.22,25.06,5.22,25,5.22c-0.07,0-0.13,0-0.2,0.01c-0.82,0.12-1.64,0.51-2.1,1.17
		c-0.11-0.05-0.22-0.08-0.34-0.1c-0.06-0.01-0.12-0.01-0.19-0.01c-0.33,0-0.65,0.12-0.9,0.34c-0.35,0.3-2.96,2.66-3.74,5.54
		c-0.32-0.34-0.77-0.54-1.24-0.54c-0.6,0-1.16,0.31-1.48,0.82c-0.02,0.03-0.04,0.07-0.06,0.11c-0.86,1.72-1.82,4.14-1.47,5.86
		c0.03,0.13,0.08,0.25,0.14,0.37c-0.17,0.09-0.34,0.18-0.51,0.26c-0.33,0.16-0.57,0.45-0.69,0.79c-0.94,0.02-1.68,0.74-1.75,1.71
		c-0.4,4.42,0.24,5.8,0.65,6.35c-0.5,0.07-0.92,0.41-1.1,0.88c-0.16,0.43-0.1,0.9,0.16,1.27c0.02,0.03,0.04,0.06,0.07,0.09
		c-0.41,0.26-0.69,0.71-0.71,1.24c-0.01,0.12,0,0.23,0.03,0.34c0.69,3.4,1.68,4.26,2.14,4.56c-0.34,0.35-0.51,0.87-0.29,1.5
		c0.01,0.02,0.02,0.04,0.02,0.05c0.09,0.16,0.2,0.31,0.3,0.45c0.03,0.04,0.06,0.08,0.09,0.12c0.01,0.01,0.01,0.02,0.02,0.03
		c1.17,1.6,3.52,4.27,6.16,4.27c0.07,0,0.13,0,0.2,0c0.11,0.29,0.32,0.54,0.61,0.7c0.67,0.37,1.42,0.67,2.22,0.88
		c0.03,0.01,0.06,0.02,0.09,0.03c0.03,0.01,0.06,0.01,0.09,0.02c0.18,0.04,0.34,0.08,0.46,0.11l0.06,0.01
		c0.05,0.01,0.1,0.02,0.14,0.02c1.05,0.21,2.1,0.31,3.13,0.31c1.03,0,2.08-0.11,3.13-0.31c0.05-0.01,0.09-0.01,0.14-0.02l0.06-0.01
		c0.12-0.03,0.27-0.06,0.46-0.11c0.03-0.01,0.06-0.01,0.09-0.02c0.03-0.01,0.06-0.02,0.09-0.03c0.79-0.21,1.52-0.5,2.19-0.86
		c0.29-0.15,0.52-0.41,0.64-0.72c0.06,0,0.13,0,0.19,0c2.64,0,4.99-2.68,6.16-4.27c0.01-0.01,0.01-0.02,0.02-0.03
		c0.03-0.04,0.06-0.08,0.09-0.12c0.1-0.13,0.19-0.27,0.28-0.41c0.02-0.04,0.04-0.08,0.06-0.12c0.21-0.62,0.04-1.14-0.3-1.48
		C38.76,35.98,39.74,35.11,40.44,31.71z M18,41.33c-2.13,0-4.3-2.69-5.05-3.71c-0.09-0.13-0.19-0.26-0.27-0.39
		c1.17-0.17,2.32-0.4,3.44-0.68c0.19,0.17,0.4,0.32,0.6,0.49c0.04,0.05,0.09,0.09,0.14,0.14c1.11,0.9,2.27,1.73,3.47,2.49
		c0,0,0.01,0,0.01,0.01c0.46,0.29,0.93,0.57,1.41,0.84c0.03,0.02,0.06,0.04,0.1,0.06l-0.01,0C21.84,40.57,20.64,41.33,18,41.33z
		 M25,42.99c-2.31,0-3.5-0.45-3.94-0.66c0.23-0.06,0.44-0.13,0.62-0.2c1.64-0.17,3.32-0.49,3.32-0.49v0c0,0,1.67,0.33,3.31,0.49
		c0.22,0.08,0.48,0.16,0.78,0.24C28.51,42.59,27.17,42.99,25,42.99z M37.05,37.62c-0.75,1.02-2.92,3.71-5.05,3.71
		c-2.63,0-3.83-0.76-3.83-0.76l-0.01,0c1.75-0.99,3.42-2.12,4.98-3.39c0.05-0.04,0.1-0.09,0.14-0.14c0.2-0.16,0.4-0.32,0.6-0.49
		c1.13,0.28,2.28,0.5,3.44,0.68C37.24,37.37,37.14,37.49,37.05,37.62z M37.48,35.16c-0.5,0.29-1.01,0.37-1.44,0.37
		c-0.4,0-0.72-0.07-0.86-0.11l-1.55-0.36c-0.04-0.01-0.09,0-0.12,0.03l-1.25,1.02c-1.49,1.21-3.09,2.31-4.77,3.26
		c-0.81,0.46-1.64,0.89-2.49,1.28v0c-0.85-0.39-1.68-0.82-2.49-1.28c-1.68-0.95-3.28-2.05-4.77-3.26l-1.25-1.02
		c-0.03-0.03-0.08-0.04-0.12-0.03l-1.55,0.36c-0.14,0.04-0.46,0.11-0.86,0.11c-0.42,0-0.94-0.08-1.44-0.37
		c-0.86-0.49-1.4-2.68-1.61-3.73c0.01-0.1,0.07-0.18,0.14-0.18c0.03,0,0.05,0.01,0.08,0.04c0.58,0.75,1.18,1.48,1.8,2.17
		c0.5,0.55,1.26,0.78,1.98,0.58l0.4-0.11c-1.05-1.04-2.07-2.19-3.05-3.44c-0.05-0.06-0.1-0.12-0.16-0.17
		c-0.27-0.35-0.54-0.71-0.8-1.08c0.67-0.16,1.33-0.35,1.99-0.54c0.01,0,0.02,0,0.02-0.01c0.24-0.07,0.48-0.15,0.72-0.23
		c0.19-0.06,0.39-0.13,0.58-0.19c0.78-0.27,1.54-0.55,2.25-0.85c0.04-0.01,0.06-0.04,0.1-0.06c0.12-0.05,0.25-0.1,0.37-0.16
		c1.34,1.33,2.78,2.55,4.31,3.65c0.03,0.02,0.06,0.04,0.09,0.06c0.17,0.12,0.34,0.24,0.5,0.35c0.02,0.01,0.04,0.01,0.06,0
		c0.43-0.25,0.85-0.5,1.26-0.76c-0.05-0.04-0.11-0.07-0.16-0.11c-0.08-0.06-0.16-0.11-0.25-0.17c-0.2-0.14-0.4-0.28-0.6-0.42
		c-0.04-0.03-0.09-0.06-0.13-0.1c-1.32-0.96-2.57-2-3.74-3.13l-0.96-0.96c-0.04-0.04-0.1-0.05-0.15-0.03l-1.25,0.55
		c-0.72,0.3-1.45,0.59-2.19,0.84c-0.11,0.04-0.22,0.08-0.33,0.11c-0.29,0.1-0.59,0.19-0.88,0.28c-0.05,0.01-0.09,0.01-0.13,0.01
		c-1.33,0-1.08-4.13-0.94-5.76c0.02-0.28,0.22-0.44,0.42-0.44c0.12,0,0.25,0.06,0.33,0.19c0.02,0.04,0.05,0.06,0.07,0.08
		c0.03,0.05,0.07,0.1,0.1,0.15c0.24,0.36,0.48,0.72,0.73,1.07c0.08,0.11,0.16,0.22,0.24,0.33c0.23,0.31,0.45,0.62,0.69,0.92
		c0.28,0.36,0.57,0.71,0.86,1.06c0.12,0.14,0.33,0.19,0.5,0.12l1.06-0.43c-0.09-0.1-0.18-0.19-0.26-0.29
		c-0.02-0.03-0.05-0.05-0.07-0.08c-0.33-0.38-0.64-0.77-0.95-1.16c-0.29-0.37-0.57-0.75-0.85-1.13c-0.03-0.04-0.05-0.07-0.08-0.11
		c-0.25-0.35-0.5-0.72-0.74-1.08c-0.13-0.19-0.26-0.38-0.38-0.57c0.92-0.28,1.38-1.23,1.13-2.12l0,0c-0.3-1.44,0.81-3.89,1.35-4.97
		c0.06-0.09,0.18-0.17,0.31-0.17c0.11,0,0.22,0.05,0.3,0.19c0.02,0.03,0.03,0.04,0.05,0.05c0.1,0.16,0.2,0.32,0.3,0.47
		c0.41,0.64,1.27,0.81,1.88,0.36c-0.05-0.07-0.09-0.14-0.14-0.21c-0.08-3.07,3.5-6.2,3.5-6.2c0.05,0.08,0.1,0.15,0.15,0.22
		c0,0,0,0,0,0c0.03,0.23,0.11,0.45,0.24,0.64c0.17,0.24,0.33,0.46,0.48,0.67c1-0.11,1.24-1.15,0.65-1.68C23.81,6.75,25,6.59,25,6.59
		v0c0,0,1.18,0.16,1.3,0.92C25.74,8.05,26,9.07,26.98,9.16c0.14-0.2,0.29-0.41,0.45-0.63c0.13-0.19,0.22-0.41,0.24-0.64c0,0,0,0,0,0
		c0.05-0.08,0.1-0.15,0.15-0.22c0,0,3.57,3.12,3.5,6.2c-0.06,0.08-0.12,0.17-0.17,0.25c0.62,0.44,1.48,0.27,1.9-0.38
		c0.11-0.16,0.21-0.33,0.31-0.5c0.01-0.01,0.03-0.03,0.05-0.05c0.08-0.14,0.2-0.19,0.3-0.19c0.13,0,0.25,0.08,0.31,0.17
		c0.54,1.07,1.65,3.52,1.35,4.97c0,0-0.01-0.01-0.01-0.01c0,0.01,0,0.01,0,0.01s-0.06,0.22-0.26,0.56c-0.21,0.36-0.07,0.82,0.3,1.02
		c0.36,0.19,0.72,0.38,1.09,0.55c-0.12,0.19-0.25,0.37-0.37,0.55c-0.24,0.37-0.49,0.73-0.74,1.08c-0.03,0.04-0.05,0.07-0.08,0.11
		c-0.28,0.38-0.56,0.76-0.84,1.12c-0.31,0.39-0.63,0.78-0.96,1.16c-0.02,0.03-0.05,0.05-0.07,0.08c-0.07,0.08-0.15,0.16-0.22,0.24
		l1.04,0.42c0.18,0.07,0.39,0.02,0.52-0.13c0.28-0.33,0.55-0.66,0.82-1c0.23-0.29,0.45-0.6,0.67-0.9c0.08-0.11,0.17-0.23,0.25-0.34
		c0.25-0.35,0.49-0.71,0.73-1.07c0.03-0.05,0.07-0.1,0.1-0.15c0.02-0.02,0.04-0.05,0.07-0.08c0.08-0.13,0.21-0.19,0.33-0.19
		c0.2,0,0.4,0.16,0.42,0.44c0.15,1.63,0.39,5.76-0.94,5.76c-0.04,0-0.09,0-0.13-0.01c-0.3-0.09-0.59-0.18-0.88-0.28
		c-0.11-0.04-0.22-0.08-0.33-0.11c-0.74-0.25-1.47-0.54-2.19-0.84l-1.25-0.55c-0.05-0.02-0.11-0.01-0.15,0.03l-0.96,0.96
		c-1.17,1.13-2.42,2.18-3.74,3.13c-0.04,0.03-0.09,0.06-0.13,0.1c-0.2,0.14-0.4,0.28-0.6,0.42c-0.08,0.05-0.16,0.11-0.23,0.16
		c0.43,0.26,0.87,0.51,1.31,0.76c0.11-0.08,0.22-0.15,0.33-0.23c0.03-0.02,0.06-0.04,0.09-0.07c1.53-1.1,2.98-2.32,4.31-3.65
		c0.12,0.05,0.25,0.1,0.38,0.16c0.03,0.02,0.06,0.04,0.1,0.06c0.71,0.3,1.47,0.58,2.25,0.85c0.19,0.07,0.39,0.13,0.59,0.19
		c0.24,0.08,0.47,0.15,0.71,0.22c0.01,0,0.01,0,0.02,0.01c0.66,0.2,1.32,0.38,1.99,0.54c-0.26,0.37-0.52,0.72-0.79,1.08
		c-0.06,0.05-0.11,0.11-0.16,0.17c-1.02,1.31-2.08,2.51-3.18,3.58l0.34,0.09c0.77,0.2,1.59-0.03,2.12-0.62
		c0.64-0.71,1.26-1.46,1.86-2.24c0.03-0.02,0.05-0.04,0.08-0.04c0.07,0,0.13,0.08,0.14,0.18C38.88,32.49,38.34,34.67,37.48,35.16z"
		/>
</g>
</svg>
