<?xml version="1.0" encoding="utf-8"?>
<!-- Generator: Adobe Illustrator 23.1.1, SVG Export Plug-In . SVG Version: 6.00 Build 0)  -->
<svg version="1.1" id="Layer_1" xmlns="http://www.w3.org/2000/svg" xmlns:xlink="http://www.w3.org/1999/xlink" x="0px" y="0px"
	 viewBox="0 0 50 50" style="enable-background:new 0 0 50 50;" xml:space="preserve">
<style type="text/css">
	.st0{fill:#434647;stroke:#434647;stroke-width:0.49;stroke-miterlimit:10;}
</style>
<g>
	<g>
		<path class="st0" d="M24.6,24.9C24.6,24.9,24.6,24.9,24.6,24.9c-0.6-0.1-14-1.5-17.7-6.8C6,16.8,5.7,15.4,6,13.8
			c1.4-5.9,5.5-7.7,7.2-8.1c2.2-0.6,4.5-0.4,5.5,0.7c6.4,6.4,6.5,17.4,6.5,17.9c0,0.2-0.1,0.3-0.2,0.5
			C24.9,24.8,24.8,24.9,24.6,24.9z M15.6,6.6c-0.6,0-1.3,0.1-2,0.3c-1.5,0.4-5.1,2-6.3,7.2c-0.3,1.2-0.1,2.3,0.7,3.3
			c3,4.2,13.3,5.8,16.1,6.2c-0.1-2.5-1-11.1-6.1-16.3C17.5,6.9,16.7,6.6,15.6,6.6z"/>
	</g>
	<g>
		<path class="st0" d="M24.6,24.9c-0.2,0-0.3-0.1-0.4-0.2l-6.6-6.1c-0.3-0.2-0.3-0.6,0-0.9c0.2-0.3,0.6-0.3,0.9,0l6.6,6.1
			c0.3,0.2,0.3,0.6,0,0.9C25,24.8,24.8,24.9,24.6,24.9z"/>
	</g>
	<g>
		<path class="st0" d="M24.6,24.9c-0.1,0-0.2,0-0.3-0.1c-0.2-0.1-0.3-0.2-0.3-0.4c-0.1-0.6-2.8-13.7,1.2-18.9c1-1.3,2.3-2,3.8-2.1
			c6.1-0.4,9,3,9.9,4.5c1.3,1.9,1.7,4.2,1,5.5c-4.2,8.1-14.7,11.4-15.1,11.6C24.8,24.9,24.7,24.9,24.6,24.9z M30.1,4.6
			c-0.3,0-0.6,0-0.9,0c-1.2,0.1-2.2,0.6-2.9,1.6c-3.1,4.1-1.6,14.4-1.1,17.2c2.4-0.9,10.4-4.2,13.7-10.7c0.4-0.7,0.2-2.5-0.9-4.2
			C37.1,7.3,34.8,4.6,30.1,4.6z"/>
	</g>
	<g>
		<path class="st0" d="M24.6,24.9c-0.1,0-0.2,0-0.3-0.1c-0.3-0.1-0.4-0.5-0.3-0.8l3.9-8.1c0.1-0.3,0.5-0.4,0.8-0.3
			c0.3,0.1,0.4,0.5,0.3,0.8l-3.9,8.1C25.1,24.8,24.9,24.9,24.6,24.9z"/>
	</g>
	<g>
		<path class="st0" d="M40.1,35.7c-0.2,0-0.3,0-0.4,0c-9-1.6-15.3-10.6-15.5-11C24,24.5,24,24.3,24,24.1c0-0.2,0.2-0.3,0.3-0.4
			c0.5-0.3,12.3-6.7,18.4-4.5c1.5,0.5,2.6,1.6,3.2,3c2.2,5.6-0.2,9.4-1.3,10.8C43.3,34.7,41.5,35.7,40.1,35.7z M25.6,24.5
			c1.5,2,7.1,8.6,14.3,9.9c0.8,0.2,2.4-0.5,3.7-2.1c1-1.2,3.1-4.5,1.1-9.6c-0.4-1.1-1.2-1.9-2.4-2.3C37.5,18.6,28.1,23.2,25.6,24.5z
			"/>
	</g>
	<g>
		<path class="st0" d="M33.5,26.2C33.5,26.2,33.5,26.2,33.5,26.2l-9-1.3c-0.3-0.1-0.6-0.4-0.5-0.7c0-0.3,0.4-0.6,0.7-0.5l8.9,1.3
			c0.3,0.1,0.6,0.4,0.5,0.7C34.1,26,33.9,26.2,33.5,26.2z"/>
	</g>
	<g>
		<path class="st0" d="M25.8,46.6c-1.6,0-2.9-0.4-3.6-0.7c-2.1-0.9-3.8-2.5-3.9-3.9c-1.1-9,5.6-17.8,5.9-18.1
			c0.1-0.1,0.3-0.2,0.4-0.2c0.2,0,0.4,0,0.5,0.2c0.4,0.4,10.1,9.7,9.8,16.2c-0.1,1.6-0.7,2.9-2,3.9C30.3,46,27.8,46.6,25.8,46.6z
			 M24.7,25.2c-1.4,2.1-6.1,9.4-5.2,16.6c0.1,0.8,1.2,2.1,3.2,2.9c1.4,0.6,5.2,1.6,9.4-1.8c1-0.8,1.4-1.7,1.5-3
			C33.8,34.8,26.7,27.3,24.7,25.2z"/>
	</g>
	<g>
		<path class="st0" d="M26.1,33.8c-0.3,0-0.6-0.2-0.6-0.5L24,24.4c-0.1-0.3,0.2-0.7,0.5-0.7c0.3-0.1,0.7,0.2,0.7,0.5l1.4,8.9
			C26.7,33.4,26.5,33.7,26.1,33.8C26.1,33.8,26.1,33.8,26.1,33.8z"/>
	</g>
	<g>
		<path class="st0" d="M11.2,38.9c-1,0-2-0.3-2.9-0.9c-5-3.4-5.2-7.9-5.1-9.6c0.2-2.3,1.2-4.3,2.6-4.9c8.3-3.8,18.6,0,19.1,0.2
			c0.2,0.1,0.3,0.2,0.4,0.4c0.1,0.2,0.1,0.3,0,0.5c-0.3,0.5-6.2,12.5-12.5,14.2C12.2,38.9,11.7,38.9,11.2,38.9z M14.2,23.1
			c-2.6,0-5.3,0.4-7.9,1.5c-0.8,0.3-1.7,1.8-1.8,3.9C4.4,30.1,4.6,34,9,37c1,0.7,2.1,0.9,3.3,0.5c5-1.3,10.1-10.4,11.4-12.9
			C22.3,24.2,18.4,23.1,14.2,23.1z"/>
	</g>
	<g>
		<path class="st0" d="M16.6,28.9c-0.2,0-0.5-0.1-0.6-0.3c-0.2-0.3,0-0.7,0.3-0.8l8.1-4c0.3-0.2,0.7,0,0.8,0.3
			c0.2,0.3,0,0.7-0.3,0.8l-8.1,4C16.8,28.9,16.7,28.9,16.6,28.9z"/>
	</g>
</g>
</svg>
