<?xml version="1.0" encoding="utf-8"?>
<!-- Generator: Adobe Illustrator 23.1.1, SVG Export Plug-In . SVG Version: 6.00 Build 0)  -->
<svg version="1.1" id="Layer_1" xmlns="http://www.w3.org/2000/svg" xmlns:xlink="http://www.w3.org/1999/xlink" x="0px" y="0px"
	 viewBox="0 0 50 50" style="enable-background:new 0 0 50 50;" xml:space="preserve">
<style type="text/css">
	.st0{clip-path:url(#SVGID_2_);fill:#454548;}
	.st1{clip-path:url(#SVGID_4_);fill:#454548;}
	.st2{clip-path:url(#SVGID_6_);fill:#454548;}
	.st3{clip-path:url(#SVGID_8_);fill:#454548;}
	.st4{clip-path:url(#SVGID_10_);fill:#454548;}
</style>
<g>
	<g>
		<g>
			<defs>
				<path id="SVGID_1_" d="M34.97,34.96c-5.01,5.01-12.15,6.88-17.77,4.66c-0.08-0.03-0.18-0.05-0.26-0.05c-0.1,0-0.2,0.02-0.3,0.07
					c-1.77,0.8-3.89,0.41-5.27-0.97c-1.38-1.38-1.77-3.5-0.97-5.27c0.08-0.18,0.08-0.38,0.02-0.56c-2.22-5.63-0.33-12.78,4.66-17.77
					c4.96-4.96,12.07-6.85,17.69-4.7c0.2,0.07,0.41,0.07,0.59-0.03c1.84-0.95,4.04-0.61,5.5,0.85s1.81,3.66,0.85,5.5
					c-0.1,0.18-0.1,0.39-0.03,0.59C41.82,22.89,39.93,29.98,34.97,34.96L34.97,34.96z M39.86,10.16c-1.82-1.82-4.57-2.32-6.9-1.26
					c-6.09-2.18-13.65-0.13-18.94,5.14c-5.32,5.32-7.34,12.94-5.09,19.05c-0.89,2.27-0.34,4.88,1.38,6.6
					c1.72,1.72,4.35,2.27,6.6,1.38c1.66,0.61,3.43,0.9,5.24,0.9c4.85,0,9.94-2.14,13.81-6.01c5.27-5.27,7.33-12.84,5.14-18.94
					C42.18,14.71,41.7,11.98,39.86,10.16L39.86,10.16z"/>
			</defs>
			<clipPath id="SVGID_2_">
				<use xlink:href="#SVGID_1_"  style="overflow:visible;"/>
			</clipPath>
			<rect x="-0.18" y="-0.19" class="st0" width="50.37" height="50.37"/>
		</g>
	</g>
	<g>
		<g>
			<defs>
				<path id="SVGID_3_" d="M22.58,13.03c-2.09,0.84-4.06,2.15-5.73,3.81c-2.76,2.76-4.52,6.37-4.81,9.9
					c-0.03,0.39,0.26,0.74,0.66,0.77c0.02,0,0.03,0,0.07,0c0.38,0,0.69-0.28,0.72-0.66c0.26-3.19,1.87-6.47,4.39-9
					c1.53-1.53,3.33-2.73,5.24-3.48c0.38-0.15,0.56-0.57,0.41-0.94C23.37,13.06,22.94,12.88,22.58,13.03L22.58,13.03z"/>
			</defs>
			<clipPath id="SVGID_4_">
				<use xlink:href="#SVGID_3_"  style="overflow:visible;"/>
			</clipPath>
			<rect x="3.83" y="4.77" class="st1" width="27.95" height="30.98"/>
		</g>
	</g>
	<g>
		<g>
			<defs>
				<path id="SVGID_5_" d="M30.83,35.02c0,0.97-1.45,0.97-1.45,0S30.83,34.05,30.83,35.02"/>
			</defs>
			<clipPath id="SVGID_6_">
				<use xlink:href="#SVGID_5_"  style="overflow:visible;"/>
			</clipPath>
			<rect x="21.17" y="26.09" class="st2" width="17.87" height="17.87"/>
		</g>
	</g>
	<g>
		<g>
			<defs>
				<path id="SVGID_7_" d="M29.19,31.74c0,0.97-1.45,0.97-1.45,0C27.74,30.77,29.19,30.77,29.19,31.74"/>
			</defs>
			<clipPath id="SVGID_8_">
				<use xlink:href="#SVGID_7_"  style="overflow:visible;"/>
			</clipPath>
			<rect x="19.53" y="22.8" class="st3" width="17.87" height="17.87"/>
		</g>
	</g>
	<g>
		<g>
			<defs>
				<path id="SVGID_9_" d="M27.54,36.67c0,0.97-1.45,0.97-1.45,0S27.54,35.7,27.54,36.67"/>
			</defs>
			<clipPath id="SVGID_10_">
				<use xlink:href="#SVGID_9_"  style="overflow:visible;"/>
			</clipPath>
			<rect x="17.89" y="27.73" class="st4" width="17.87" height="17.87"/>
		</g>
	</g>
</g>
</svg>
