<?xml version="1.0" encoding="UTF-8"?>
<svg width="42px" height="58px" viewBox="0 0 42 58" version="1.1" xmlns="http://www.w3.org/2000/svg" xmlns:xlink="http://www.w3.org/1999/xlink">
    <!-- Generator: Sketch 59.1 (86144) - https://sketch.com -->
    <title>element/indika@1x</title>
    <desc>Created with Sketch.</desc>
    <g id="element/indika" stroke="none" stroke-width="1" fill="none" fill-rule="evenodd">
        <path d="M21,0 C32.5979797,0 42,9.40202025 42,21 C42,32.5979797 32.5979797,42 21,42 C9.40202025,42 0,32.5979797 0,21 C0,9.40202025 9.40202025,0 21,0 Z M21.5141513,6 C21.5060938,6.0458224 21.4913212,6.08477071 21.476547,6.12372195 C20.3981662,9.66341076 19.5655298,9.2076795 19.8556237,10.8766413 C19.511829,10.7002258 19.2674254,10.4653981 19.1223784,10.1595244 C18.53418,10.7460511 18.4724001,11.5158675 18.9088509,12.4609673 L18.9088509,12.4609673 L17.9231227,12.0302221 L17.8952708,12.2532732 C17.7933401,13.1406163 17.8127927,13.965343 18.2293132,14.5733727 L18.2293132,14.5733727 L16.9991813,14.495476 L17.0677056,14.7762059 C17.2409744,15.4308437 17.5105072,16.0834972 17.9311744,16.7510819 L17.9311744,16.7510819 L17.0904932,16.7190047 L17.0958159,16.8377637 C17.1476979,17.2841827 17.5479837,17.8485355 18.0453142,18.4407833 L18.0453142,18.4407833 L17.4409919,18.590852 L17.4959869,18.7802152 C17.7150847,19.4145668 18.2816669,20.0794675 18.8859954,20.7490944 C18.7181274,20.72962 18.5032488,20.7811716 18.2816731,20.7227468 C18.6254678,21.4467554 19.0847432,22.0458631 19.6192408,22.5613614 L19.6192408,22.5613614 L19.1223543,22.7183042 L19.2353079,22.8256984 C19.8454094,23.4530495 20.5714211,24.9321767 21.0771431,26.2291181 C20.9436424,26.2784928 20.8215055,26.3504707 20.7164156,26.4410642 C19.9597142,25.5394641 19.2073276,24.4662342 19.0914919,23.8661048 L19.0914919,23.8661048 L18.7315732,24.1204199 L18.6635674,23.8785889 C18.5155201,23.3973114 18.2931907,22.9303404 17.9593759,22.4776758 C17.8908851,22.6472172 17.7458484,22.7583376 17.684072,22.8683026 C17.431596,22.131713 17.1643575,21.4271771 16.7050478,21.0227962 L16.7050478,21.0227962 L16.2994732,21.3423947 L16.2275323,21.1592984 C16.0084128,20.619255 15.7578452,20.1692239 15.4278848,19.992914 L15.4278848,19.992914 L15.0451382,20.5473577 L14.8867452,20.2820072 C14.5606276,19.7680462 14.1791291,19.3517187 13.7532264,18.9825337 L13.7532264,18.9825337 L13.2187288,19.797014 L13.1357821,19.6589663 C12.8014439,19.1661269 12.1420182,18.8167959 11.3923194,18.5059807 L11.3923194,18.5059807 L11.2553378,19.3147424 L11.1334972,19.1636236 C10.6385107,18.5870583 10.0520669,18.3459604 9.37519333,18.4601436 C9.5363471,18.6823816 9.60483788,18.9355529 9.57395137,19.22996 C8.42034823,18.3306972 8.37335149,19.0535445 5.11012088,18.2058257 C5.07654727,18.1989522 5.03760083,18.1863509 5,18.1794777 C5.02283003,18.1989522 5.04565938,18.2253001 5.06177647,18.2447757 C7.29376047,20.4488259 6.54439115,20.7741722 7.96656671,21.3090846 C7.67648993,21.4522793 7.37028917,21.5049758 7.06410561,21.4717549 C7.23197369,22.0915084 7.80539576,22.4558001 8.745468,22.5863903 L8.745468,22.5863903 L7.93565957,23.0228541 L8.12540201,23.1556001 C8.75803413,23.5888631 9.39301159,23.9221169 10.0535037,23.9221169 L10.0535037,23.9221169 L9.40352545,24.6655982 L9.69149241,24.7529682 C10.2739484,24.9176681 10.897839,25.021046 11.6046023,25.043644 L11.6046023,25.043644 L11.1694957,25.564861 L11.2868241,25.619274 C11.6661629,25.7647384 12.2853399,25.7542223 12.9730771,25.6954541 L12.9730771,25.6954541 L12.789092,26.145672 L12.9819422,26.1946103 C13.5812084,26.3188462 14.3611483,26.2463678 15.166123,26.1525455 C15.0667457,26.2441903 15.0049692,26.4068606 14.8532148,26.5236996 C15.5797561,26.6153444 16.2673455,26.5821236 16.9240278,26.4584016 L16.9240278,26.4584016 L16.8018191,26.8433098 L16.9531839,26.8164504 C17.7074344,26.7100712 19.1120312,26.8645621 20.3271037,27.0851487 C20.3104201,27.1630785 20.3016488,27.2438501 20.3016488,27.3266242 C20.3016488,27.3493123 20.3023078,27.37185 20.3044453,27.393554 C19.5154435,27.397925 18.7011719,27.3449071 18.3164926,27.1949971 L18.3164926,27.1949971 L18.3473805,27.4619137 L18.0875564,27.3790483 C17.7371422,27.2783487 17.3697109,27.2176798 16.9722017,27.2075986 C17.0568061,27.3049708 17.071579,27.4160913 17.1252969,27.4882604 C16.5438026,27.3255902 15.9784322,27.1881347 15.5432912,27.253421 L15.5432912,27.253421 L15.5970091,27.5730194 L15.4104766,27.5292729 C14.9824116,27.4339222 14.6086122,27.3894432 14.3735813,27.4756472 L14.3735813,27.4756472 L14.5951673,27.8731657 L14.3218635,27.8445694 C13.8748954,27.8091422 13.4686494,27.8336433 13.0736007,27.8995136 L13.0736007,27.8995136 L13.4026225,28.4597053 L13.2403378,28.4452989 C12.8035131,28.4318736 12.3354226,28.612448 11.8662727,28.8446135 L11.8662727,28.8446135 L12.3403312,29.2226593 L12.1685651,29.2255175 C11.6143706,29.2508814 11.2440043,29.4352112 11.0645435,29.7965757 C11.2713566,29.8091769 11.4701181,29.8744723 11.6460378,29.9981943 C10.6213577,30.2066869 11.0725883,30.5068302 9.28379001,31.7520558 C9.26095963,31.7646567 9.23813063,31.7784038 9.21529923,31.7978782 C9.23812926,31.7910047 9.2609586,31.7910047 9.28379001,31.7910047 C11.5842579,31.5561653 11.515774,32.0384457 12.4101903,31.5561653 C12.3873599,31.7520564 12.310813,31.9216007 12.1738315,32.0521909 C12.64789,32.2091337 13.1058245,32.0785389 13.5503511,31.6672828 L13.5503511,31.6672828 L13.5275211,32.2274744 L13.7234902,32.1780817 C14.2379618,32.0414686 14.6821479,31.8619086 14.9268687,31.5493029 L14.9268687,31.5493029 L15.1712861,32.142692 L15.3640406,32.020728 C15.6818995,31.809465 15.9821946,31.556175 16.2563709,31.2296752 L16.2563709,31.2296752 L16.4322976,31.6409184 L16.5344959,31.5939865 C16.7705976,31.4609235 16.9906416,31.1682365 17.2044948,30.826438 L17.2044948,30.826438 L17.4341394,31.0807531 L17.5652374,30.9877614 C17.8624662,30.7481659 18.1015996,30.3566235 18.3366005,29.946645 C18.3594305,30.0314157 18.4440363,30.1161864 18.4668678,30.2399084 C18.8026039,29.9271723 19.0403173,29.5812095 19.2162371,29.215774 L19.2162371,29.215774 L19.4230502,29.4242667 L19.4733803,29.3184958 C19.6555373,28.9858763 20.1093076,28.5217427 20.5946885,28.0947557 C20.7941551,28.3196744 21.0797121,28.4698522 21.401409,28.4965127 C21.512308,29.78891 21.5475473,30.7636541 21.507127,31.420745 C21.4580258,32.2189539 21.3562363,32.6578682 21.2017584,32.7374879 C21.3562363,33.1235929 21.5417855,33.0837831 21.7584061,32.6180583 C21.9529645,32.1997663 21.9727798,30.8131921 21.8181899,28.4584847 C22.050458,28.3966006 22.2546762,28.2682383 22.4072947,28.0951178 C22.9477815,28.5699559 23.4515238,29.0916258 23.5888795,29.426563 L23.5888795,29.426563 L23.7956926,29.2180703 L23.905663,29.434775 C24.0647089,29.7201958 24.2737735,29.9911008 24.5369827,30.2422046 C24.5598128,30.1184827 24.6444186,30.033712 24.66725,29.9489413 C24.9344954,30.4186319 25.2178716,30.8619581 25.5764151,31.0830493 L25.5764151,31.0830493 L25.8060597,30.8287343 L25.8981068,30.9718907 C26.1138255,31.2974035 26.3363544,31.5580216 26.5702122,31.6432146 L26.5702122,31.6432146 L26.7541973,31.2319714 L26.9212138,31.4189279 C27.203823,31.7169826 27.508036,31.9492838 27.8392822,32.1449882 L27.8392822,32.1449882 L28.0836996,31.5515992 L28.1824322,31.6627656 C28.4706641,31.9435167 28.9521288,32.1024814 29.4750024,32.2297707 L29.4750024,32.2297707 L29.4602302,31.669579 L29.593666,31.7844954 C29.9954055,32.1038645 30.4099631,32.1947169 30.8354091,32.0544872 C30.6903689,31.9238941 30.6138231,31.7543614 30.5909916,31.5584615 C31.4934528,32.0407331 31.423628,31.5584615 33.717392,31.793301 C33.740222,31.793301 33.7630513,31.793301 33.7858827,31.8001742 C33.7630524,31.7806997 33.7482785,31.768097 33.7241063,31.7543518 C31.9285696,30.5091262 32.3865386,30.2090005 31.3551545,30.0004902 C31.5391396,29.8767683 31.7298219,29.8114732 31.9433528,29.7988716 C31.7365397,29.4013532 31.3094641,29.2180636 30.6594859,29.2249552 L30.6594859,29.2249552 L31.1415892,28.8469094 L30.9639911,28.7625814 C30.491964,28.5457266 30.0329124,28.3988649 29.5971946,28.4620013 L29.5971946,28.4620013 L29.9329308,27.9018096 L29.6938561,27.8678772 C29.2917508,27.819933 28.8702155,27.8162747 28.4113641,27.8754616 L28.4113641,27.8754616 L28.6248916,27.4779431 L28.5163053,27.4490962 C28.2440022,27.3991504 27.8433087,27.4670602 27.4014637,27.5753154 L27.4014637,27.5753154 L27.4632402,27.255717 L27.2938449,27.240388 C26.8846455,27.2251795 26.3819973,27.3482199 25.8731897,27.4905564 C25.9269076,27.4183872 25.9416805,27.3084135 26.0343435,27.2098946 C25.537457,27.2224958 25.0795224,27.3141409 24.6591646,27.4642096 L24.6591646,27.4642096 L24.6819947,27.197293 L24.5679309,27.2356106 C24.1542942,27.3556519 23.4177481,27.3997828 22.6983152,27.3958111 L22.6983152,27.3958111 L22.7019411,27.3266242 C22.7019411,27.2442085 22.6932456,27.1637778 22.6767024,27.0861609 L22.676,27.086 C23.8929997,26.8659655 25.2909534,26.7115963 26.0431565,26.8186034 L26.1941551,26.8456057 L26.0719464,26.4606976 L26.3582652,26.5080802 C26.933792,26.5913629 27.5269347,26.6045483 28.1427594,26.5259956 C27.9896642,26.4091477 27.9359463,26.2453338 27.836569,26.1548415 C28.7309853,26.2590878 29.5944944,26.3369844 30.2055208,26.1479683 L30.2055208,26.1479683 L30.0295941,25.6977504 L30.2558766,25.7154357 C30.9251656,25.7623263 31.5024107,25.7496433 31.8251308,25.5671572 L31.8251308,25.5671572 L31.3967282,25.0459403 L31.7437961,25.0280053 C32.4245151,24.9790298 33.0268897,24.8525021 33.5897602,24.6678945 L33.5897602,24.6678945 L32.939782,23.9244132 L33.1373377,23.914623 C33.7939106,23.8501414 34.4312947,23.4750431 35.0576261,23.0251504 L35.0576261,23.0251504 L34.2478177,22.5886865 L34.4451219,22.5571011 C35.2746739,22.4045971 35.7732962,22.0484745 35.9291801,21.4740511 C35.6229896,21.5061283 35.3248577,21.4545764 35.026719,21.3113809 C36.4555985,20.7764098 35.7076044,20.4510635 37.9315092,18.247072 C37.9543396,18.2275975 37.9771686,18.2012496 38,18.181774 C37.9543406,18.1886475 37.9153956,18.2012484 37.8777913,18.2081219 C34.6251839,19.0535415 34.5727896,18.3295505 33.4259936,19.2299688 C33.3952047,18.9366526 33.4569805,18.6823346 33.6248472,18.4600997 C32.8835571,18.3363777 32.2644516,18.6296411 31.7447027,19.3146984 L31.7447027,19.3146984 L31.5996626,18.5059367 L31.3976179,18.5917389 C30.6663161,18.9104286 30.0471058,19.2771974 29.7799572,19.79697 L29.7799572,19.79697 L29.2454596,18.9824897 L29.0333385,19.1712537 C28.6177129,19.5575678 28.2539753,19.9994055 27.9455031,20.5473137 L27.9455031,20.5473137 L27.5627564,19.99287 L27.4558705,20.0615236 C27.1442699,20.2963875 26.9119702,20.7845725 26.6992472,21.3423507 L26.6992472,21.3423507 L26.2869686,21.0227522 L26.1411094,21.168294 C25.7696425,21.5840866 25.5332713,22.2134862 25.3160236,22.8682586 C25.2475328,22.7571382 25.1024962,22.6471644 25.0407197,22.4776318 C24.651269,23.0057405 24.406831,23.5533218 24.2685224,24.1203759 L24.2685224,24.1203759 L23.9086037,23.8660608 L23.8773804,23.9919708 C23.6937709,24.6072894 22.9917765,25.5983832 22.2848932,26.4376736 C22.1664949,26.3379394 22.0279554,26.2604184 21.8745159,26.2133223 C22.4198413,24.8371189 23.2160699,23.2558749 23.8468238,22.7124331 L23.8468238,22.7124331 L23.3418581,22.5554903 L23.541635,22.3581774 C23.9989943,21.888257 24.3933886,21.3503575 24.694209,20.7168756 C24.4645645,20.7752996 24.2510232,20.7168756 24.0898867,20.7432233 C24.7546481,20.0066337 25.3737536,19.2757627 25.5416286,18.5849809 L25.5416286,18.5849809 L24.9306022,18.4349121 L25.0655296,18.2745212 C25.5495932,17.6897314 25.9089532,17.1436833 25.9015473,16.7131336 L25.9015473,16.7131336 L25.0527869,16.7452108 L25.2269761,16.4599679 C25.6124229,15.796304 25.8530077,15.1451548 25.9928591,14.4896049 L25.9928591,14.4896049 L24.7627273,14.5675045 L24.8601799,14.4110717 C25.2177569,13.7679958 25.1965113,12.921063 25.0836906,12.0243539 L25.0836906,12.0243539 L24.0899176,12.4550991 L24.171918,12.2684186 C24.5235633,11.4081717 24.4401546,10.7010811 23.891163,10.1536562 C23.7380678,10.4537819 23.4936676,10.6943752 23.1579177,10.8639107 C23.4479944,9.20169399 22.6153752,9.65076818 21.5450392,6.10424633 C21.5369813,6.07217211 21.5302667,6.03207715 21.5141513,6 Z" id="Combined-Shape" fill="#D0D0D0" fill-rule="nonzero"></path>
        <text id="Indica" font-family="Kiro-Bold, Kiro" font-size="12" font-weight="bold" letter-spacing="-0.548077" fill="#D0D0D0">
            <tspan x="8.604231" y="55">Indica</tspan>
        </text>
    </g>
</svg>