<svg width="50" height="50" xmlns="http://www.w3.org/2000/svg">
 <!-- Generator: Sketch 58 (84663) - https://sketch.com -->

 <title>inflorescence</title>
 <desc>Created with Sketch.</desc>
 <g>
  <title>background</title>
  <rect fill="none" id="canvas_background" height="402" width="582" y="-1" x="-1"/>
 </g>
 <g>
  <title>Layer 1</title>
  <g stroke-linejoin="round" stroke-linecap="round" fill-rule="evenodd" fill="none" id="inflorescence">
   <g stroke-width="0.576" stroke="#FBB03B" id="Untitled-1-02-Copy-2">
    <path stroke="#000000" fill-rule="nonzero" fill="#000000" id="Path" d="m25.851392,25.07776c0,0 2.375424,-2.462976 7.458048,-2.412288c5.082624,0.050688 8.504064,2.313216 8.504064,2.313216c0,0 -1.863936,2.564352 -8.504064,2.513664c-6.640128,-0.050688 -7.458048,-2.414592 -7.458048,-2.414592z"/>
    <path stroke="#000000" fill-rule="nonzero" fill="#000000" id="Path" d="m22.095872,23.059456c0,0 0.854784,-2.333952 2.829312,-3.760128c1.979136,-1.430784 4.142592,-1.857024 4.88448,-1.83168c0.739584,0.025344 -1.253376,2.829312 -3.29472,4.11264c-1.972224,1.237248 -4.00896,1.760256 -4.419072,1.479168z"/>
    <path stroke="#000000" fill-rule="nonzero" fill="#000000" id="Path" d="m27.706112,20.967424c0,0 0.260352,-1.207296 4.88448,-2.29248c4.624128,-1.085184 6.48576,-0.105984 6.48576,-0.105984c0,0 -1.48608,1.57824 -5.8176,2.573568c-4.33152,0.995328 -5.55264,-0.175104 -5.55264,-0.175104z"/>
    <path stroke="#000000" fill-rule="nonzero" fill="#000000" id="Path" d="m21.0752,23.570944c0,0 0.893952,-0.179712 1.020672,-0.511488"/>
    <path stroke="#000000" fill-rule="nonzero" fill="#000000" id="Path" d="m23.63264,31.084288c-0.271872,-1.903104 -1.184256,-2.283264 -1.184256,-2.283264c0,0 -1.44,0.405504 -1.156608,2.340864c0.285696,1.937664 1.435392,3.124224 1.435392,3.124224c0,0 1.17504,-1.276416 0.905472,-3.181824z"/>
    <path stroke="#000000" fill-rule="nonzero" fill="#000000" id="Path" d="m23.63264,19.21408c-0.271872,1.903104 -1.184256,2.283264 -1.184256,2.283264c0,0 -1.44,-0.405504 -1.156608,-2.340864c0.285696,-1.937664 1.435392,-3.124224 1.435392,-3.124224c0,0 1.17504,1.27872 0.905472,3.181824z"/>
    <path stroke="#000000" fill-rule="nonzero" fill="#000000" id="Path" d="m26.514944,28.805632c-1.972224,-1.239552 -4.00896,-1.76256 -4.419072,-1.481472c0,0 0.854784,2.333952 2.829312,3.760128c1.979136,1.430784 4.142592,1.857024 4.88448,1.83168c0.739584,-0.02304 -1.253376,-2.827008 -3.29472,-4.110336z"/>
    <path stroke="#000000" fill-rule="nonzero" fill="#000000" id="Path" d="m33.258752,29.241088c-4.33152,-0.995328 -5.55264,0.175104 -5.55264,0.175104c0,0 0.260352,1.207296 4.88448,2.29248c4.624128,1.085184 6.48576,0.105984 6.48576,0.105984c0,0 -1.48608,-1.57824 -5.8176,-2.573568z"/>
    <path stroke="#000000" fill-rule="nonzero" fill="#000000" id="Path" d="m21.0752,26.814976l1.020672,0.511488c-0.12672,-0.33408 -1.020672,-0.511488 -1.020672,-0.511488z"/>
    <path stroke="#000000" fill="#000000" id="Path" d="m22.83776,24.13312c0,0 1.456128,1.380096 3.013632,0.995328"/>
    <path stroke="#000000" fill-rule="nonzero" fill="#000000" id="Path" d="m19.801088,23.070976c0.4608,-1.8432 0.3456,-4.032 -1.9584,-4.7232c0,0 -0.9216,0.9216 -0.2304,2.5344c0.6912,1.6128 2.186496,2.186496 2.186496,2.186496"/>
    <path stroke="#000000" fill="#000000" id="Path" d="m8.050688,25.144576l9.6768,0c0,0 1.52064,-0.474624 2.066688,-2.057472"/>
    <path stroke="#000000" fill-rule="nonzero" fill="#000000" id="Path" d="m19.801088,27.662848c0.4608,1.8432 0.3456,4.032 -1.9584,4.7232c0,0 -0.9216,-0.9216 -0.2304,-2.5344c0.6912,-1.6128 1.8432,-2.0736 1.8432,-2.0736c0,0 0.527616,-0.375552 0.91008,-0.317952"/>
    <path stroke="#000000" fill="#000000" id="Path" d="m19.455488,26.181376c-0.6912,-0.9216 -2.075904,-1.043712 -2.075904,-1.043712"/>
   </g>
  </g>
 </g>
</svg>