<?xml version="1.0" encoding="UTF-8"?>
<svg width="24px" height="24px" viewBox="0 0 24 24" version="1.1" xmlns="http://www.w3.org/2000/svg" xmlns:xlink="http://www.w3.org/1999/xlink">
    <!-- Generator: Sketch 57.1 (83088) - https://sketch.com -->
    <title>icon/social/insta/black@1x</title>
    <desc>Created with Sketch.</desc>
    <g id="icon//social/insta/black" stroke="none" stroke-width="1" fill="none" fill-rule="evenodd">
        <g id="instagram-logo" transform="translate(4.000000, 4.000000)" fill="#4A4A4A">
            <path d="M11.5844838,0 L4.41532692,0 C1.98071713,0 0,1.98081177 0,4.41542156 L0,11.5845784 C0,14.0192829 1.98071713,16 4.41532692,16 L11.5844838,16 C14.0192829,16 16,14.0191882 16,11.5845784 L16,4.41542156 C16,1.98081177 14.0192829,0 11.5844838,0 Z M14.5804971,11.5845784 C14.5804971,13.2365168 13.2365168,14.5804025 11.5845784,14.5804025 L4.41532692,14.5804025 C2.76348322,14.5804025 1.41959754,13.2365168 1.41959754,11.5845784 L1.41959754,4.41542156 C1.41959754,2.76357786 2.76348322,1.41959754 4.41532692,1.41959754 L11.5844838,1.41959754 C13.2364221,1.41959754 14.5804971,2.76357786 14.5804971,4.41542156 L14.5804971,11.5845784 L14.5804971,11.5845784 Z" id="Shape" fill-rule="nonzero"></path>
            <path d="M7.81818182,3.63636364 C5.51229254,3.63636364 3.63636364,5.51233561 3.63636364,7.81827782 C3.63636364,10.124124 5.51229254,12 7.81818182,12 C10.1240711,12 12,10.124124 12,7.81827782 C12,5.51233561 10.1240711,3.63636364 7.81818182,3.63636364 Z M7.81818182,10.5599501 C6.3063609,10.5599501 5.0762845,9.33003744 5.0762845,7.81818182 C5.0762845,6.3062302 6.30626491,5.07622156 7.81818182,5.07622156 C9.33009873,5.07622156 10.5600791,6.3062302 10.5600791,7.81818182 C10.5600791,9.33003744 9.33000273,10.5599501 7.81818182,10.5599501 Z" id="Shape" fill-rule="nonzero"></path>
            <path d="M12.3636364,2.54545455 C12.0770248,2.54545455 11.7954711,2.6614876 11.5930579,2.86479339 C11.3896529,3.06710744 11.2727273,3.34876033 11.2727273,3.63636364 C11.2727273,3.92307438 11.3897521,4.2046281 11.5930579,4.40793388 C11.7953719,4.61024793 12.0770248,4.72727273 12.3636364,4.72727273 C12.6512397,4.72727273 12.9319008,4.61024793 13.1352066,4.40793388 C13.3385124,4.2046281 13.4545455,3.92297521 13.4545455,3.63636364 C13.4545455,3.34876033 13.3385124,3.06710744 13.1352066,2.86479339 C12.9328926,2.6614876 12.6512397,2.54545455 12.3636364,2.54545455 Z" id="Path"></path>
        </g>
    </g>
</svg>