<?xml version="1.0" encoding="UTF-8"?>
<svg width="50px" height="50px" viewBox="0 0 50 50" version="1.1" xmlns="http://www.w3.org/2000/svg" xmlns:xlink="http://www.w3.org/1999/xlink">
    <!-- Generator: Sketch 58 (84663) - https://sketch.com -->
    <title>lemon</title>
    <desc>Created with Sketch.</desc>
    <g id="lemon" stroke="none" stroke-width="1" fill="none" fill-rule="evenodd">
        <g id="np_lemon_2216830_000000-copy" transform="translate(15.000000, 15.000000)" fill="#444547" fill-rule="nonzero">
            <path d="M19.38156,1.298506 C18.268668,0.185614 16.60494,-0.111738 15.18528,0.529364 C11.47872,-0.796642 6.87346,0.446864 3.66014,3.659964 C0.41954,6.900564 -0.81466,11.537944 0.55616,15.259024 C0.019052,16.63574 0.3464736,18.230784 1.397484,19.281724 C2.44849,20.33273 4.042544,20.661014 5.420184,20.123048 C6.43082,20.495156 7.508468,20.675622 8.608424,20.675622 C11.556864,20.675622 14.659304,19.37969 17.019024,17.019002 C20.232124,13.805902 21.475784,9.200422 20.149624,5.493862 C20.792442,4.075038 20.494232,2.411222 19.38134,1.298462 L19.38156,1.298506 Z M16.39792,16.397766 C13.35136,19.444326 9.0013,20.586346 5.57414,19.240606 C5.5225764,19.219981 5.4684366,19.2105276 5.4134366,19.2105276 C5.3515616,19.2105276 5.2905468,19.2234183 5.2329684,19.2491992 C4.1501504,19.7364552 2.8602684,19.4992732 2.0205284,18.6605232 C1.1817784,17.8217732 0.9445964,16.5301312 1.4318524,15.4480832 C1.4808376,15.3398014 1.483416,15.2169072 1.43958694,15.1069072 C0.09380294,11.6788672 1.23591534,7.3288072 4.28330694,4.2822472 C7.30654694,1.2581272 11.6335069,0.1073072 15.0503269,1.4178472 C15.1672019,1.4625358 15.2978269,1.4556608 15.4095429,1.39808174 C16.5250089,0.82229774 17.8715629,1.03283774 18.7594829,1.92058174 C19.6472269,2.80918374 19.8577669,4.15490174 19.2819829,5.27052174 C19.2244045,5.38223994 19.2175295,5.51287374 19.2622175,5.62973774 C20.5727575,9.04655774 19.4212027,13.3735177 16.3978175,16.3976377 L16.39792,16.397766 Z" id="Shape"></path>
            <path d="M8.85764,3.0525 C7.589208,3.557818 6.38352,4.35875 5.37196,5.37108 C3.687596,7.055444 2.61932,9.25452 2.44244,11.40392 C2.42267454,11.646272 2.6022832,11.858528 2.844622,11.878284 C2.85665314,11.8791433 2.8686834,11.8800026 2.8815754,11.8800026 C3.1084394,11.8800026 3.3009394,11.7064094 3.3198594,11.4761046 C3.4805628,9.53134864 4.4551034,7.53238464 5.9941794,5.99326464 C6.9223154,5.06512864 8.0248894,4.33123064 9.1824194,3.87061664 C9.4084254,3.78038144 9.5184254,3.52515064 9.4282034,3.29912264 C9.3388284,3.07311664 9.0827374,2.96311664 8.8575674,3.05248064 L8.85764,3.0525 Z" id="Path"></path>
            <path d="M13.88,16.44022 C13.88,17.02718 13,17.02718 13,16.44022 C13,15.85326 13.88,15.85326 13.88,16.44022" id="Path"></path>
            <path d="M12.88,14.44022 C12.88,15.02718 12,15.02718 12,14.44022 C12,13.85326 12.88,13.85326 12.88,14.44022" id="Path"></path>
            <path d="M11.88,17.44022 C11.88,18.02718 11,18.02718 11,17.44022 C11,16.85326 11.88,16.85326 11.88,17.44022" id="Path"></path>
        </g>
    </g>
</svg>