<?xml version="1.0" encoding="UTF-8"?>
<svg width="24px" height="24px" viewBox="0 0 24 24" version="1.1" xmlns="http://www.w3.org/2000/svg" xmlns:xlink="http://www.w3.org/1999/xlink">
    <!-- Generator: Sketch 57.1 (83088) - https://sketch.com -->
    <title>icon/social/in/black@1x</title>
    <desc>Created with Sketch.</desc>
    <defs>
        <path d="M15.2468797,10.0222352 C17.1656684,10.0222352 18.6042162,11.2759076 18.6042162,13.9696503 L18.6042162,19 L15.6877531,19 L15.6877531,14.306776 C15.6877531,13.1283587 15.2666722,12.3236072 14.2107077,12.3236072 C13.4048687,12.3236072 12.9261502,12.8654007 12.7147398,13.3900117 C12.6379622,13.5774971 12.6181697,13.8378451 12.6181697,14.1008031 L12.6181697,18.9997825 L9.70148904,18.9997825 L9.70197624,18.8982655 C9.70636105,17.9716174 9.73802911,10.9961586 9.70148904,10.2282081 L12.6183872,10.2282081 L12.6183872,11.471223 C13.0059729,10.8748369 13.6971892,10.0222352 15.2468797,10.0222352 Z M8.08894094,10.2282081 L8.08894094,19 L5.17334783,19 L5.17334783,10.2282081 L8.08894094,10.2282081 Z M12.6183872,11.471223 C12.6125146,11.4810105 12.6042496,11.4905806 12.5990296,11.4999331 L12.6183872,11.4999331 L12.6183872,11.471223 Z M6.65039317,6 C7.64828509,6 8.26141877,6.65489376 8.28077631,7.51532541 C8.28077631,8.31070028 7.71660976,8.95591527 6.79697216,9.02515096 L6.63103564,9.03130333 L6.6121131,9.03130333 C5.63379622,9.03130333 5,8.35748703 5,7.51532541 C5,6.65489376 5.65271876,6 6.65039317,6 Z" id="path-1"></path>
    </defs>
    <g id="icon//social/in/black" stroke="none" stroke-width="1" fill="none" fill-rule="evenodd">
        <mask id="mask-2" fill="white">
            <use xlink:href="#path-1"></use>
        </mask>
        <use id="Mask" fill="#4A4A4A" fill-rule="nonzero" xlink:href="#path-1"></use>
    </g>
</svg>