<svg xmlns="http://www.w3.org/2000/svg" width="18" height="15" viewBox="0 0 18 15">
    <g fill="none" fill-rule="nonzero">
        <path fill="#000" d="M3.728 2.787a.863.863 0 0 0-.417 1.146l4.616 9.9a.863.863 0 0 0 1.146.417l5.472-2.551a.863.863 0 0 0 .417-1.146l-4.617-9.9A.863.863 0 0 0 9.2.234L3.728 2.787zm.121.26L9.321.496a.57.57 0 0 1 .764.278l.243.52-6.514 3.038-.243-.52a.57.57 0 0 1 .278-.765zm.087 1.546l6.513-3.038 3.645 7.817-6.514 3.037-3.644-7.816zm3.766 8.076l6.513-3.037.486 1.042a.57.57 0 0 1-.278.764L8.952 13.99a.57.57 0 0 1-.764-.279l-.486-1.042zm2.648-.442a.144.144 0 0 0 .122.26l1.824-.85a.144.144 0 0 0-.122-.26l-1.824.85z"/>
        <g stroke="#000" stroke-linecap="round" stroke-width=".5">
            <path d="M13.892 2.58c.699.435 1.194.966 1.485 1.592.292.625.38 1.345.265 2.16M14.87 1.349c1.027.641 1.755 1.422 2.184 2.342.43.92.56 1.98.39 3.18"/>
        </g>
        <g stroke="#000" stroke-linecap="round" stroke-width=".5">
            <path d="M2.086 8.085c-.115.815-.027 1.535.265 2.16.292.626.787 1.157 1.485 1.593M.515 8.042c-.169 1.2-.039 2.26.39 3.18.43.92 1.158 1.7 2.185 2.342"/>
        </g>
    </g>
</svg>
