<?xml version="1.0" encoding="UTF-8"?>
<svg width="64px" height="64px" viewBox="0 0 64 64" version="1.1" xmlns="http://www.w3.org/2000/svg" xmlns:xlink="http://www.w3.org/1999/xlink">
    <!-- Generator: Sketch 52.6 (67491) - http://www.bohemiancoding.com/sketch -->
    <title>Combined Shape Copy</title>
    <desc>Created with Sketch.</desc>
    <g id="investore" stroke="none" stroke-width="1" fill="none" fill-rule="evenodd">
        <path d="M32,64 C14.326888,64 0,49.673112 0,32 C0,14.326888 14.326888,0 32,0 C49.673112,0 64,14.326888 64,32 C64,49.673112 49.673112,64 32,64 Z M23,41.9865777 C23.0510264,44.3139065 25.3458261,45.7231641 27.3560136,44.6149999 L43.5215954,35.0832673 C44.4024575,34.5638186 45,33.6103675 45,32.494183 C45,31.3779985 44.4024575,30.4259015 43.5215954,29.9050987 L27.3560136,20.3869069 C25.3458605,19.2788469 23.0512189,20.6744317 23,23.0017536 L23,41.9865777 Z" id="Combined-Shape-Copy" fill="#0033A5" fill-rule="nonzero"></path>
    </g>
</svg>