<?xml version="1.0" encoding="UTF-8"?>
<svg width="130px" height="130px" viewBox="0 0 130 130" version="1.1" xmlns="http://www.w3.org/2000/svg" xmlns:xlink="http://www.w3.org/1999/xlink">
    <!-- Generator: Sketch 57.1 (83088) - https://sketch.com -->
    <title>Artboard Copy</title>
    <desc>Created with Sketch.</desc>
    <g id="Artboard-Copy" stroke="none" stroke-width="1" fill="none" fill-rule="evenodd">
        <g id="Group" transform="translate(38.000000, 30.000000)">
            <path d="M0,2 L0,65 C1.3527075e-16,66.1045695 0.8954305,67 2,67 L49,67 C50.1045695,67 51,66.1045695 51,65 L51,2 C51,0.8954305 50.1045695,-2.02906125e-16 49,0 L2,0 C0.8954305,2.02906125e-16 -1.3527075e-16,0.8954305 0,2 Z M2.59375,1.55813953 L48.40625,1.55813953 C48.9585347,1.55813953 49.40625,2.00585479 49.40625,2.55813953 L49.40625,64.4418605 C49.40625,64.9941452 48.9585347,65.4418605 48.40625,65.4418605 L2.59375,65.4418605 C2.04146525,65.4418605 1.59375,64.9941452 1.59375,64.4418605 L1.59375,2.55813953 C1.59375,2.00585479 2.04146525,1.55813953 2.59375,1.55813953 Z M7.96875,7.79069767 C7.52984719,7.79069767 7.171875,8.1406714 7.171875,8.56976744 C7.171875,8.99886349 7.52984719,9.34883721 7.96875,9.34883721 L43.03125,9.34883721 C43.4701528,9.34883721 43.828125,8.99886349 43.828125,8.56976744 C43.828125,8.1406714 43.4701528,7.79069767 43.03125,7.79069767 L7.96875,7.79069767 Z M7.96875,14.8023256 C7.52984719,14.8023256 7.171875,15.1522993 7.171875,15.5813953 C7.171875,16.0104914 7.52984719,16.3604651 7.96875,16.3604651 L43.03125,16.3604651 C43.4701528,16.3604651 43.828125,16.0104914 43.828125,15.5813953 C43.828125,15.1522993 43.4701528,14.8023256 43.03125,14.8023256 L7.96875,14.8023256 Z M7.96875,21.8139535 C7.52984719,21.8139535 7.171875,22.1639272 7.171875,22.5930233 C7.171875,23.0221193 7.52984719,23.372093 7.96875,23.372093 L43.03125,23.372093 C43.4701528,23.372093 43.828125,23.0221193 43.828125,22.5930233 C43.828125,22.1639272 43.4701528,21.8139535 43.03125,21.8139535 L7.96875,21.8139535 Z" id="Shape" stroke="#FFFFFF" stroke-width="0.3" fill="#0033A5" fill-rule="nonzero"></path>
            <path d="M18,40.2205954 C18,42.6423828 19.1040083,44.8152232 20.8333333,46.3217843 L20.8333333,57.3469729 C20.8333333,57.8687889 21.59975,58.2032849 22.006475,57.8607601 L26.5,54.1358028 L30.993525,57.8607601 C31.4002642,58.2032849 32.1639042,57.8687882 32.1666667,57.3469729 L32.1666667,46.3217843 C33.8959917,44.8152232 35,42.6423143 35,40.2205954 C35,35.6874851 31.1871833,32 26.5,32 C21.8128167,32 18,35.6874851 18,40.2205954 Z" id="Path" fill="#0033A5"></path>
            <path d="M22,48 C23.324264,48.7424311 24.8623511,49.1562309 26.5000375,49.1562309 C28.1377239,49.1562309 29.675811,48.7424964 31,48 L31,57 L26.9921834,53.6674029 C26.7226506,53.440698 26.2773494,53.440698 26.0078166,53.6674029 L22,57 L22,48 Z" id="Path" fill="#FFFFFF"></path>
        </g>
    </g>
</svg>