<?xml version="1.0" encoding="UTF-8"?>
<svg width="130px" height="130px" viewBox="0 0 130 130" version="1.1" xmlns="http://www.w3.org/2000/svg" xmlns:xlink="http://www.w3.org/1999/xlink">
    <!-- Generator: Sketch 57.1 (83088) - https://sketch.com -->
    <title>Artboard Copy 2</title>
    <desc>Created with Sketch.</desc>
    <g id="Artboard-Copy-2" stroke="none" stroke-width="1" fill="none" fill-rule="evenodd">
        <g id="np_research_1361944_000000" transform="translate(30.500000, 30.500000)" fill="#0033A5">
            <path d="M23.8906856,12.1088006 C22.8505402,11.0685538 21.4698056,10.5 20,10.5 C18.5301944,10.5 17.1494598,11.0712101 16.1093144,12.1088006 C13.9635619,14.2547625 13.9635619,17.742286 16.1093144,19.8911994 C17.1494598,20.9314462 18.5301944,21.5 20,21.5 C21.4698056,21.5 22.8505402,20.9287899 23.8906856,19.8911994 C26.0364381,17.7452375 26.0364381,14.2550979 23.8906856,12.1088006 L23.8906856,12.1088006 Z" id="Shape" fill-rule="nonzero"></path>
            <path d="M15.4927531,24.1433084 C15.5482504,24.5457123 15.2790896,24.9277221 14.8878349,24.9860231 C14.3051155,25.0764158 13.7806602,25.2397109 13.3116774,25.4409203 C12.1046255,25.9774614 11.2666081,26.8055822 10.7338345,27.5316949 C10.1289162,28.3219312 9.88750583,28.9954909 9.88196499,29.0159448 C9.77651843,29.313377 9.49903573,29.5 9.21322044,29.5 C9.12720236,29.5 9.04950266,29.4854203 8.96348458,29.4562601 C8.59442875,29.3075439 8.40851207,28.8818121 8.544483,28.4939573 C8.6083043,28.3219133 10.1067173,24.2249193 14.6824613,23.5076153 C15.073716,23.4492963 15.4344535,23.7321451 15.4927034,24.1432979 L15.4927531,24.1433084 Z" id="Path"></path>
            <path d="M31.0379977,29.4562819 C30.9520047,29.4854273 30.8687814,29.5 30.7883348,29.5 C30.4970568,29.5 30.2279782,29.3134672 30.1197858,29.0161787 C30.0975934,28.9578872 29.8562536,28.307936 29.2820134,27.5384657 C28.7410726,26.8069064 27.9033144,25.9703963 26.6826963,25.4428815 C26.6826963,25.4428815 26.6826963,25.4341384 26.674374,25.4341384 C26.2138797,25.2330336 25.6868295,25.0756447 25.1042876,24.9852956 C24.7214703,24.9270041 24.4496079,24.5451976 24.5078692,24.1429881 C24.5633495,23.7320339 24.9267483,23.4493173 25.3178745,23.5076126 C29.8922806,24.2245999 31.390286,28.3195622 31.4540581,28.4915454 C31.5927589,28.8821004 31.4068987,29.3076638 31.0379487,29.4562931 L31.0379977,29.4562819 Z" id="Path"></path>
            <path d="M66.2462205,58.6178296 L46.9705985,39.4070146 C46.1588371,38.5921088 45.058604,38.1522083 43.864965,38.1522083 C42.5469298,38.1522083 41.2288946,38.7077 40.2587055,39.6748962 L40.1710271,39.7623061 L34.5170088,34.1256033 C38.0213909,30.5586127 40.1851466,25.6719208 40.1851466,20.286136 C40.1851466,9.37957895 31.2869791,0.5 20.3469178,0.5 C9.40685645,0.5 0.5,9.37957895 0.5,20.286136 C0.5,31.1926931 9.40685645,40.072272 20.3469178,40.072272 C25.3730175,40.072272 29.9633685,38.2028034 33.4592065,35.1123115 L39.1782468,40.8138371 C38.5050808,41.6513371 38.1204445,42.6607837 38.0695419,43.7012703 C38.0044881,44.9785985 38.4542072,46.1629514 39.3225551,47.0286039 L58.598177,66.2451937 C59.4099384,67.0544691 60.5101716,67.5 61.7038106,67.5 C63.0218458,67.5 64.3398809,66.9445084 65.3100701,65.9688664 L65.9775811,65.3118598 C67.8952235,63.3944598 68.0196921,60.3913849 66.2462784,58.617779 L66.2462205,58.6178296 Z M20.3463313,38.6288514 C10.2005811,38.6288514 1.9475651,30.4011105 1.9475651,20.286432 C1.9475651,10.1717535 10.2005811,1.94401256 20.3463313,1.94401256 C30.4920814,1.94401256 38.7364085,10.1717535 38.7364085,20.286432 C38.7364085,30.4011105 30.488461,38.6288514 20.3463313,38.6288514 Z M64.9479526,64.2916358 L64.2889277,64.9570953 C63.5789931,65.6563956 62.6456377,66.0624048 61.7037599,66.0624048 C60.9004702,66.0624048 60.1622749,65.7663274 59.6192181,65.2249048 L40.3464924,46.0054275 C39.7751532,45.435838 39.4781807,44.6406822 39.5206116,43.7750297 C39.5573808,42.8811526 39.9477004,42.0211306 40.6208447,41.3556495 L40.6858986,41.2907948 C40.7000405,41.2766962 40.708526,41.2682367 40.7141825,41.2541381 L41.2798667,40.6901863 C41.9813151,39.9908861 42.9231567,39.5933226 43.8650345,39.5933226 C44.6683242,39.5933226 45.4065195,39.8894 45.9495763,40.4223047 L65.2251983,59.6388945 C66.4329567,60.8485847 66.311312,62.932373 64.9480148,64.2914878 L64.9479526,64.2916358 Z" id="Shape" stroke="#FFFFFF" stroke-width="0.3" fill-rule="nonzero"></path>
            <path d="M61.2906371,63.2916166 C61.1524886,63.4296041 60.9664163,63.5 60.7775221,63.5 C60.5970866,63.5 60.4081924,63.4267854 60.2728658,63.2916166 L42.7114451,45.7362521 C42.4295183,45.454654 42.4295183,44.9928597 42.7114451,44.711204 C42.9933718,44.4295987 43.4472608,44.4295987 43.7292453,44.711204 L61.290666,62.2665684 C61.569778,62.5481665 61.569778,63.0099608 61.290666,63.2916166 L61.2906371,63.2916166 Z" id="Path" stroke="#FFFFFF" stroke-width="0.3"></path>
        </g>
    </g>
</svg>