<?xml version="1.0" encoding="UTF-8"?>
<svg width="130px" height="130px" viewBox="0 0 130 130" version="1.1" xmlns="http://www.w3.org/2000/svg" xmlns:xlink="http://www.w3.org/1999/xlink">
    <!-- Generator: Sketch 57.1 (83088) - https://sketch.com -->
    <title>Artboard</title>
    <desc>Created with Sketch.</desc>
    <g id="Artboard" stroke="none" stroke-width="1" fill="none" fill-rule="evenodd">
        <g id="np_cannabis-transportation_2091831_000000" transform="translate(23.500000, 34.000000)" fill="#0033A5" fill-rule="nonzero">
            <path d="M72.7890096,14 L58.5,14 C57.9477153,14 57.5,14.4477153 57.5,15 L57.5,52 C57.5,52.5522847 57.9477153,53 58.5,53 L60.0347812,53 C60.556246,53 60.9789768,52.5772692 60.9789768,52.0558044 C60.9789768,51.5343395 60.556246,51.1116088 60.0347812,51.1116088 L59.4424773,51.1116088 L59.4424773,51.1116088 L59.4424773,16.8883912 C59.4424773,16.3361065 59.8901925,15.8883912 60.4424773,15.8883912 L63.6249095,15.8883912 C64.1771943,15.8883912 64.6249095,16.3361065 64.6249095,16.8883912 L64.6249095,34.4285195 C64.6249095,34.9808043 65.0726248,35.4285195 65.6249095,35.4285195 L80.5574839,35.4285195 C81.1097686,35.4285195 81.5574839,35.8762348 81.5574839,36.4285195 L81.5574839,51.1106646 L81.5574839,51.1106646 L80.3941675,51.1106646 C79.8727027,51.1106646 79.4499719,51.5333953 79.4499719,52.0548602 C79.4499719,52.576325 79.8727027,52.9990558 80.3941675,52.9990558 L82.5,52.9990558 C83.0522847,52.9990558 83.5,52.5513406 83.5,51.9990558 L83.5,26.8814289 C83.5,26.6507628 83.4202571,26.4271892 83.2742823,26.2485885 L73.5632918,14.3671596 C73.3733683,14.1347875 73.0891225,14 72.7890096,14 Z M66.5669983,32.5401283 L66.5669983,16.8883912 C66.5669983,16.3361065 67.0147135,15.8883912 67.5669983,15.8883912 L71.8518606,15.8883912 C72.1520295,15.8883912 72.4363222,16.0232288 72.6262441,16.2556747 L81.3310904,26.9095591 C81.4770019,27.0881406 81.5567069,27.3116645 81.5567069,27.5422757 L81.5567069,32.5406004 C81.5567384,33.0928852 81.1090231,33.5406004 80.5567384,33.5406004 C80.5567279,33.5406004 80.5567174,33.5406004 80.5567069,33.5405689 L67.5669983,33.5401598 C67.0147258,33.5401109 66.5670298,33.0924008 66.5669983,32.5401283 Z" id="Shape" stroke="#FFFFFF" stroke-width="0.3"></path>
            <path d="M2.5,53 L5.00600565,53 C5.53534887,53 5.96446633,52.5708825 5.96446633,52.0415393 C5.96446633,51.5121961 5.53534887,51.0830786 5.00600565,51.0830786 L3.40241325,51.0830786 C2.8501285,51.0830786 2.40241325,50.6353634 2.40241325,50.0830786 L2.40241325,3.91692135 C2.40241325,2.81235185 3.29784375,1.91692135 4.40241325,1.91692135 L50.5975868,1.91692135 C51.7021563,1.91692135 52.5975868,2.81235185 52.5975868,3.91692135 L52.5975868,49.0830786 C52.5975868,50.1876481 51.7021563,51.0830786 50.5975868,51.0830786 L24.897057,51.0830786 C24.3677137,51.0830786 23.9385963,51.5121961 23.9385963,52.0415393 C23.9385963,52.5708825 24.3677137,53 24.897057,53 L26.602888,53 L26.602888,53 L52.5,53 C53.6045695,53 54.5,52.1045695 54.5,51 L54.5,2 C54.5,0.8954305 53.6045695,-2.02906125e-16 52.5,0 L2.5,0 C1.3954305,2.02906125e-16 0.5,0.8954305 0.5,2 L0.5,51 C0.5,52.1045695 1.3954305,53 2.5,53 Z" id="Path" stroke="#FFFFFF" stroke-width="0.3"></path>
            <path d="M70,45 C65.3125886,45 61.5,48.812689 61.5,53.5 C61.5,58.187311 65.312689,62 70,62 C74.687311,62 78.5,58.187311 78.5,53.5 C78.5,48.812689 74.687311,45 70,45 Z M70,59.9920849 C66.4226857,59.9920849 63.5083168,57.0816322 63.5083168,53.5004017 C63.5083168,49.9191712 66.4187695,47.0087185 70,47.0087185 C73.5773143,47.0087185 76.4916832,49.9191712 76.4916832,53.5004017 C76.4916832,57.0816322 73.5812305,59.9920849 70,59.9920849 Z" id="Shape" stroke="#FFFFFF" stroke-width="0.3"></path>
            <path d="M14,45 C9.3125886,45 5.5,48.812689 5.5,53.5 C5.5,58.187311 9.31268902,62 14,62 C18.6874114,62 22.5,58.187311 22.5,53.5 C22.5,48.812689 18.687311,45 14,45 Z M14,59.9920849 C10.4226857,59.9920849 7.50831679,57.0816322 7.50831679,53.5004017 C7.50831679,49.9191712 10.4187695,47.0087185 14,47.0087185 C17.5773143,47.0087185 20.4916832,49.9191712 20.4916832,53.5004017 C20.4916832,57.0816322 17.5812305,59.9920849 14,59.9920849 Z" id="Shape" stroke="#FFFFFF" stroke-width="0.3"></path>
            <path d="M28.3771493,40 L28.3771493,36.3523992 C29.467189,36.826361 30.9489453,37.2202744 32.8872103,37.2202744 C33.3198165,37.2202744 33.7694448,37.2010599 34.2190644,37.1594272 L34.2497215,37.1594272 L37.8672581,37.0761649 L35.2273563,34.7480033 L35.166042,34.6935615 C34.9173735,34.466189 34.6721145,34.2484168 34.4268556,34.040253 C36.0210169,32.9930803 37.7310711,31.5231198 39.5364385,29.6528349 L39.6215976,29.5695727 L42.5,26.7033546 L38.3442455,27.2317616 L38.1943607,27.250976 C37.2303296,27.3566607 36.3105977,27.481554 35.445455,27.6320672 C35.9598142,26.248599 36.4026842,24.6473833 36.7671063,22.8444066 L36.7909511,22.7323191 L37.6561723,18.8765627 L34.4030579,21.3616403 L34.2872433,21.4513137 C33.0302968,22.3736258 31.9198515,23.2831484 30.9694241,24.1670104 C30.6117516,22.0373303 29.8827853,19.5907028 28.7893447,16.85574 L28.7348427,16.7148271 L27.3381967,13 L25.9415506,16.7148271 L25.8768302,16.8813598 C24.8344906,19.49138 24.1225639,21.8452024 23.7478519,23.9139689 C22.8554146,23.1069499 21.8334806,22.2775003 20.682137,21.4352859 L20.5867629,21.3616289 L17.3336485,18.8765512 L18.2022706,22.7323076 L18.2329286,22.8700149 C18.5974117,24.6602022 19.0368372,26.2518259 19.5477781,27.6320967 C18.6757463,27.4815835 17.7492126,27.3534846 16.7715778,27.2478 L16.6523536,27.2317878 L12.5,26.7033809 L15.3750015,29.5695989 L15.4771949,29.672078 C17.2689585,31.5294916 18.9755247,32.9962547 20.5696859,34.04023 C20.3176164,34.2515912 20.0621373,34.4757663 19.8066581,34.7127472 L19.7691887,34.7479738 L17.1292869,37.0761354 L20.7468235,37.1593977 L20.7740745,37.1593977 C21.2100903,37.2010304 21.6461062,37.2234479 22.0685184,37.2234479 C23.9998943,37.2234479 25.522549,36.7911172 26.6228786,36.3139252 C26.633098,36.3139252 26.633098,40 26.633098,40 L28.3771493,40 Z" id="Shape"></path>
        </g>
    </g>
</svg>