<?xml version="1.0" encoding="UTF-8"?>
<svg width="130px" height="130px" viewBox="0 0 130 130" version="1.1" xmlns="http://www.w3.org/2000/svg" xmlns:xlink="http://www.w3.org/1999/xlink">
    <!-- Generator: Sketch 57.1 (83088) - https://sketch.com -->
    <title>Artboard Copy 3</title>
    <desc>Created with Sketch.</desc>
    <g id="Artboard-Copy-3" stroke="none" stroke-width="1" fill="none" fill-rule="evenodd">
        <g id="Group-4" transform="translate(38.000000, 31.000000)" fill-rule="nonzero">
            <g id="np_location_2522545_000000" stroke="#0033A5">
                <path d="M28.4900935,66.9766495 C27.5882039,68.0900766 26.0125596,68.0900766 25.11067,66.9766495 C16.3254056,57.1861466 0.553159,39.3846154 0.553159,25.8112023 C0.553159,11.5699773 12.2698225,0.000678670654 26.6863142,0.000678670654 C41.1055545,0.000678670654 53.0448559,11.572692 53.0448559,25.8112023 C53.0448559,39.3846154 37.0499714,57.1861466 28.4873449,66.9766495 L28.4900935,66.9766495 Z" id="Shape"></path>
            </g>
            <g id="np_pharmacy_2157996_000000" transform="translate(18.000000, 17.000000)" fill="#0033A5">
                <path d="M18.2876114,6.17962235 L12.9711436,6.17962235 L12.9711436,0.862923794 C12.9711436,0.601226818 12.759692,0.390574961 12.4988153,0.390574961 L6.35437807,0.390574961 C6.09350134,0.390574961 5.88204973,0.602035741 5.88204973,0.862923794 L5.88204973,6.17962235 L0.565581922,6.17962235 C0.304705192,6.17962235 0.0932535895,6.39108313 0.0932535895,6.65197118 L0.0932535895,12.7958454 C0.0932535895,13.0575424 0.304705192,13.2681942 0.565581922,13.2681942 L5.88204973,13.2681942 L5.88204973,18.5848928 C5.88204973,18.8457808 6.09350134,19.0572416 6.35437807,19.0572416 L12.4979856,19.0572416 C12.7588624,19.0572416 12.970314,18.8457808 12.970314,18.5848928 L12.9711241,13.2690239 L18.2875919,13.2690239 C18.5484687,13.2690239 18.7599203,13.0575631 18.7599203,12.7958661 L18.7599203,6.65199192 C18.7599203,6.39110387 18.5484687,6.17964309 18.2875919,6.17964309 L18.2876114,6.17962235 Z" id="Shape"></path>
            </g>
        </g>
    </g>
</svg>