<?xml version="1.0" encoding="UTF-8"?>
<svg width="53px" height="66px" viewBox="0 0 53 66" version="1.1" xmlns="http://www.w3.org/2000/svg" xmlns:xlink="http://www.w3.org/1999/xlink">
    <!-- Generator: Sketch 52.6 (67491) - http://www.bohemiancoding.com/sketch -->
    <title>Group Copy</title>
    <desc>Created with Sketch.</desc>
    <g id="investore" stroke="none" stroke-width="1" fill="none" fill-rule="evenodd">
        <g id="Group-Copy" transform="translate(0.056738, 0.000000)">
            <g id="np_medal_1124789_000000" transform="translate(0.000000, 0.500000)" fill="#0033A5">
                <path d="M36.4181622,64.7436111 C36.3789944,64.7436111 36.3426228,64.7407901 36.303453,64.7379691 C35.9089754,64.6928302 35.5732705,64.4389258 35.4221489,64.0693502 L30.8339246,52.6856836 C30.783566,52.6743988 30.7304099,52.6659351 30.6800527,52.6518294 C30.2967624,52.5530872 29.8882757,52.3612505 29.4378473,52.0621999 C29.2140297,51.9662816 28.9874118,51.8308649 28.7580005,51.6503094 C28.6684735,51.6164552 28.5845401,51.5741366 28.5034072,51.5205333 C28.28239,51.3653711 28.1313114,51.2638049 28.0445847,51.2102016 C27.9942261,51.1876322 27.9438704,51.1594207 27.8991069,51.1255644 C27.1241609,50.5951861 26.461088,50.6008266 25.6525515,51.1368498 C25.5350491,51.2243037 25.3140247,51.3907543 25.0314559,51.6079843 C24.9643107,51.6644079 24.894365,51.7123671 24.8272197,51.7490415 C24.7908496,51.7857167 24.7544808,51.8167498 24.7181114,51.8477837 C24.3544096,52.1270815 24.0578459,52.3132776 23.7864573,52.4317654 C23.4171547,52.6433548 23.0758347,52.7844121 22.7485168,52.8605848 L17.9952046,64.0889737 C17.8413327,64.4529087 17.5056064,64.7011726 17.1166938,64.7406637 C16.7250095,64.7829816 16.3501276,64.6052471 16.12631,64.2808104 L11.770283,57.9754493 L5.37468703,59.3436993 C4.98860351,59.4255126 4.58570324,59.2872757 4.32836676,58.9797643 C4.07377338,58.6722565 4.00662811,58.2490921 4.15490635,57.8795309 L9.71116851,43.8525309 C9.52092716,43.6550465 9.22716392,43.4744909 8.72916446,43.3870371 C7.77237122,43.2149459 7.07850095,43.0767054 6.64203878,42.9807871 C6.60846543,42.9723233 6.57489351,42.9666813 6.5441177,42.9553959 C5.62363662,42.6563526 5.00539878,42.2416381 4.64729068,41.6802403 C4.28078851,41.163967 4.12970986,40.4163514 4.23323176,39.4966737 C4.28359107,39.0650303 4.39270446,38.3625681 4.5661577,37.338457 C4.75080541,36.3792737 4.47383027,35.7501459 3.65133473,35.2169292 C3.61496455,35.1943598 3.57859581,35.1689686 3.54782,35.1407564 C3.44989892,35.0589431 3.34358378,34.9827703 3.23447541,34.9207026 C3.21209365,34.9065968 3.18971189,34.8953121 3.17012768,34.8812064 C3.04423119,34.7993931 2.929522,34.7232203 2.82320686,34.6583358 C2.80082511,34.6442301 2.77844335,34.6301244 2.75606159,34.6131969 C2.4539043,34.4016075 2.16294862,34.2013064 1.88034403,34.0151103 C1.84397385,33.9925408 1.81319876,33.9671504 1.7796297,33.9389375 C1.14734686,33.4000947 0.752862135,32.8048319 0.604605378,32.1672542 C0.419957676,31.5070997 0.531866459,30.7425264 0.948725784,29.9357319 C1.10819849,29.6395053 1.3096343,29.2953231 1.56142727,28.8890875 C1.57821323,28.8636971 1.59499919,28.8383066 1.61458341,28.8129147 C1.95030976,28.3615258 2.05662489,28.1725058 2.0846003,28.1132619 L2.22728489,27.8254997 C2.24127331,27.7972876 2.25526245,27.7690761 2.27204841,27.7436864 C2.68610732,27.0609625 2.65813192,26.4826142 2.17412732,25.8027142 C1.586608,24.9704975 1.36838408,24.6178364 1.26489084,24.4316475 C0.576650027,23.4216919 0.294059757,22.5273642 0.403211108,21.7064142 C0.408806189,21.6697383 0.417199527,21.6330653 0.422795324,21.5992075 C0.604649784,20.8233964 1.21177911,20.0729353 2.27765208,19.3055742 L3.564621,18.4507519 C4.16612803,18.0473258 4.39557505,17.5902964 4.3367737,16.9272964 C4.33397545,16.8934422 4.33117791,16.8595881 4.33117791,16.8285542 C4.33117791,16.6649275 4.31998703,16.4928364 4.30599861,16.3122808 C4.06819334,15.2373975 3.91711469,14.4926419 3.84437577,14.0440697 C3.83598243,13.9989308 3.83318418,13.9566158 3.83038664,13.9114769 C3.796814,13.0933436 3.95908353,12.4218936 4.31159799,11.9112825 C4.71727001,11.3780803 5.28242907,11.0225881 6.01540474,10.8110492 C6.36231839,10.6869136 6.7344142,10.5740736 7.11773312,10.4753314 C7.30238082,10.4189078 7.47584123,10.3822297 7.64650123,10.3709486 C7.8703188,10.314525 8.05217326,10.2665658 8.19205745,10.2270675 C8.2144392,10.2186045 8.2396185,10.2129618 8.26479636,10.2101408 C9.20483015,10.0098397 9.67201799,9.55562689 9.82872609,8.68950189 C9.95742299,7.97856078 10.0329623,7.56947967 10.0581373,7.46793522 C10.1196868,7.15760356 10.1896274,6.84727189 10.2595731,6.57642411 C10.2819549,6.44100744 10.332312,6.31123133 10.3966641,6.187103 C10.6120876,5.45643078 10.9841834,4.89215856 11.5045789,4.51133078 C11.5241631,4.49722433 11.5465449,4.48311861 11.5689267,4.46619189 C12.1732341,4.08533522 12.9174186,3.96119967 13.7790983,4.09661633 C13.9077952,4.11636478 14.0029159,4.11354306 14.1008369,4.12200678 C14.6799622,4.17560939 15.3262113,4.29409789 16.025668,4.47747733 C16.1179954,4.49158306 16.2690669,4.5085105 16.4089583,4.5085105 C16.8034359,4.5085105 17.3237813,4.40976828 17.844184,3.64805494 C17.8833524,3.59445233 17.9225237,3.54367217 17.9700804,3.49570939 C17.9700804,3.49570939 18.0847896,3.36311661 18.3505703,2.8553005 C18.3757496,2.80734061 18.4037264,2.76219883 18.4345037,2.71988383 C18.6890971,2.36723717 18.8989269,2.07383439 19.0639933,1.83963939 C19.6347245,1.06101161 20.2698149,0.595467167 20.9636136,0.4347005 C21.6993825,0.2174705 22.535923,0.381098611 23.4088473,0.922763833 C23.8648765,1.18795661 24.3936446,1.53213883 24.9643973,1.92990272 C25.8708406,2.60980994 26.5367068,2.58441661 27.4068379,1.94400844 C27.8348917,1.661894 28.2517581,1.35720289 28.6938068,0.998908444 C28.7413679,0.959412278 28.7945211,0.922735667 28.8504791,0.894525667 C29.8185169,0.361323444 30.6326399,0.169486778 31.3404764,0.307720111 C32.1545994,0.431855667 32.8819886,0.945305111 33.5030913,1.83399233 C33.78566,2.214849 34.1521622,2.75367011 34.6026264,3.461809 C35.0922246,4.15299733 35.6825372,4.390009 36.5274575,4.21508678 C37.3975169,3.97528733 38.1193913,3.81166067 38.6677264,3.73548789 C38.8943444,3.71009744 39.0845857,3.69599172 39.2664402,3.69599172 C39.8679472,3.69599172 40.4079456,3.82294394 40.8639604,4.06838394 C41.347965,4.35332228 41.9215253,4.88370061 42.1676888,5.92189506 C42.3467429,6.30275172 42.4558513,6.73157839 42.4978215,7.20550061 C42.5705604,7.46222894 42.6377057,7.79230617 42.7020577,8.2041895 C42.9174813,9.07591172 43.3986926,9.56117283 44.2548145,9.76144506 C44.526196,9.78965722 44.8815037,9.83761783 45.3235523,9.90814283 C45.3823043,9.91660656 45.4382615,9.93071228 45.4942123,9.95046072 C46.0425618,10.1338402 46.3139218,10.1789791 46.4314529,10.1874363 C46.5069922,10.1959 46.5769307,10.207184 46.6496768,10.2297534 C47.4526268,10.4751934 48.0317592,10.9011962 48.3674498,11.496459 C48.6919817,12.0014512 48.8458607,12.6869701 48.8458607,13.6490423 C48.8458607,13.7449607 48.8318723,13.840879 48.8066923,13.9339807 C48.764727,14.0891429 48.6724017,14.5236101 48.4709659,15.7112973 C48.2835178,16.7184362 48.5437049,17.3955196 49.3047132,17.9202862 C50.4126281,18.6650418 50.8770227,18.9500307 51.0729078,19.0543918 C51.1288622,19.0826039 51.1820162,19.1221001 51.2323805,19.1587746 C51.9066336,19.7032651 52.3234643,20.338019 52.4717927,21.0433412 C52.5948959,21.7091434 52.4438151,22.4144079 52.0101699,23.2269079 C51.9933832,23.2579411 51.973799,23.2889742 51.957013,23.3171857 C51.8395106,23.4921007 51.6912323,23.7544696 51.5121783,24.0901801 C51.4897965,24.1324973 51.4646172,24.1719934 51.4366389,24.2143157 C51.2715726,24.4456507 51.0645431,24.7841923 50.8267379,25.2214546 C50.8127487,25.246845 50.7987603,25.2722362 50.7819744,25.2976273 C50.3315388,25.9831751 50.3511273,26.5812329 50.8407263,27.3006384 L51.3806889,28.0990551 C51.6212945,28.4742712 51.8059422,28.7733146 51.9542205,29.0215496 C52.4997767,29.927144 52.7096137,30.7199273 52.5948974,31.4449662 C52.4773949,32.2038773 51.9598141,32.9063107 51.0197947,33.5975496 L50.3175661,34.1251112 C50.1273248,34.2633518 49.8475493,34.460829 49.4586797,34.7316623 C48.6976999,35.2366546 48.4878486,35.8093623 48.7116661,36.7177734 C48.9438778,37.8151901 49.0893556,38.5853679 49.1621017,39.1045012 C49.1676975,39.1411764 49.170495,39.1750313 49.1732926,39.208884 C49.2068652,39.9762451 49.0445957,40.6307951 48.697682,41.1554896 C48.3787438,41.7366546 47.7828591,42.1513618 46.9211077,42.3939562 C46.5685932,42.498339 46.1713009,42.5886168 45.7124928,42.6704301 C45.706897,42.6732518 45.701302,42.6732518 45.6957062,42.6732518 C45.564216,42.7071053 45.2592583,42.8030279 44.7808832,42.9581902 C44.7333214,42.9722959 44.6857625,42.9835806 44.6381986,42.9948653 C44.0031154,43.1077126 43.6841986,43.375722 43.5051445,43.6606676 L49.041854,57.7353342 C49.1397751,57.8989609 49.1929326,58.0851642 49.1929326,58.288282 C49.1929326,58.8863687 48.7117213,59.3716153 48.1186083,59.3716153 L48.1046192,59.3716153 C48.0290799,59.3716153 47.9535405,59.3631516 47.8780012,59.3490459 L41.5999364,57.9836126 L37.3166053,64.2833403 C37.1039822,64.5682787 36.7710491,64.7431937 36.4185418,64.7431937 L36.4181622,64.7436111 Z M12.2458649,55.679 C12.5927857,55.679 12.9229112,55.8482744 13.1271689,56.1444939 L16.7838108,61.4370106 L21.0363446,51.3908994 C21.2377804,50.9141172 21.7469672,50.6489606 22.2505459,50.7561311 C22.2393551,50.7504884 22.4044178,50.7392037 22.7681268,50.5219722 C22.8212836,50.4881181 22.8772351,50.4627276 22.9359935,50.4401589 C22.9415886,50.4373379 23.0451019,50.397841 23.2996953,50.2116406 C23.3892223,50.1100744 23.4955374,50.01698 23.6186335,49.9351667 C23.6661953,49.9041335 23.719355,49.8759221 23.7725054,49.8533533 C24.0578746,49.6304828 24.2816922,49.4640322 24.4411577,49.3483611 C26.0134672,48.3101667 27.5801901,48.3214333 29.0350401,49.2834738 C29.1609366,49.3511821 29.3064216,49.4471004 29.4994634,49.5797004 C29.6645297,49.6248393 29.812808,49.7066527 29.9415049,49.8251404 C30.1653224,50.0282654 30.2716376,50.0677638 30.2744308,50.0677638 C30.3723519,50.1016179 30.4646722,50.1467604 30.5458123,50.2031804 C30.9179081,50.4627327 31.127738,50.5304338 31.1976836,50.5501866 C31.3011984,50.575577 31.4326885,50.5896827 31.5809739,50.5896827 C32.0174218,50.5896827 32.4090631,50.8576922 32.5769442,51.2667661 L36.6588036,61.3923216 L40.220332,56.1562105 C40.4693318,55.7922755 40.9057724,55.6173677 41.3338334,55.7104622 L46.3529334,56.8022455 L41.3282469,44.0254122 C41.2303258,43.7799722 41.2275326,43.5063149 41.3142585,43.2608677 C41.7730809,41.9744455 42.7606571,41.1506066 44.1735369,40.8769566 C45.0044909,40.6061233 45.2450679,40.5412388 45.3877382,40.5271266 C45.7430459,40.4594183 46.0507969,40.3917099 46.3221855,40.3098966 C46.7194635,40.1998733 46.8145841,40.0898427 46.8173846,40.0870261 C46.8425639,40.0362452 46.8593498,40.0108533 46.8929239,39.9600738 C47.0020323,39.8049116 47.024414,39.5538238 47.0188204,39.3506988 C46.9488768,38.8795644 46.8173846,38.1770877 46.6103551,37.2037488 C46.1767077,35.4545988 46.7558329,33.9255099 48.2498456,32.9324544 C48.6051533,32.6841905 48.8793352,32.4951705 49.0416227,32.3766827 L49.7382575,31.8491211 C50.4013162,31.3638744 50.46844,31.1043655 50.46844,31.1014766 C50.4768326,31.0506957 50.4964168,30.7770399 50.1103319,30.1366599 C49.9704477,29.8968605 49.7969873,29.6175627 49.5871574,29.2931044 L49.0639829,28.5229266 C48.0819789,27.0841155 48.0428019,25.5662933 48.9604682,24.1416377 C49.217862,23.6705033 49.4444728,23.2952655 49.648709,23.0075322 C49.8361571,22.6577022 49.9984231,22.3784116 50.1411077,22.1583433 C50.3985014,21.6618155 50.3677256,21.4727955 50.3677256,21.4699716 C50.3313555,21.3063449 50.1942652,21.1116844 49.95646,20.9085594 C49.5927582,20.7026105 48.9856289,20.3104727 48.1043964,19.7180483 C46.6160275,18.6967538 46.0116843,17.1818205 46.3558262,15.3339427 C46.5404739,14.2590594 46.6355946,13.7795038 46.6943529,13.5255705 C46.6803645,12.8738805 46.565656,12.6848316 46.5628628,12.6820149 C46.5488744,12.6594455 46.5125035,12.6030183 46.4985151,12.5776322 C46.4621449,12.5127456 46.3418428,12.4196461 46.1068307,12.3350088 C45.7739048,12.2926909 45.3766483,12.1939516 44.9010091,12.0387822 C44.5149256,11.9795376 44.2071747,11.9372233 43.980528,11.9146466 C43.9357645,11.9090039 43.8938014,11.9033619 43.8490379,11.8948982 C42.1284717,11.5168582 41.0009325,10.4024982 40.5952676,8.66461483 C40.5896718,8.63922439 40.584076,8.61101222 40.5812785,8.58561817 C40.5029388,8.0721615 40.4385939,7.84086261 40.4078181,7.74769594 C40.377043,7.65459428 40.3602563,7.56149983 40.3546612,7.4655815 C40.3406728,7.19474817 40.2847184,6.96905372 40.1951885,6.79977928 C40.1448292,6.70386094 40.1084619,6.60229483 40.0888734,6.49509539 C40.032919,6.21015706 39.9377948,6.0296015 39.809105,5.95625261 C39.6580264,5.87725594 39.3195068,5.83776483 38.9333875,5.88007983 C38.5053337,5.94214544 37.8506834,6.09166928 37.0169361,6.32018761 C36.6364462,6.40200094 36.317508,6.43585872 36.0181726,6.43585872 C34.7367902,6.43585872 33.6261537,5.82648372 32.8147523,4.67544206 C32.3699176,3.98142983 32.0229753,3.46514206 31.7543942,3.10684761 C31.4718254,2.70059761 31.208838,2.47772706 30.999001,2.44950983 C30.9738217,2.44668883 30.9486424,2.44104611 30.9234616,2.43540411 C30.7639889,2.43258311 30.4898142,2.46361556 29.9498373,2.75137633 C29.4798204,3.12659244 29.0322211,3.45666967 28.6153116,3.72753189 C27.0989387,4.85037078 25.2860522,4.87860967 23.6997049,3.685214 C23.2073062,3.34103178 22.7260806,3.03070011 22.2980698,2.77961956 C21.8951981,2.52853178 21.6881687,2.50596233 21.6154298,2.50596233 C21.5818564,2.51724706 21.4811392,2.53417378 21.447563,2.5426375 C21.2713094,2.58213439 21.0362973,2.78526083 20.8012925,3.10123306 C20.6586079,3.30999861 20.4543716,3.59493694 20.2053791,3.93626639 C19.9563794,4.40740083 19.7521503,4.72623306 19.5591085,4.94622194 C18.5854842,6.32292194 17.1754694,6.90979972 15.5443585,6.58812194 C14.9092753,6.42449528 14.3916802,6.32856972 13.9384585,6.28343083 C13.7789858,6.28060911 13.6055326,6.26368239 13.4236781,6.23264922 C13.1578975,6.19033133 12.8893164,6.19879506 12.7326441,6.28060911 C12.5675777,6.42449022 12.4724571,6.69532356 12.4192995,6.906913 C12.3969177,7.00001467 12.3633451,7.09029244 12.3157848,7.16928189 C12.2598311,7.39215244 12.2010756,7.64888078 12.1451248,7.936643 C12.1087546,8.09180522 12.0444104,8.45574022 11.9324945,9.07074856 C11.6163495,10.805743 10.511235,11.9257652 8.73473232,12.3151152 C8.56407232,12.3630758 8.34025476,12.4223219 8.06047922,12.4928469 C7.97375259,12.5125953 7.88422557,12.5267011 7.79749178,12.5267011 C7.77231177,12.5351648 7.68838341,12.5605552 7.66320124,12.5661979 C7.32188124,12.6508352 6.99454895,12.7523941 6.68957692,12.8596007 C6.66439762,12.8680637 6.63921761,12.8765274 6.61403759,12.8821702 C6.33146881,12.9611596 6.12443935,13.0683663 6.03491232,13.1868541 L6.03771058,13.1840331 C6.04050812,13.1840331 5.96217126,13.3391953 5.97056531,13.7510931 C6.04330423,14.1770886 6.19158247,14.8992819 6.4126068,15.9008597 C6.42379768,15.9431776 6.42939276,15.9854969 6.43219101,16.0306358 C6.45737031,16.2901881 6.47135873,16.5384519 6.47415627,16.7753914 C6.58606505,18.2113858 5.98735127,19.4131636 4.74234546,20.2510858 L3.48338059,21.0861192 C2.76996478,21.5995758 2.57414411,21.9296747 2.52092924,22.0453025 C2.5237275,22.2032886 2.59366816,22.5728642 3.055291,23.2443358 C3.08606609,23.2866537 3.11124539,23.3317897 3.13642397,23.3797525 C3.15321065,23.4164277 3.27351492,23.6393047 3.90857668,24.5364636 C4.89616722,25.9160525 4.96893478,27.4028192 4.11840654,28.8302914 L3.9953033,29.0785553 C3.86940681,29.3324597 3.66237735,29.6456153 3.34623235,30.0772442 C3.13360208,30.4242503 2.96014884,30.7176531 2.83145195,30.9574886 C2.68876735,31.2339625 2.63001614,31.4765858 2.669186,31.6289314 C2.71674777,31.8320564 2.86782141,32.0351814 3.10842708,32.2467708 C3.37420776,32.4245025 3.65118289,32.6163464 3.93651627,32.8138308 C4.05122546,32.8843602 4.17991519,32.9661764 4.31420573,33.0564542 C4.50165384,33.1664775 4.67790749,33.2877892 4.84577424,33.4260297 C6.38169992,34.4388019 7.00838911,35.9255686 6.66431884,37.7226742 C6.50484614,38.6705908 6.39853816,39.3561242 6.35377465,39.7370242 C6.30621359,40.1743081 6.36776307,40.3971786 6.40972904,40.4620631 C6.44050414,40.5072019 6.55520688,40.6792931 7.14270472,40.8767775 C7.56515769,40.9698792 8.2142358,41.0968314 9.09274661,41.2548175 C10.3713358,41.4805119 11.3365088,42.1688619 11.8708777,43.2465619 C12.0079686,43.5230358 12.0219563,43.8446486 11.9072479,44.1324397 L6.88535462,56.8052731 L12.0079479,55.7078564 C12.0974749,55.6881087 12.1730142,55.6796449 12.2457531,55.6796449 L12.2458649,55.679 Z" id="Shape" fill-rule="nonzero"></path>
                <path d="M26.5,45.3505 C21.3549892,45.3505 16.9320676,43.5054389 13.3481216,39.8660889 C13.2949648,39.8124863 13.2446069,39.7532417 13.205437,39.6883572 C9.64670189,36.0547128 7.84498838,31.6312461 7.84498838,26.5359683 C7.84498838,21.4465406 9.69705189,16.9860239 13.3509005,13.2795794 C16.9347749,9.64022944 21.3610627,7.79516833 26.5027789,7.79516833 C31.4659424,7.79516833 35.7856573,9.56121833 39.3474005,13.0453628 C39.4788907,13.0989654 39.5964003,13.1807794 39.6943214,13.2851622 C43.2949551,16.9921844 45.1218795,21.4498844 45.1218795,26.5364956 C45.1218795,31.6964122 43.2921619,36.17094 39.6887349,39.8297178 C39.6076019,39.9115311 39.5152745,39.9820633 39.4117597,40.0328428 C35.8390584,43.5621261 31.4939895,45.3507817 26.50053,45.3507817 L26.5,45.3505 Z M15.0126081,38.4837556 C18.1908176,41.6491111 21.9509527,43.18665 26.5,43.18665 C31.0463257,43.18665 34.8231486,41.6011556 38.0604459,38.3398889 C38.1359853,38.2637161 38.2255123,38.1960078 38.320633,38.1452283 C41.4512857,34.8952283 42.9732451,31.0951117 42.9732451,26.5391172 C42.9732451,22.0816339 41.4680451,18.3122839 38.3793627,15.0341172 C38.2618603,14.9805153 38.1527447,14.9043411 38.0604245,14.8112467 C34.8262785,11.54998 31.0465191,9.96448556 26.4999785,9.96448556 C21.8865434,9.96448556 18.0787082,11.54998 14.8729245,14.80843 C11.5884285,18.1430744 9.99370149,21.97988 9.99370149,26.5387633 C9.99370149,31.1683522 11.5884285,35.0133189 14.8701312,38.3001522 C14.9204898,38.3565758 14.9708455,38.4158233 15.0128158,38.4835317 L15.0126081,38.4837556 Z" id="Shape" fill-rule="nonzero"></path>
                <path d="M22.0236486,52.897 L21.8082251,52.897 C21.6795282,52.897 21.5536318,52.8744306 21.4333289,52.8292917 C20.8709846,52.6148783 20.3478316,52.2170928 19.8413951,51.607725 C19.4609053,51.1704411 19.0384451,50.5807972 18.5712573,49.8218861 C18.0312947,49.0037528 17.3542627,48.7272861 16.3386681,48.9247417 C16.1316386,48.9980906 15.9665723,49.0404128 15.8182941,49.0601583 C15.5329249,49.1278667 15.3314891,49.1701817 15.2139866,49.195575 C14.7495634,49.2999578 14.3075434,49.356385 13.8934272,49.3620256 C13.0904772,49.4579439 12.4609947,49.3281714 11.9769758,48.978345 C11.4873776,48.6341628 11.1069164,48.0699339 10.8662677,47.3082061 L10.600487,46.3179672 C10.5864986,46.2671863 10.5781053,46.2135844 10.5725102,46.1571572 C10.5585218,46.1091973 10.5473302,46.0527744 10.5389376,46.0132761 C10.5333418,45.9822429 10.5025667,45.7875817 10.2843442,44.9947983 C10.2759508,44.9665869 10.2703558,44.9383747 10.26476,44.9073444 C10.2227947,44.68165 10.1528512,44.5010944 10.0577305,44.3685017 C9.70801645,43.883255 9.81433158,43.2061572 10.2927354,42.8534961 C10.7711463,42.5008494 11.4454137,42.6052322 11.7951421,43.0904717 C12.0721173,43.4713283 12.2623586,43.9283939 12.3686737,44.4530883 C12.5561219,45.1358122 12.6260675,45.4433272 12.6540429,45.6126161 C12.6764247,45.6944294 12.6932106,45.7734261 12.701604,45.846775 L12.928222,46.6959639 C13.0457244,47.0627156 13.1800149,47.1812106 13.2191848,47.2094206 C13.2247806,47.2094206 13.3534753,47.2517377 13.6864013,47.2065988 C14.0025463,47.1614599 14.357854,47.1699237 14.7746918,47.0768227 C14.9117828,47.0514323 15.1160118,47.0034738 15.4125683,46.9357655 C15.4545343,46.9244808 15.4965017,46.9188388 15.5412652,46.9131961 C15.5776354,46.9019113 15.6196049,46.8878056 15.6755557,46.8680572 C15.7259143,46.8483094 15.7790705,46.831382 15.8294276,46.8229183 C17.745879,46.4166683 19.3209817,47.0486127 20.3813398,48.6538961 C20.7981991,49.3281555 21.159079,49.8387738 21.4752168,50.1970683 C21.7214161,50.4904711 21.9116647,50.6512811 22.0543421,50.7330944 C22.6362678,50.7472001 23.1063205,51.2267983 23.1063205,51.8164277 C23.0979271,52.4116977 22.6167222,52.8969444 22.0236164,52.8969444 L22.0236486,52.897 Z" id="Path"></path>
                <path d="M31.5837027,52.7532778 C30.9905897,52.7532778 30.5093784,52.2680311 30.5093784,51.6699444 C30.5093784,51.2072744 30.7947476,50.8123056 31.2004124,50.6599889 C31.2899395,50.612029 31.3990478,50.5640706 31.4857816,50.5443178 C31.5193535,50.5358541 31.7040055,50.4822522 32.0593132,50.1691017 C32.0788967,50.1521742 32.098481,50.1352475 32.1208627,50.1211418 C32.1992024,50.0618964 32.2747346,49.9716201 32.3446803,49.855949 C32.4789708,49.638719 32.7783277,49.1675846 33.2595033,48.4171379 C34.1743262,46.8457268 35.7522938,46.1770934 37.6658803,46.5636268 C37.931661,46.6003027 38.2869758,46.6821146 38.7793816,46.8288196 C39.3053565,46.9190973 39.4676224,46.9021684 39.6187154,46.9162734 C39.9152719,46.9501269 40.1474835,46.9219154 40.2370106,46.8401007 C40.3125499,46.7695706 40.3964833,46.7103246 40.4860103,46.6651857 C40.4832127,46.6651857 40.525178,46.6285105 40.5727369,46.5100234 C40.6007137,46.3633184 40.6398822,46.2025157 40.6846457,46.0360651 C40.7322067,45.8893601 40.8329239,45.5085034 41.0399534,44.2107929 C41.0567401,43.7904379 41.191032,43.3926596 41.4316377,43.0230984 C41.7617704,42.5237468 42.427608,42.3883301 42.9200066,42.7184146 C43.4124053,43.0484918 43.5494962,43.7227368 43.2221639,44.2192646 C43.1857938,44.2728672 43.1857938,44.2954373 43.1857938,44.3067184 C43.1857938,44.3631421 43.180198,44.4195657 43.1718053,44.4788096 C42.9368005,45.9627596 42.8164976,46.4282318 42.7381579,46.6680096 C42.7157761,46.7498229 42.6877986,46.865494 42.6682151,46.9755173 C42.6570242,47.0375829 42.6430351,47.096829 42.6234516,47.1560729 C42.4052277,47.7767362 42.058314,48.2337729 41.585511,48.5215062 C41.0371616,48.975719 40.3181664,49.1590912 39.4396556,49.074454 C39.1486928,49.0688113 38.7905847,49.0293151 38.3485719,48.9503184 C38.3066059,48.9418547 38.2674389,48.933391 38.2254686,48.9221063 C37.6575306,48.7528318 37.4420713,48.7161574 37.3749619,48.7076929 C37.3413892,48.7020509 37.3078166,48.6964082 37.2742475,48.6907662 C36.2194759,48.4707123 35.5676475,48.7302624 35.0864219,49.5512218 C34.5912228,50.3298496 34.2946448,50.795394 34.1743921,50.9872162 C33.9813504,51.3116529 33.7323506,51.6050557 33.4442097,51.8279551 C32.9937741,52.2172762 32.5684921,52.4740046 32.148861,52.6065829 C31.9977824,52.6855796 31.8103343,52.7532807 31.5837235,52.7532807 L31.5837027,52.7532778 Z" id="Path"></path>
            </g>
            <g id="np_cannabis_2091836_000000" transform="translate(16.000000, 15.000000)" fill="#000000" stroke="#75BD1D" stroke-linejoin="round">
                <path d="M21.151412,12.4551903 C19.4305297,12.6635426 17.890758,12.9531557 16.5619848,13.3198559 C17.372167,11.5811638 18.0400189,9.28188728 18.5516029,6.4776313 L18.729763,5.59525742 L18.065886,6.16093572 C16.0404432,7.81628683 14.4609994,9.395631 13.3579775,10.8666986 C13.327124,8.23000459 12.5856328,4.87655181 11.1523923,0.884454069 L10.8528005,0 L10.555196,0.879253594 C9.18764251,4.68573439 8.44913508,7.91536254 8.35557313,10.4926645 C7.27268029,9.13003342 5.7897541,7.67587401 3.94042792,6.16426936 L3.27257606,5.59547077 L3.44973987,6.47264418 C3.96231765,9.28116721 4.63116322,11.5813772 5.44035171,13.3202026 C4.11162946,12.9535024 2.57081308,12.6628626 0.853982034,12.455537 L0,12.3346913 L0.587233678,12.9868308 C2.73311961,15.4631102 4.70783204,17.2216174 6.46339243,18.2217087 C5.87417133,18.6717497 5.25111301,19.2322276 4.60914865,19.8916478 L4.09756459,20.3937736 L4.7773665,20.4104418 C5.18145115,20.4552379 5.56665524,20.4760718 5.93392153,20.4760718 C8.55070023,20.4760718 10.247657,19.4374436 10.9939613,18.8550972 C11.78325,19.514544 13.7738109,20.7656982 17.2005934,20.4125193 L17.9012888,20.3937675 L17.3936796,19.895802 C16.7487341,19.2332349 16.1246566,18.6717436 15.5354355,18.2227426 C17.2911488,17.2226513 19.2659376,15.4640908 21.4087915,12.9921318 L22,12.336872 L21.151412,12.4551903 Z M14.9356071,17.9484917 L14.5414596,18.1516356 L14.9057448,18.4079097 C15.4631161,18.8006655 16.0592932,19.3069517 16.6833707,19.9184742 C13.5590338,20.1059927 11.8281888,18.8985945 11.2103029,18.3485442 C11.1774568,18.3193736 11.1545658,18.3006225 11.1436171,18.2933312 L11.0012893,18.1901965 L10.8579652,18.2933312 C10.8490075,18.2995819 10.8320879,18.3131247 10.8062106,18.3350017 C10.1353776,18.8902524 8.30600212,20.1101504 5.31709048,19.9215998 C5.94114252,19.3100773 6.53833881,18.802751 7.09769755,18.407915 L7.4619827,18.1516409 L7.06783519,17.9484971 C5.37780892,17.0755107 3.45275669,15.4316006 1.33996905,13.0552504 C3.05687654,13.2854794 4.57565286,13.6021803 5.86263915,13.9969897 L6.45186026,14.1782569 L6.15825616,13.6136187 C5.30926817,11.9801362 4.60357876,9.73833161 4.05815748,6.9410096 C5.93729506,8.51720681 7.39652501,10.0183572 8.40068518,11.4070173 L8.87048231,12.0570766 L8.85853864,11.2413755 C8.82171264,8.72551916 9.49255329,5.47738266 10.854119,1.57382633 C12.2983159,5.71073729 12.9641549,9.10998092 12.8347683,11.6808823 L12.7879898,12.616381 L13.2985802,11.8475641 C14.3018486,10.3359595 15.86338,8.68780905 17.9466111,6.93991616 C17.4021835,9.73483796 16.6965196,11.9779761 15.8465124,13.6125253 L15.5529083,14.1771635 L16.1421294,13.9958963 C17.4290647,13.6000201 18.9479684,13.2843646 20.6647995,13.054157 C18.5527508,15.4293604 16.6267558,17.0742573 14.9359142,17.9484704 L14.9356071,17.9484917 Z" id="Shape" fill-rule="nonzero"></path>
                <polygon id="Path" stroke-linecap="round" points="10.6451613 21.3235294 11.0180426 21.3235294 11.0180426 24.8005982 10.6451613 24.8005982"></polygon>
            </g>
        </g>
    </g>
</svg>