<svg width="50" height="50" xmlns="http://www.w3.org/2000/svg">
 <!-- Generator: Sketch 58 (84663) - https://sketch.com -->

 <title>rolling</title>
 <desc>Created with Sketch.</desc>
 <g>
  <title>background</title>
  <rect fill="none" id="canvas_background" height="402" width="582" y="-1" x="-1"/>
 </g>
 <g>
  <title>Layer 1</title>
  <g fill-rule="evenodd" fill="none" id="rolling">
   <g fill-rule="nonzero" fill="#FBB03B" id="Group-44-Copy-2">
    <g id="Group-41">
     <path fill="#000000" id="Path" d="m37.498418,22.331822c-0.279207,0.67376 -0.566036,1.404992 0.183701,1.404992c0.433031,0 0.822117,-0.255002 0.983701,-0.643744l0.429159,-1.036256c0.279207,-0.675008 0.196479,-1.44 -0.221039,-2.043744l-1.168515,-1.696256c-0.137017,-0.198749 -0.221039,-0.423744 -0.248184,-0.655008c-0.028437,-0.24 0.005171,-0.487488 0.100826,-0.717504l0.259818,-0.630016c0.279207,-0.672512 0.279207,-1.052395 -0.259818,-1.270219c-0.438339,-0.177136 -0.796928,0.217824 -0.907584,0.508971l-0.429159,1.037504c-0.279207,0.675008 -0.196479,1.438752 0.219745,2.043744l1.169839,1.695008c0.2805,0.40624 0.334783,0.92 0.147358,1.37376c-0.173232,0.419178 -0.259848,0.628768 -0.259848,0.628768z"/>
     <path fill="#000000" id="Path-Copy-3" d="m34.640305,22.331822c-0.279207,0.67376 -0.566035,1.404992 0.183701,1.404992c0.433031,0 0.822117,-0.255002 0.983701,-0.643744l0.42916,-1.036256c0.279206,-0.675008 0.196478,-1.44 -0.22104,-2.043744l-1.168515,-1.696256c-0.137017,-0.198749 -0.221039,-0.423744 -0.248184,-0.655008c-0.028437,-0.24 0.005171,-0.487488 0.100826,-0.717504l0.259819,-0.630016c0.279206,-0.672512 0.279206,-1.052395 -0.259819,-1.270219c-0.438338,-0.177136 -0.796928,0.217824 -0.907583,0.508971l-0.42916,1.037504c-0.279207,0.675008 -0.196479,1.438752 0.219745,2.043744l1.169839,1.695008c0.280501,0.40624 0.334783,0.92 0.147358,1.37376c-0.173232,0.419178 -0.259848,0.628768 -0.259848,0.628768z"/>
     <g id="Group-40">
      <path fill="#000000" id="Path" d="m33.01632,26.113408l-22.17632,3.39136c-1.12,0.16 -1.12,1.76 0,1.952512l22.17632,3.42368c0.25625,0.032499 0.447488,-0.16 0.447488,-0.383744l0,-8c0.032499,-0.25625 -0.191251,-0.416256 -0.447488,-0.383744l0,-0.000064z"/>
      <path fill="#000000" id="Path" d="m36.02368,26.177088c-0.703744,-0.127501 -1.343744,0.416256 -1.343744,1.152512l0,6.36736c0,0.703744 0.64,1.28 1.343744,1.152512c1.087488,-0.192499 1.887488,-1.12 1.887488,-2.24l0.00125,-4.22496c0,-1.087488 -0.8,-2.047488 -1.888736,-2.207488l-0.000002,0.000064z"/>
     </g>
    </g>
   </g>
  </g>
 </g>
</svg>