<?xml version="1.0" encoding="UTF-8"?>
<svg width="42px" height="56px" viewBox="0 0 42 56" version="1.1" xmlns="http://www.w3.org/2000/svg" xmlns:xlink="http://www.w3.org/1999/xlink">
    <!-- Generator: sketchtool 57.1 (101010) - https://sketch.com -->
    <title>9B910935-7065-4E29-96B2-FB331489BE37@1x</title>
    <desc>Created with sketchtool.</desc>
    <g id="products" stroke="none" stroke-width="1" fill="none" fill-rule="evenodd">
        <g id="products-3" transform="translate(-590.000000, -3631.000000)" fill="#D0D0D0">
            <g id="Group-15" transform="translate(169.000000, 3523.000000)">
                <g id="product-copy-7-product/web" transform="translate(405.000000, 93.000000)">
                    <g id="element/indika-element/sativa" transform="translate(16.000000, 15.000000)">
                        <path d="M21,0 C32.5979797,0 42,9.40202025 42,21 C42,32.5979797 32.5979797,42 21,42 C9.40202025,42 0,32.5979797 0,21 C0,9.40202025 9.40202025,0 21,0 Z M20.679,33.469 L20.6771717,33.5954158 C20.634191,35.2863534 20.4279283,36.2969733 19.933003,37.9708462 L19.933003,37.9708462 L20.4015523,38.4016359 L20.5274813,38.000376 C20.9334619,36.6370378 21.1990195,35.0273818 21.246276,33.5234587 C21.7206673,33.4791751 22.1407624,33.2490035 22.4317568,32.9063929 C22.8594776,33.1048713 23.2770725,33.3135073 23.521187,33.4914528 L23.521187,33.4914528 L23.6002064,33.2160991 C23.652214,33.2661824 24.0312945,33.6122523 24.8311418,33.8319461 L24.8311418,33.8319461 L24.9101613,33.5181029 L24.9200796,33.5295776 C25.0111538,33.6340342 25.7083029,34.4142355 26.131096,34.3175292 L26.131096,34.3175292 L26.2290369,33.8985637 L26.2572182,33.9263009 C26.3777656,34.0400479 26.8747678,34.4606129 27.5490095,34.3708142 L27.5490095,34.3708142 L27.569043,33.8867395 L27.5801215,33.8941514 C27.6745361,33.9566303 28.3514569,34.3909382 28.7999784,34.3057049 L28.7999784,34.3057049 L28.8789978,33.8734372 L28.8886627,33.8775876 C28.971196,33.912396 29.5662407,34.1508014 30.050955,34.0037125 L30.050955,34.0037125 L30.0476163,33.583269 C30.1104111,33.6264898 30.4910116,33.8677343 30.9635738,33.6750548 L30.9635738,33.6750548 L30.8355825,33.2427871 L30.8466278,33.2460537 C30.9260421,33.268982 31.4160883,33.4010671 31.7415394,33.2694345 L31.7415394,33.2694345 L31.7415394,33.0592165 L31.7511744,33.0586702 C31.8019828,33.055616 32.0490879,33.0386552 32.3814959,32.9807557 C32.7554549,32.9156188 33.2284745,32.7838628 33.6513797,32.5351478 C32.8144302,32.0125684 31.7504288,31.9459432 31.7504288,31.9459432 L31.7504288,31.9459432 L31.7604455,31.7357252 L31.6682708,31.7027608 C31.3183476,31.6038675 30.8544886,31.7357252 30.8544886,31.7357252 L30.8544886,31.7357252 L30.9824799,31.3034575 L30.8683565,31.2580464 C30.4192932,31.1105598 30.0665224,31.355272 30.0665224,31.355272 L30.0665224,31.355272 L30.0865557,30.9230042 L29.972883,30.8928863 C29.4736676,30.7888539 28.9045978,31.0147901 28.9045978,31.0147901 L28.9045978,31.0147901 L28.8355933,30.5825223 L28.7302508,30.5686481 C28.2581644,30.5443047 27.6046579,30.9629831 27.6046579,30.9629831 L27.6046579,30.9629831 L27.5946413,30.4655682 L27.4421703,30.4479511 C26.7456627,30.4047931 26.2657507,30.8845337 26.2657507,30.8845337 L26.2657507,30.8845337 L26.1767135,30.4789084 L26.0881307,30.4658192 C25.6283274,30.4547617 24.935749,31.2250497 24.935749,31.2250497 L24.935749,31.2250497 L24.8567296,30.8845564 L24.6916139,30.928518 C23.9502589,31.1419022 23.615765,31.4604208 23.615765,31.4604208 L23.615765,31.4604208 L23.5467605,31.185067 L23.4340244,31.2569029 C23.2719354,31.3542811 23.0650283,31.4574436 22.8406539,31.559141 C22.8232299,31.4102721 22.7871981,31.2670553 22.733984,31.132658 C23.3701861,30.7135507 24.0336128,30.3120095 24.4527401,30.1502508 L24.4527401,30.1502508 L24.3247488,29.7579278 C24.3963095,29.7446166 25.0496501,29.6045909 26.0375962,28.7364555 L26.0375962,28.7364555 L25.8795545,28.3041877 L25.8926087,28.3030084 C26.0380907,28.2891735 27.3572677,28.1457855 27.7114979,27.4662947 L27.7114979,27.4662947 L27.5044872,26.9155948 C27.5967378,26.8996291 28.5132116,26.7170782 29.1884153,25.6187536 L29.1884153,25.6187536 L28.8434069,25.0946962 L28.8877767,25.074977 C29.1020143,24.9773332 30.0340129,24.5242357 30.3993209,23.8763423 L30.3993209,23.8763423 L30.153356,23.3389447 L30.1621741,23.332895 C30.25477,23.2687199 31.0530195,22.6996676 31.433269,21.8985069 L31.433269,21.8985069 L31.1182911,21.4662392 L31.1460517,21.4543584 C31.2714778,21.3969383 31.7925981,21.1177915 32.103256,20.3263347 L32.103256,20.3263347 L31.6502918,20.0643022 L31.6591422,20.0569523 C31.7401808,19.9890572 32.355622,19.4606837 32.5851679,18.8858932 L32.5851679,18.8858932 L32.4271262,18.663832 C32.5105287,18.5472391 33.5003749,17.1445991 33.9630104,15.5727726 L33.9630104,15.5727726 L33.9529938,15.5727726 L33.7930835,15.6538322 C32.6257722,16.277833 31.5901608,17.5239276 31.5901608,17.5239276 L31.5901608,17.5239276 L31.4421368,17.3018664 L31.3480558,17.3720682 C30.912025,17.7322943 30.5261793,18.5202203 30.5261793,18.5202203 L30.5261793,18.5202203 L30.3291835,17.9043732 L30.2057013,17.9922215 C29.6163948,18.4514448 29.4432565,19.1878742 29.4432565,19.1878742 L29.4432565,19.1878742 L29.1383077,18.7422663 L29.0255064,18.8385704 C28.4343376,19.3831835 28.0153281,20.3929258 28.0153281,20.3929258 L28.0153281,20.3929258 L27.611313,20.0657575 L27.5208974,20.1618808 C27.0167501,20.7538923 26.6563786,22.1087022 26.6563786,22.1087022 L26.6563786,22.1087022 L26.2723933,21.6112872 L26.1508543,21.7463292 C25.373635,22.6602977 25.2484515,23.8244709 25.2484515,23.8244709 L25.2484515,23.8244709 L24.8444364,23.5224671 L24.7672133,23.6011538 C24.2715891,24.1868424 24.1555024,25.9458726 24.1555024,25.9458726 L24.1555024,25.9458726 L23.8305238,25.7104901 L23.7286252,25.9112048 C23.1110343,27.1593683 23.0136042,27.9636565 23.0136042,27.9636565 L23.0136042,27.9636565 L22.727574,27.7800848 L22.6717703,27.9906063 C22.5037291,28.5829546 22.1880213,29.4109613 21.8730784,30.1865437 C21.738911,30.1195491 21.5950238,30.0689915 21.4433009,30.039517 C21.7595155,28.7478621 22.155937,27.2543919 22.4704859,26.4848543 L22.4704859,26.4848543 L22.1065589,26.3146077 C22.1480454,26.2417388 22.6212069,25.3815204 22.9134494,23.4988792 L22.9134494,23.4988792 L22.4905157,23.3019863 L22.4970122,23.2922399 C22.5907805,23.1507757 23.6660381,21.5021427 23.5244582,20.4995981 L23.5244582,20.4995981 L22.9924575,20.2775369 C23.0525374,20.1739422 23.7261464,18.971638 23.6034662,17.2649269 L23.6034662,17.2649269 L22.9735389,17.2131124 L22.9771635,17.2035014 C23.0294583,17.0639696 23.6283954,15.4367591 23.5155402,14.397384 L23.5155402,14.397384 L22.9646209,14.2138123 C22.9965463,14.0786433 23.3195942,12.6659209 23.1315663,11.5283782 L23.1315663,11.5283782 L22.580647,11.5283782 C22.6202632,11.4298648 22.960106,10.5373761 22.6986205,9.43362662 L22.6986205,9.43362662 L22.1376721,9.72230539 L22.1396545,9.71095947 C22.1615012,9.58402521 22.3532166,8.42029528 22.1766262,7.65271828 L22.1766262,7.65271828 L21.900611,7.65271828 C21.8978133,7.4852443 21.8484928,5.14869275 21.2305955,3.26485557 C21.2305955,3.26485557 21.2205789,3.26485557 21.2205789,3.27817909 C20.5550367,5.17604909 20.4659995,7.62473268 20.4659995,7.62473268 L20.4659995,7.62473268 L20.1899843,7.61140916 L20.1606984,7.74870702 C20.0142689,8.54804418 20.1899843,9.68099626 20.1899843,9.68099626 L20.1899843,9.68099626 L19.6290358,9.36714925 L19.5863743,9.54915712 C19.3624147,10.6288714 19.6980403,11.475241 19.6980403,11.475241 L19.6980403,11.475241 L19.147121,11.448594 L19.1208044,11.6111506 C18.9589654,12.7608916 19.2550797,14.1340281 19.2550797,14.1340281 L19.2550797,14.1340281 L18.6941312,14.3042747 L18.6815658,14.4479376 C18.6188752,15.526909 19.1860723,17.1333055 19.1860723,17.1333055 L19.1860723,17.1333055 L18.5461158,17.146629 L18.5307622,17.36806 C18.4459233,19.0434413 19.0970351,20.1977436 19.0970351,20.1977436 L19.0970351,20.1977436 L18.5550338,20.4079616 L18.5407545,20.5411512 C18.4804466,21.5902658 19.5199688,23.2503325 19.5199688,23.2503325 L19.5199688,23.2503325 L19.0970351,23.4205791 L19.1328486,23.6706725 C19.4032711,25.4597518 19.8360579,26.26295 19.8360579,26.26295 L19.8360579,26.26295 L19.4721309,26.4331967 L19.5399945,26.6142812 C19.8376599,27.447247 20.179072,28.8866833 20.4502254,30.1139069 C20.3316612,30.1585972 20.2191643,30.2155683 20.1144099,30.2851105 C19.762554,29.3602822 19.4029465,28.3391248 19.2651117,27.7165802 L19.2651117,27.7165802 L18.9790815,27.8868268 C18.9701728,27.8008246 18.8672562,26.9295578 18.2111394,25.608496 L18.2111394,25.608496 L17.8861608,25.8305572 L17.885516,25.8176517 C17.8766565,25.6480294 17.771367,23.8557158 17.2562335,23.3819873 L17.2562335,23.3819873 L16.8422178,23.6706661 C16.8308351,23.553475 16.6948498,22.3303555 15.8672535,21.4174997 L15.8672535,21.4174997 L15.4732676,21.8882721 L15.4699281,21.8745159 C15.4322507,21.721054 15.0786722,20.3254503 14.5573101,19.8053448 L14.5573101,19.8053448 L14.1432944,20.1325131 L14.1387482,20.1208994 C14.0905341,19.9989273 13.6632763,18.9469613 13.0704035,18.4300466 L13.0704035,18.4300466 L12.7454249,18.8490121 L12.7432716,18.8394869 C12.7213398,18.7457037 12.5259634,17.9816034 11.8884457,17.5388686 L11.8884457,17.5388686 L11.6814349,18.1413754 L11.6759093,18.1296031 C11.6248657,18.0218102 11.227635,17.2031858 10.7955079,16.8978571 L10.7955079,16.8978571 L10.6396914,17.1080751 L10.633571,17.1003024 C10.544375,16.9876062 9.49281578,15.6782719 8.3058062,15.0651304 L8.3058062,15.0651304 L8.3058062,15.078454 L8.36280052,15.274212 C8.83904741,16.8338112 9.78271215,18.2213582 9.78271215,18.2213582 L9.78271215,18.2213582 L9.61576674,18.4182511 L9.66841652,18.5433923 C9.93807064,19.1233754 10.5217236,19.636605 10.5217236,19.636605 L10.5217236,19.636605 L10.0587303,19.8986375 L10.1248871,20.0628864 C10.4712327,20.8467479 11.0336945,21.0770466 11.0336945,21.0770466 L11.0336945,21.0770466 L10.6886861,21.4826719 L10.7627505,21.6327137 C11.1805278,22.4190523 11.9396513,22.9763946 11.9396513,22.9763946 L11.9396513,22.9763946 L11.6836687,23.5123142 L11.7622426,23.639534 C12.2180736,24.306479 13.229582,24.7825129 13.229582,24.7825129 L13.229582,24.7825129 L12.8556259,25.293268 L12.9558545,25.4549322 C13.6352002,26.4887445 14.5194957,26.6552563 14.5194957,26.6552563 L14.5194957,26.6552563 L14.2924494,27.1926539 L14.3627965,27.3117479 C14.8138751,27.9571853 16.1143638,28.1090343 16.1143638,28.1090343 L16.1143638,28.1090343 L15.9374034,28.5413021 L16.0960909,28.6856444 C17.0300142,29.5123449 17.6313322,29.6412238 17.6313322,29.6412238 L17.6313322,29.6412238 L17.4833082,30.0083634 L17.6318265,30.0769518 C18.1012772,30.3086747 18.7760731,30.7652677 19.3938127,31.2104974 C19.3631931,31.3025786 19.3399831,31.398018 19.3250083,31.4970708 C18.9670528,31.326533 18.6348989,31.1520802 18.4281975,31.0046637 L18.4281975,31.0046637 L18.359193,31.2800174 C18.3071854,31.2283986 17.9281049,30.8719035 17.1282576,30.6508302 L17.1282576,30.6508302 L17.0392204,30.9779984 L17.0294265,30.9665237 C16.9394724,30.8620671 16.2504128,30.0818658 15.8182857,30.1785721 L15.8182857,30.1785721 L15.7192307,30.5975376 L15.6915354,30.5697724 C15.5729911,30.4558432 15.0835005,30.0339119 14.4092588,30.1134629 L14.4092588,30.1134629 L14.3792084,30.6108778 L14.3681335,30.6034658 C14.2737663,30.540987 13.5975088,30.1066791 13.1582736,30.1919123 L13.1582736,30.1919123 L13.0692365,30.6108778 L13.0597174,30.6069162 C12.9784161,30.5736791 12.3919963,30.345781 11.9073084,30.4791207 L11.9073084,30.4791207 L11.9073084,30.9113884 C11.8445136,30.8681676 11.4639132,30.6269231 10.9913509,30.8196026 L10.9913509,30.8196026 L11.1193422,31.2518703 L11.1088089,31.2489155 C11.0311156,31.2269295 10.5411514,31.0937137 10.216719,31.2267036 L10.216719,31.2267036 L10.2167711,31.436756 C10.1563277,31.4403564 9.9092226,31.457317 9.57681461,31.5152168 C9.20285562,31.5803541 8.729836,31.7121097 8.30693078,31.9608247 C9.13385109,32.4848821 10.2078816,32.5500293 10.2078816,32.5500293 L10.2078816,32.5500293 L10.197865,32.7602472 L10.2902731,32.7932117 C10.6408966,32.892105 11.1038219,32.7602472 11.1038219,32.7602472 L11.1038219,32.7602472 L10.9658157,33.192515 L11.0819112,33.237926 C11.5375479,33.3854127 11.8817731,33.1407005 11.8817731,33.1407005 L11.8817731,33.1407005 L11.8706436,33.5581879 L11.9823228,33.5909621 C12.473531,33.7056633 13.0426008,33.4797271 13.0426008,33.4797271 L13.0426008,33.4797271 L13.1216202,33.9119949 L13.2269627,33.9258691 C13.6990491,33.9502125 14.3525557,33.5315341 14.3525557,33.5315341 L14.3525557,33.5315341 L14.3625723,34.028949 L14.5150432,34.0440751 C15.2115509,34.076402 15.6914628,33.5966812 15.6914628,33.5966812 L15.6914628,33.5966812 L15.7805,34.0156467 L15.8690828,34.0289801 C16.3288861,34.0410958 17.0214646,33.2695054 17.0214646,33.2695054 L17.0214646,33.2695054 L17.100484,33.5966736 L17.2655996,33.555203 C18.0069547,33.35265 18.3414485,33.0341116 18.3414485,33.0341116 L18.3414485,33.0341116 L18.4104531,33.3094653 L18.5365116,33.2313416 C18.8097954,33.0719982 19.203329,32.8958734 19.5955974,32.7352727 C19.8425121,33.1085071 20.2278762,33.382977 20.6789522,33.4862947 L20.6789522,33.4862947 L20.679,33.469 Z" id="Combined-Shape" fill-rule="nonzero"></path>
                        <text id="Sativa" font-family="Kiro-Bold, Kiro" font-size="12" font-weight="bold" letter-spacing="-0.548077">
                            <tspan x="7.246231" y="55">Sativa</tspan>
                        </text>
                    </g>
                </g>
            </g>
        </g>
    </g>
</svg>