<?xml version="1.0" encoding="utf-8"?>
<!-- Generator: Adobe Illustrator 24.0.1, SVG Export Plug-In . SVG Version: 6.00 Build 0)  -->
<svg version="1.1" id="Layer_1" xmlns="http://www.w3.org/2000/svg" xmlns:xlink="http://www.w3.org/1999/xlink" x="0px" y="0px"
	 viewBox="0 0 42.52 42.52" style="enable-background:new 0 0 42.52 42.52;" xml:space="preserve">
<style type="text/css">
	.st0{fill:none;}
	.st1{fill:#444547;}
	.st2{clip-path:url(#SVGID_2_);fill:#444547;}
	.st3{clip-path:url(#SVGID_6_);fill:#444547;}
	.st4{clip-path:url(#SVGID_8_);fill:#4B4A4A;}
	.st5{clip-path:url(#SVGID_10_);fill:#4B4A4A;}
	.st6{clip-path:url(#SVGID_12_);fill:#4B4A4A;}
	.st7{clip-path:url(#SVGID_14_);fill:#4B4A4A;}
	.st8{clip-path:url(#SVGID_16_);fill:#4B4A4A;}
	.st9{clip-path:url(#SVGID_18_);fill:#4B4A4A;}
	.st10{clip-path:url(#SVGID_20_);fill:#4B4A4A;}
	.st11{clip-path:url(#SVGID_22_);fill:#4B4A4A;}
	.st12{clip-path:url(#SVGID_24_);fill:#4B4A4A;}
	.st13{clip-path:url(#SVGID_26_);fill:#4B4A4A;}
	.st14{clip-path:url(#SVGID_28_);fill:#4B4A4A;}
	.st15{clip-path:url(#SVGID_30_);fill:#4B4A4A;}
	.st16{clip-path:url(#SVGID_32_);fill:#4B4A4A;}
	.st17{clip-path:url(#SVGID_34_);fill:#4B4A4A;}
	.st18{clip-path:url(#SVGID_36_);fill:#4B4A4A;}
	.st19{clip-path:url(#SVGID_38_);fill:#4B4A4A;}
	.st20{clip-path:url(#SVGID_40_);fill:#4B4A4A;}
	.st21{clip-path:url(#SVGID_42_);fill:#4B4A4A;}
	.st22{clip-path:url(#SVGID_44_);fill:#4B4A4A;}
	.st23{clip-path:url(#SVGID_46_);fill:#4B4A4A;}
	.st24{clip-path:url(#SVGID_48_);fill:#4B4A4A;}
	.st25{clip-path:url(#SVGID_50_);fill:#4B4A4A;}
	.st26{clip-path:url(#SVGID_52_);fill:#4B4A4A;}
	.st27{clip-path:url(#SVGID_54_);fill:#4B4A4A;}
	.st28{clip-path:url(#SVGID_56_);fill:#444547;}
	.st29{clip-path:url(#SVGID_58_);fill:#444547;}
	.st30{clip-path:url(#SVGID_60_);fill:#444547;}
	.st31{clip-path:url(#SVGID_62_);fill:#444547;}
	.st32{clip-path:url(#SVGID_64_);fill:#444547;}
	.st33{clip-path:url(#SVGID_66_);fill:#444547;}
	.st34{clip-path:url(#SVGID_68_);fill:#444547;}
	.st35{clip-path:url(#SVGID_70_);fill:#444547;}
	.st36{clip-path:url(#SVGID_72_);fill:#444547;}
	.st37{clip-path:url(#SVGID_74_);fill:#444547;}
	.st38{clip-path:url(#SVGID_76_);fill:#444547;}
	.st39{clip-path:url(#SVGID_78_);fill:#444547;}
	.st40{clip-path:url(#SVGID_80_);fill:#4B4A4A;}
	.st41{clip-path:url(#SVGID_82_);fill:#4B4A4A;}
	.st42{clip-path:url(#SVGID_84_);fill:#4B4A4A;}
	.st43{clip-path:url(#SVGID_86_);fill:#4B4A4A;}
	.st44{clip-path:url(#SVGID_88_);fill:#4B4A4A;}
	.st45{clip-path:url(#SVGID_90_);fill:#4B4A4A;}
	.st46{clip-path:url(#SVGID_92_);fill:#4B4A4A;}
	.st47{clip-path:url(#SVGID_94_);fill:#4B4A4A;}
	.st48{clip-path:url(#SVGID_96_);fill:#4B4A4A;}
	.st49{clip-path:url(#SVGID_98_);fill:#4B4A4A;}
	.st50{clip-path:url(#SVGID_100_);fill:#4B4A4A;}
	.st51{clip-path:url(#SVGID_102_);fill:#4B4A4A;}
	.st52{fill:#FFFFFF;}
	.st53{clip-path:url(#SVGID_104_);fill:#FFFFFF;}
	.st54{clip-path:url(#SVGID_106_);fill:#FFFFFF;}
	.st55{clip-path:url(#SVGID_108_);fill:#FFFFFF;}
	.st56{clip-path:url(#SVGID_110_);fill:#FFFFFF;}
	.st57{clip-path:url(#SVGID_112_);fill:#FFFFFF;}
	.st58{clip-path:url(#SVGID_114_);fill:#FFFFFF;}
	.st59{clip-path:url(#SVGID_116_);fill:#FFFFFF;}
	.st60{clip-path:url(#SVGID_118_);fill:#FFFFFF;}
	.st61{clip-path:url(#SVGID_120_);fill:#FFFFFF;}
	.st62{clip-path:url(#SVGID_122_);fill:#FFFFFF;}
	.st63{clip-path:url(#SVGID_124_);fill:#FFFFFF;}
	.st64{clip-path:url(#SVGID_126_);fill:#FFFFFF;}
	.st65{clip-path:url(#SVGID_128_);fill:#FFFFFF;}
	.st66{clip-path:url(#SVGID_130_);fill:#FFFFFF;}
	.st67{clip-path:url(#SVGID_132_);fill:#FFFFFF;}
	.st68{clip-path:url(#SVGID_134_);fill:#FFFFFF;}
	.st69{clip-path:url(#SVGID_136_);fill:#FFFFFF;}
	.st70{clip-path:url(#SVGID_138_);fill:#FFFFFF;}
	.st71{clip-path:url(#SVGID_140_);fill:#FFFFFF;}
	.st72{clip-path:url(#SVGID_142_);fill:#FFFFFF;}
	.st73{clip-path:url(#SVGID_144_);fill:#FFFFFF;}
	.st74{clip-path:url(#SVGID_146_);fill:#FFFFFF;}
	.st75{clip-path:url(#SVGID_148_);fill:#FFFFFF;}
	.st76{clip-path:url(#SVGID_150_);fill:#FFFFFF;}
	.st77{clip-path:url(#SVGID_152_);fill:#FFFFFF;}
	.st78{clip-path:url(#SVGID_154_);fill:#FFFFFF;}
	.st79{clip-path:url(#SVGID_156_);fill:#FFFFFF;}
	.st80{clip-path:url(#SVGID_158_);fill:#FFFFFF;}
	.st81{clip-path:url(#SVGID_160_);fill:#FFFFFF;}
	.st82{clip-path:url(#SVGID_162_);fill:#FFFFFF;}
	.st83{clip-path:url(#SVGID_164_);fill:#FFFFFF;}
	.st84{clip-path:url(#SVGID_166_);fill:#FFFFFF;}
	.st85{clip-path:url(#SVGID_168_);fill:#FFFFFF;}
	.st86{clip-path:url(#SVGID_170_);fill:#FFFFFF;}
	.st87{clip-path:url(#SVGID_172_);fill:#FFFFFF;}
	.st88{clip-path:url(#SVGID_174_);fill:#FFFFFF;}
	.st89{clip-path:url(#SVGID_176_);fill:#FFFFFF;}
	.st90{clip-path:url(#SVGID_178_);fill:#FFFFFF;}
	.st91{clip-path:url(#SVGID_180_);fill:#FFFFFF;}
	.st92{clip-path:url(#SVGID_182_);fill:#FFFFFF;}
	.st93{clip-path:url(#SVGID_184_);fill:#FFFFFF;}
	.st94{clip-path:url(#SVGID_186_);fill:#FFFFFF;}
	.st95{clip-path:url(#SVGID_188_);fill:#FFFFFF;}
	.st96{clip-path:url(#SVGID_190_);fill:#FFFFFF;}
	.st97{clip-path:url(#SVGID_192_);fill:#FFFFFF;}
	.st98{clip-path:url(#SVGID_194_);fill:#FFFFFF;}
	.st99{clip-path:url(#SVGID_196_);fill:#FFFFFF;}
	.st100{clip-path:url(#SVGID_198_);fill:#FFFFFF;}
	.st101{clip-path:url(#SVGID_200_);fill:#FFFFFF;}
	.st102{clip-path:url(#SVGID_202_);fill:#444547;}
	.st103{clip-path:url(#SVGID_204_);fill:#444547;}
	.st104{clip-path:url(#SVGID_206_);fill:#FFFFFF;}
	.st105{clip-path:url(#SVGID_208_);fill:#FFFFFF;}
	.st106{clip-path:url(#SVGID_210_);fill:#FFFFFF;}
</style>
<g>
	<path class="st1" d="M34.23,10.46L29.2,6.38c-0.46-0.38-1.14-0.3-1.52,0.16l-0.91,1.12c-0.38,0.46-0.3,1.14,0.16,1.52l1.38,1.12
		l-5.25,6.48l0,0l-0.51,0.62l-2.45,3.03l-2.71-2.2c-0.69-0.56-1.62-0.81-2.47-0.66c-0.74,0.13-1.35,0.55-1.72,1.17L9.11,25.7
		c-0.91,1.54-1.32,3.18-1.2,4.73c0.13,1.7,0.89,3.15,2.21,4.22l0.46,0.38c1.32,1.07,2.9,1.51,4.59,1.28
		c1.54-0.21,3.06-0.96,4.38-2.16l5.96-5.45c0.53-0.5,0.81-1.18,0.78-1.93c0.13-0.79-0.26-1.55-1.15-2.28l-2.74-2.22l8.2-10.13
		l1.38,1.11c0.46,0.38,1.14,0.3,1.52-0.16l0.91-1.12C34.77,11.52,34.7,10.84,34.23,10.46z M24.74,25.24
		c0.46,0.38,0.77,0.96,0.79,1.53c0.01,0.32-0.06,0.77-0.45,1.14l-6.14,5.62c-1.18,1.08-2.57,1.77-3.92,1.95
		c-0.24,0.03-0.48,0.05-0.72,0.05c-1.16,0-2.24-0.39-3.17-1.14l-0.48-0.39c-1.12-0.9-1.77-2.14-1.87-3.58
		c-0.1-1.36,0.29-2.86,1.09-4.24l4.22-7.17c0.28-0.47,0.71-0.63,1.02-0.69c0.56-0.1,1.2,0.07,1.66,0.45l2.27,1.83l0.57,0.46
		l-0.3,0.37c-0.12,0.15-0.22,0.33-0.28,0.52c-0.19,0.59-0.01,1.22,0.46,1.6c0.16,0.13,0.34,0.22,0.54,0.27
		c0.12,0.03,0.24,0.05,0.36,0.05c0.26,0,0.52-0.07,0.75-0.2c0.17-0.1,0.32-0.22,0.45-0.38l0.3-0.37L24.74,25.24z M20.98,22.82
		c-0.07,0.08-0.15,0.15-0.23,0.2c-0.12,0.07-0.25,0.1-0.38,0.1c-0.06,0-0.12-0.01-0.18-0.02c-0.09-0.02-0.18-0.07-0.26-0.13
		c-0.23-0.19-0.31-0.5-0.22-0.79c0.03-0.1,0.08-0.19,0.15-0.27l3.27-4.05l0,0v0l0,0l5.75-7.1l1.12,0.9L20.98,22.82z M33.61,11.81
		l-0.45,0.56c-0.25,0.31-0.7,0.36-1.01,0.11l-1.1-0.89l-0.56-0.5l-1.12-0.9l-1.7-1.34c-0.31-0.25-0.36-0.7-0.11-1.01l0.45-0.56
		c0.25-0.31,0.7-0.36,1.01-0.11l4.48,3.62C33.81,11.05,33.86,11.5,33.61,11.81z"/>
</g>
</svg>
