<?xml version="1.0" encoding="utf-8"?>
<!-- Generator: Adobe Illustrator 24.0.1, SVG Export Plug-In . SVG Version: 6.00 Build 0)  -->
<svg version="1.1" id="Layer_1" xmlns="http://www.w3.org/2000/svg" xmlns:xlink="http://www.w3.org/1999/xlink" x="0px" y="0px"
	 viewBox="0 0 42.52 42.52" style="enable-background:new 0 0 42.52 42.52;" xml:space="preserve">
<style type="text/css">
	.st0{fill:none;}
	.st1{fill:#444547;}
	.st2{clip-path:url(#SVGID_2_);fill:#444547;}
	.st3{clip-path:url(#SVGID_6_);fill:#444547;}
	.st4{clip-path:url(#SVGID_8_);fill:#4B4A4A;}
	.st5{clip-path:url(#SVGID_10_);fill:#4B4A4A;}
	.st6{clip-path:url(#SVGID_12_);fill:#4B4A4A;}
	.st7{clip-path:url(#SVGID_14_);fill:#4B4A4A;}
	.st8{clip-path:url(#SVGID_16_);fill:#4B4A4A;}
	.st9{clip-path:url(#SVGID_18_);fill:#4B4A4A;}
	.st10{clip-path:url(#SVGID_20_);fill:#4B4A4A;}
	.st11{clip-path:url(#SVGID_22_);fill:#4B4A4A;}
	.st12{clip-path:url(#SVGID_24_);fill:#4B4A4A;}
	.st13{clip-path:url(#SVGID_26_);fill:#4B4A4A;}
	.st14{clip-path:url(#SVGID_28_);fill:#4B4A4A;}
	.st15{clip-path:url(#SVGID_30_);fill:#4B4A4A;}
	.st16{clip-path:url(#SVGID_32_);fill:#4B4A4A;}
	.st17{clip-path:url(#SVGID_34_);fill:#4B4A4A;}
	.st18{clip-path:url(#SVGID_36_);fill:#4B4A4A;}
	.st19{clip-path:url(#SVGID_38_);fill:#4B4A4A;}
	.st20{clip-path:url(#SVGID_40_);fill:#4B4A4A;}
	.st21{clip-path:url(#SVGID_42_);fill:#4B4A4A;}
	.st22{clip-path:url(#SVGID_44_);fill:#4B4A4A;}
	.st23{clip-path:url(#SVGID_46_);fill:#4B4A4A;}
	.st24{clip-path:url(#SVGID_48_);fill:#4B4A4A;}
	.st25{clip-path:url(#SVGID_50_);fill:#4B4A4A;}
	.st26{clip-path:url(#SVGID_52_);fill:#4B4A4A;}
	.st27{clip-path:url(#SVGID_54_);fill:#4B4A4A;}
	.st28{clip-path:url(#SVGID_56_);fill:#444547;}
	.st29{clip-path:url(#SVGID_58_);fill:#444547;}
	.st30{clip-path:url(#SVGID_60_);fill:#444547;}
	.st31{clip-path:url(#SVGID_62_);fill:#444547;}
	.st32{clip-path:url(#SVGID_64_);fill:#444547;}
	.st33{clip-path:url(#SVGID_66_);fill:#444547;}
	.st34{clip-path:url(#SVGID_68_);fill:#444547;}
	.st35{clip-path:url(#SVGID_70_);fill:#444547;}
	.st36{clip-path:url(#SVGID_72_);fill:#444547;}
	.st37{clip-path:url(#SVGID_74_);fill:#444547;}
	.st38{clip-path:url(#SVGID_76_);fill:#444547;}
	.st39{clip-path:url(#SVGID_78_);fill:#444547;}
	.st40{clip-path:url(#SVGID_80_);fill:#4B4A4A;}
	.st41{clip-path:url(#SVGID_82_);fill:#4B4A4A;}
	.st42{clip-path:url(#SVGID_84_);fill:#4B4A4A;}
	.st43{clip-path:url(#SVGID_86_);fill:#4B4A4A;}
	.st44{clip-path:url(#SVGID_88_);fill:#4B4A4A;}
	.st45{clip-path:url(#SVGID_90_);fill:#4B4A4A;}
	.st46{clip-path:url(#SVGID_92_);fill:#4B4A4A;}
	.st47{clip-path:url(#SVGID_94_);fill:#4B4A4A;}
	.st48{clip-path:url(#SVGID_96_);fill:#4B4A4A;}
	.st49{clip-path:url(#SVGID_98_);fill:#4B4A4A;}
	.st50{clip-path:url(#SVGID_100_);fill:#4B4A4A;}
	.st51{clip-path:url(#SVGID_102_);fill:#4B4A4A;}
	.st52{fill:#FFFFFF;}
	.st53{clip-path:url(#SVGID_104_);fill:#FFFFFF;}
	.st54{clip-path:url(#SVGID_106_);fill:#FFFFFF;}
	.st55{clip-path:url(#SVGID_108_);fill:#FFFFFF;}
	.st56{clip-path:url(#SVGID_110_);fill:#FFFFFF;}
	.st57{clip-path:url(#SVGID_112_);fill:#FFFFFF;}
	.st58{clip-path:url(#SVGID_114_);fill:#FFFFFF;}
	.st59{clip-path:url(#SVGID_116_);fill:#FFFFFF;}
	.st60{clip-path:url(#SVGID_118_);fill:#FFFFFF;}
	.st61{clip-path:url(#SVGID_120_);fill:#FFFFFF;}
	.st62{clip-path:url(#SVGID_122_);fill:#FFFFFF;}
	.st63{clip-path:url(#SVGID_124_);fill:#FFFFFF;}
	.st64{clip-path:url(#SVGID_126_);fill:#FFFFFF;}
	.st65{clip-path:url(#SVGID_128_);fill:#FFFFFF;}
	.st66{clip-path:url(#SVGID_130_);fill:#FFFFFF;}
	.st67{clip-path:url(#SVGID_132_);fill:#FFFFFF;}
	.st68{clip-path:url(#SVGID_134_);fill:#FFFFFF;}
	.st69{clip-path:url(#SVGID_136_);fill:#FFFFFF;}
	.st70{clip-path:url(#SVGID_138_);fill:#FFFFFF;}
	.st71{clip-path:url(#SVGID_140_);fill:#FFFFFF;}
	.st72{clip-path:url(#SVGID_142_);fill:#FFFFFF;}
	.st73{clip-path:url(#SVGID_144_);fill:#FFFFFF;}
	.st74{clip-path:url(#SVGID_146_);fill:#FFFFFF;}
	.st75{clip-path:url(#SVGID_148_);fill:#FFFFFF;}
	.st76{clip-path:url(#SVGID_150_);fill:#FFFFFF;}
	.st77{clip-path:url(#SVGID_152_);fill:#FFFFFF;}
	.st78{clip-path:url(#SVGID_154_);fill:#FFFFFF;}
	.st79{clip-path:url(#SVGID_156_);fill:#FFFFFF;}
	.st80{clip-path:url(#SVGID_158_);fill:#FFFFFF;}
	.st81{clip-path:url(#SVGID_160_);fill:#FFFFFF;}
	.st82{clip-path:url(#SVGID_162_);fill:#FFFFFF;}
	.st83{clip-path:url(#SVGID_164_);fill:#FFFFFF;}
	.st84{clip-path:url(#SVGID_166_);fill:#FFFFFF;}
	.st85{clip-path:url(#SVGID_168_);fill:#FFFFFF;}
	.st86{clip-path:url(#SVGID_170_);fill:#FFFFFF;}
	.st87{clip-path:url(#SVGID_172_);fill:#FFFFFF;}
	.st88{clip-path:url(#SVGID_174_);fill:#FFFFFF;}
	.st89{clip-path:url(#SVGID_176_);fill:#FFFFFF;}
	.st90{clip-path:url(#SVGID_178_);fill:#FFFFFF;}
	.st91{clip-path:url(#SVGID_180_);fill:#FFFFFF;}
	.st92{clip-path:url(#SVGID_182_);fill:#FFFFFF;}
	.st93{clip-path:url(#SVGID_184_);fill:#FFFFFF;}
	.st94{clip-path:url(#SVGID_186_);fill:#FFFFFF;}
	.st95{clip-path:url(#SVGID_188_);fill:#FFFFFF;}
	.st96{clip-path:url(#SVGID_190_);fill:#FFFFFF;}
	.st97{clip-path:url(#SVGID_192_);fill:#FFFFFF;}
	.st98{clip-path:url(#SVGID_194_);fill:#FFFFFF;}
	.st99{clip-path:url(#SVGID_196_);fill:#FFFFFF;}
	.st100{clip-path:url(#SVGID_198_);fill:#FFFFFF;}
	.st101{clip-path:url(#SVGID_200_);fill:#FFFFFF;}
	.st102{clip-path:url(#SVGID_202_);fill:#444547;}
	.st103{clip-path:url(#SVGID_204_);fill:#444547;}
	.st104{clip-path:url(#SVGID_206_);fill:#FFFFFF;}
	.st105{clip-path:url(#SVGID_208_);fill:#FFFFFF;}
	.st106{clip-path:url(#SVGID_210_);fill:#FFFFFF;}
</style>
<g>
	<g>
		<g>
			<g>
				<path class="st0" d="M17.02,15.56c-2.18,0-3.46,1.59-3.81,4.73c-0.42,3.77-2.34,7.07-5.13,8.84l-0.09,0.06
					c-0.52,0.33-1.02,0.64-1.2,1.16c-0.13,0.37-0.07,0.89,0.31,1.16c0.29,0.21,0.68,0.32,1.17,0.32c0.35,0,0.71-0.05,1.02-0.1
					c0.83-0.13,1.66-0.34,2.45-0.62c1.93-0.68,3.55-1.66,4.81-2.91c2.12-2.1,4.33-5.82,4.2-9.01c-0.02-0.51-0.11-1.01-0.27-1.47v0
					c-0.49-1.44-2.05-2.12-3.38-2.15L17.02,15.56z"/>
				<path class="st1" d="M22.02,9.65L22.02,9.65c-0.65-0.11-1.27,0.05-1.83,0.45c-1.42,1.03-2.1,3.54-2.34,4.66
					c-0.24-0.04-0.49-0.06-0.73-0.07l-0.1,0c-2.62,0-4.28,1.95-4.67,5.5c-0.39,3.51-2.16,6.57-4.73,8.2l-0.09,0.06
					c-0.57,0.36-1.28,0.81-1.56,1.62c-0.28,0.8-0.03,1.69,0.62,2.16c0.45,0.32,1,0.48,1.68,0.48c0.4,0,0.79-0.05,1.16-0.11
					c0.88-0.14,1.76-0.37,2.6-0.66c2.06-0.72,3.79-1.77,5.14-3.12c2.25-2.24,4.6-6.21,4.46-9.66c-0.02-0.6-0.13-1.17-0.31-1.72
					c-0.4-1.18-1.33-1.95-2.37-2.37c0.24-1.15,0.87-3.29,1.92-4.05c0.31-0.23,0.63-0.31,0.99-0.25c0.31,0.05,0.59-0.16,0.64-0.46
					C22.53,9.99,22.32,9.7,22.02,9.65z M20.48,17.71L20.48,17.71c0.16,0.47,0.25,0.96,0.27,1.47c0.13,3.19-2.09,6.91-4.2,9.01
					c-1.26,1.25-2.88,2.23-4.81,2.91c-0.79,0.28-1.62,0.49-2.45,0.62c-0.31,0.05-0.67,0.1-1.02,0.1c-0.49,0-0.87-0.1-1.17-0.32
					c-0.37-0.27-0.44-0.79-0.31-1.16c0.18-0.52,0.68-0.83,1.2-1.16l0.09-0.06c2.8-1.77,4.71-5.07,5.13-8.84
					c0.35-3.14,1.63-4.73,3.81-4.73l0.09,0C18.43,15.59,19.99,16.26,20.48,17.71z"/>
			</g>
		</g>
		<g>
			<defs>
				<path id="SVGID_201_" d="M15.65,26.32c1.58-1.64,3.4-4.46,3.3-6.99c-0.01-0.25,0.18-0.45,0.43-0.46
					c0.24-0.01,0.45,0.18,0.46,0.43c0.11,2.8-1.76,5.78-3.55,7.64c-0.09,0.09-0.2,0.14-0.32,0.14c-0.11,0-0.22-0.04-0.31-0.12
					C15.48,26.78,15.48,26.5,15.65,26.32L15.65,26.32z"/>
			</defs>
			<clipPath id="SVGID_2_">
				<use xlink:href="#SVGID_201_"  style="overflow:visible;"/>
			</clipPath>
			<rect x="10.52" y="13.87" class="st2" width="14.32" height="18.2"/>
		</g>
	</g>
	<g>
		<g>
			<g>
				<path class="st0" d="M31.19,15.56c-2.18,0-3.46,1.59-3.81,4.73c-0.42,3.77-2.34,7.07-5.13,8.84l-0.09,0.06
					c-0.52,0.33-1.02,0.64-1.2,1.16c-0.13,0.37-0.07,0.89,0.31,1.16c0.29,0.21,0.68,0.32,1.17,0.32c0.35,0,0.71-0.05,1.02-0.1
					c0.83-0.13,1.66-0.34,2.45-0.62c1.93-0.68,3.55-1.66,4.81-2.91c2.12-2.1,4.33-5.82,4.2-9.01c-0.02-0.51-0.11-1.01-0.27-1.47v0
					c-0.49-1.44-2.05-2.12-3.38-2.15L31.19,15.56z"/>
				<path class="st1" d="M36.19,9.65L36.19,9.65c-0.65-0.11-1.27,0.05-1.83,0.45c-1.42,1.03-2.1,3.54-2.34,4.66
					c-0.24-0.04-0.49-0.06-0.73-0.07l-0.1,0c-2.62,0-4.28,1.95-4.67,5.5c-0.39,3.51-2.16,6.57-4.73,8.2l-0.09,0.06
					c-0.57,0.36-1.28,0.81-1.56,1.62c-0.28,0.8-0.03,1.69,0.62,2.16c0.45,0.32,1,0.48,1.68,0.48c0.4,0,0.79-0.05,1.16-0.11
					c0.88-0.14,1.76-0.37,2.6-0.66c2.06-0.72,3.79-1.77,5.14-3.12c2.25-2.24,4.6-6.21,4.46-9.66c-0.02-0.6-0.13-1.17-0.31-1.72
					c-0.4-1.18-1.33-1.95-2.37-2.37c0.24-1.15,0.87-3.29,1.92-4.05c0.31-0.23,0.63-0.31,0.99-0.25c0.31,0.05,0.59-0.16,0.64-0.46
					C36.71,9.99,36.5,9.7,36.19,9.65z M34.65,17.71L34.65,17.71c0.16,0.47,0.25,0.96,0.27,1.47c0.13,3.19-2.09,6.91-4.2,9.01
					c-1.26,1.25-2.88,2.23-4.81,2.91c-0.79,0.28-1.62,0.49-2.45,0.62c-0.31,0.05-0.67,0.1-1.02,0.1c-0.49,0-0.87-0.1-1.17-0.32
					c-0.37-0.27-0.44-0.79-0.31-1.16c0.18-0.52,0.68-0.83,1.2-1.16l0.09-0.06c2.8-1.77,4.71-5.07,5.13-8.84
					c0.35-3.14,1.63-4.73,3.81-4.73l0.09,0C32.6,15.59,34.16,16.26,34.65,17.71z"/>
			</g>
		</g>
		<g>
			<defs>
				<path id="SVGID_203_" d="M29.82,26.32c1.58-1.64,3.4-4.46,3.3-6.99c-0.01-0.25,0.18-0.45,0.43-0.46
					c0.24-0.01,0.45,0.18,0.46,0.43c0.11,2.8-1.76,5.78-3.55,7.64c-0.09,0.09-0.2,0.14-0.32,0.14c-0.11,0-0.22-0.04-0.31-0.12
					C29.66,26.78,29.65,26.5,29.82,26.32L29.82,26.32z"/>
			</defs>
			<clipPath id="SVGID_4_">
				<use xlink:href="#SVGID_203_"  style="overflow:visible;"/>
			</clipPath>
			<rect x="24.7" y="13.87" style="clip-path:url(#SVGID_4_);fill:#444547;" width="14.32" height="18.2"/>
		</g>
	</g>
</g>
</svg>
