<?xml version="1.0" encoding="UTF-8"?>
<svg width="50px" height="50px" viewBox="0 0 50 50" version="1.1" xmlns="http://www.w3.org/2000/svg" xmlns:xlink="http://www.w3.org/1999/xlink">
    <!-- Generator: Sketch 58 (84663) - https://sketch.com -->
    <title>sweet</title>
    <desc>Created with Sketch.</desc>
    <g id="sweet" stroke="none" stroke-width="1" fill="none" fill-rule="evenodd">
        <g id="np_sweet_1849896_000000-copy-3" transform="translate(11.000000, 11.000000)" fill="#4A4A4A">
            <path d="M7.70265378,12.4424382 L6.83900043,13.3064021 C6.68033319,13.4651264 6.68033319,13.7217413 6.83900043,13.8804802 C6.99671908,14.0392044 7.25419032,14.0401558 7.41192356,13.8814305 L8.2765255,13.0174666 C8.38198665,12.9157682 8.42379265,12.7646377 8.38673689,12.6230282 C8.34968356,12.4814115 8.23946974,12.3701993 8.09695526,12.3331424 C7.95538937,12.2960758 7.80527646,12.338845 7.70265864,12.4433934 L7.70265378,12.4424382 Z" id="Path"></path>
            <path d="M12.6055719,7.41759114 L9.11043916,10.9141808 C8.98235815,11.0376574 8.93043038,11.2211516 8.97658905,11.393086 C9.02158977,11.5650292 9.15544284,11.6989046 9.32737252,11.7438971 C9.49930221,11.7888895 9.68276419,11.7381272 9.80623997,11.6100364 L13.3013727,8.11462843 C13.4883026,7.92075914 13.4859955,7.61380312 13.2956033,7.42455715 C13.1063663,7.23415017 12.7994256,7.23184294 12.6055863,7.41763339 L12.6055719,7.41759114 Z" id="Path"></path>
            <path d="M20.5911519,14.1141439 L19.7238588,14.9805565 C19.6180694,15.0825432 19.5761333,15.234102 19.6133044,15.3761129 C19.6504731,15.5181311 19.7610299,15.6296584 19.903988,15.6668203 C20.0459945,15.703992 20.1965746,15.6611016 20.2995119,15.5562568 L21.1658534,14.6888926 C21.3202494,14.5297184 21.3173899,14.2761826 21.1610881,14.1189215 C21.0038325,13.962607 20.7503152,13.9597473 20.5911638,14.1141558 L20.5911519,14.1141439 Z" id="Path"></path>
            <path d="M18.2056687,16.3786006 L14.7109291,19.873354 C14.5828625,19.9968075 14.5309406,20.1802673 14.5759392,20.3521694 C14.6209349,20.5240805 14.7559277,20.6590828 14.9278351,20.7040668 C15.0997425,20.7490508 15.2831868,20.697144 15.4066487,20.5690763 L18.9013883,17.0743229 C19.0882972,16.8816448 19.0859904,16.5735914 18.8956195,16.3843808 C18.7064038,16.1940095 18.3994976,16.1917027 18.2056802,16.3786121 L18.2056687,16.3786006 Z" id="Path"></path>
            <path d="M24.2743371,3.7249555 L20.9612677,0.41023079 C20.4121976,-0.136743597 19.5240363,-0.136743597 18.9749382,0.41023079 L17.9795893,1.40355599 C16.2032667,3.18016554 15.8532552,4.81349923 15.9506144,6.00905176 L15.3249617,5.38220584 C14.4094715,4.46875217 12.9273826,4.46875217 12.0118924,5.38220584 L5.38463369,12.0127755 C4.94493518,12.452545 4.69774303,13.048753 4.69774303,13.6701378 C4.69774303,14.2915227 4.94493798,14.8877307 5.38463369,15.3275002 L6.01137838,15.9543461 C4.81587892,15.8558902 3.18272503,16.2059583 1.40662642,17.9825566 L0.411277572,18.9747896 C0.147674073,19.2384357 0,19.5950542 0,19.9681148 C0,20.3411474 0.147660073,20.6977967 0.411277572,20.96144 L3.72546694,24.2750445 L7.03853627,27.5897692 C7.58760639,28.1367436 8.4757677,28.1367436 9.02486582,27.5897692 L10.0191226,26.5942596 C11.7954452,24.81765 12.1454568,23.1843163 12.0470056,21.989884 L12.6737502,22.6156377 C13.5892404,23.5301836 15.0724214,23.5301836 15.9868196,22.6156377 L22.6140783,15.9850681 C23.0537768,15.5463908 23.3009689,14.9501828 23.3009689,14.328798 C23.3009689,13.7063209 23.053774,13.1101129 22.6140783,12.6714356 L21.9818734,12.0391286 C22.1021906,12.0489742 22.2225077,12.0599137 22.3548457,12.0599137 C23.5076998,12.0599137 24.9930648,11.6168675 26.5944656,10.0163842 L27.5887224,9.02196681 C27.8523259,8.75832073 28,8.40058195 28,8.02864161 C28,7.65560906 27.8523399,7.29895969 27.5887224,7.03531641 L24.2743371,3.7249555 Z M9.36160493,25.9377559 L8.36734812,26.9299889 C8.18249722,27.1126796 7.8849762,27.1126796 7.7001421,26.9299889 L5.4666204,24.6961064 C6.31868852,24.6228105 7.11385876,24.2377412 7.7001421,23.6152642 C7.87733475,23.4325734 7.87405304,23.14158 7.69467324,22.9610849 C7.51419889,22.7816764 7.22324969,22.7783942 7.04059966,22.9556149 C5.78929437,24.2060021 4.57847841,23.6918501 4.33677443,23.5704185 L2.81531623,22.0487145 C3.66847638,21.9743264 4.46364662,21.5881649 5.04883793,20.9635034 C5.23149916,20.7808127 5.23149916,20.4843582 5.04883793,20.3016507 C4.8661767,20.1189432 4.56977012,20.11896 4.38709209,20.3016507 C3.13799887,21.5498535 1.92715492,21.0389781 1.6843589,20.9164543 L1.07293073,20.3016507 C0.985427839,20.2130387 0.935112979,20.0937971 0.935112979,19.969086 C0.935112979,19.844375 0.985427839,19.7240384 1.07293073,19.6365213 L2.06827957,18.6410117 C4.91429349,15.7945381 7.14120698,17.1652647 7.40273561,17.3435754 L8.10275871,18.0437115 C7.44319695,18.1607659 6.83834899,18.4878499 6.38005786,18.9779453 C6.25864866,19.0949996 6.21052067,19.2678576 6.25318007,19.4308493 C6.29583668,19.5949445 6.42381211,19.7218539 6.58678308,19.7645062 C6.74975686,19.8071697 6.9236622,19.7590365 7.04070606,19.637608 C7.52086591,19.072038 8.281063,18.8291747 9.00077075,19.0074854 C9.18015026,19.7284016 8.93623702,20.4876293 8.37074995,20.9678667 C8.24934075,21.0849211 8.20011792,21.2588713 8.24277733,21.421863 C8.28543674,21.5848547 8.41340936,21.7128676 8.57638034,21.7555199 C8.73935412,21.7981834 8.91325946,21.7500501 9.03030332,21.6286216 C9.51922745,21.1702565 9.84737028,20.5652828 9.96329411,19.9056425 L10.6633172,20.6057787 C10.8350413,20.858483 12.2121043,23.085801 9.36172226,25.9377357 L9.36160493,25.9377559 Z M21.9575406,15.3273322 L15.3280418,21.959022 C14.7767596,22.5081808 13.8864423,22.5081808 13.3351601,21.959022 L6.04287942,14.6655635 C5.49271726,14.1153124 5.49271726,13.2226388 6.04287942,12.673452 L12.6723782,6.04176212 C13.2225403,5.49260331 14.1139778,5.49260331 14.66526,6.04176212 L21.9575406,13.3352207 C22.5077028,13.8854717 22.5077028,14.7781453 21.9575406,15.3273322 L21.9575406,15.3273322 Z M26.9277046,8.36545808 L25.9323558,9.36096771 C23.0863418,12.2074413 20.8594284,10.8367147 20.5978997,10.6584041 L19.8978766,9.95826788 C20.5574384,9.84121352 21.1622864,9.5141295 21.6205775,9.02403417 C21.7419867,8.90697981 21.7901147,8.73412179 21.7474553,8.57003787 C21.7047987,8.40703777 21.5768232,8.28012548 21.4138523,8.23747319 C21.2508785,8.19480969 21.0769731,8.24294293 20.9599293,8.36437147 C20.4797694,8.92994147 19.7195723,9.17389692 18.9998646,8.99449403 C18.8204851,8.27357781 19.0643983,7.51435014 19.6298854,7.03411273 C19.7512946,6.91596335 19.8005174,6.74310813 19.757858,6.58011643 C19.7152014,6.41602132 19.587226,6.28911183 19.424255,6.24645954 C19.2612812,6.20379604 19.0873759,6.25192928 18.970332,6.37335782 C18.4814079,6.83172297 18.1532651,7.43669664 18.0373412,8.09633694 L17.3373181,7.39620076 C17.1601255,7.13802415 15.7830428,4.91071733 18.6334529,2.05976282 L19.6331699,1.07083448 C19.8180208,0.888143744 20.1155418,0.888143744 20.3003759,1.07083448 L20.9128961,1.68236142 C21.0343053,1.9208446 21.5505612,3.13514399 20.3003759,4.38992804 C20.1789667,4.50698241 20.1297439,4.68093264 20.1724033,4.84392434 C20.2150599,5.00692445 20.3430353,5.13492894 20.5060063,5.17758124 C20.6689773,5.22023354 20.8428854,5.17101732 20.9599293,5.04958794 C21.5844899,4.46433011 21.9705946,3.66900342 22.0449651,2.81679767 L23.5675153,4.335225 C23.6878325,4.5748032 24.2040883,5.78800757 22.952811,7.03948698 C22.7712419,7.22217771 22.7712419,7.51753996 22.9539048,7.7002475 C23.136566,7.88184602 23.4318805,7.88184602 23.6134665,7.69915361 C24.2380271,7.11389577 24.6241319,6.31856908 24.6995944,5.46636333 L26.9276279,7.69915361 C27.0151308,7.78776564 27.0654456,7.90700723 27.0654456,8.03171829 C27.0654456,8.15642935 27.0151308,8.27676595 26.9276279,8.36428297 L26.9277046,8.36545808 Z" id="Shape" fill-rule="nonzero"></path>
        </g>
    </g>
</svg>