<svg width="500.00000000000006" height="500.00000000000006" xmlns="http://www.w3.org/2000/svg">

 <g>
  <title>background</title>
  <rect fill="none" id="canvas_background" height="402" width="582" y="-1" x="-1"/>
 </g>
 <g>
  <title>Layer 1</title>
  <path id="svg_1" fill-rule="evenodd" fill="#055a5a" d="m36.992,416.569c0,20.078 16.262,36.344 36.34,36.344l118.111,0c20.079,0 36.343,-16.266 36.343,-36.344l0,-145.367c0,-20.079 -16.264,-36.342 -36.343,-36.342l-58.328,0c-10.089,0 -18.17,-8.177 -18.17,-18.17c0,-3.271 0.815,-5.542 0.815,-5.542c13.264,-43.977 46.785,-79.227 89.762,-94.852l0.18,-0.182c12.997,-5.54 22.083,-18.445 22.083,-33.437c0,-20.077 -16.264,-36.341 -36.343,-36.341c-4.906,0 -9.536,0.998 -13.804,2.723l-1.644,0.64c-81.314,31.706 -139.002,110.751 -139.002,203.331l0,163.539zm236.223,0c0,20.078 16.262,36.344 36.341,36.344l118.112,0c20.078,0 36.34,-16.266 36.34,-36.344l0,-145.367c0,-20.079 -16.262,-36.342 -36.34,-36.342l-58.33,0c-10.088,0 -18.169,-8.177 -18.169,-18.17c0,-3.362 0.813,-5.542 0.813,-5.542c13.267,-43.977 46.787,-79.227 89.765,-94.852l0.18,-0.182c12.995,-5.54 22.081,-18.445 22.081,-33.437c0,-20.077 -16.262,-36.341 -36.34,-36.341c-4.906,0 -9.538,0.998 -13.805,2.723l-1.644,0.64c-81.316,31.706 -139.004,110.751 -139.004,203.331l0,163.539z" clip-rule="evenodd"/>
 </g>
</svg>