<?xml version="1.0" encoding="UTF-8"?>
<svg width="24px" height="24px" viewBox="0 0 24 24" version="1.1" xmlns="http://www.w3.org/2000/svg" xmlns:xlink="http://www.w3.org/1999/xlink">
    <!-- Generator: Sketch 57.1 (83088) - https://sketch.com -->
    <title>icon/social/twitter/black@1x</title>
    <desc>Created with Sketch.</desc>
    <g id="icon//social/twitter/black" stroke="none" stroke-width="1" fill="none" fill-rule="evenodd">
        <g id="twitter" transform="translate(4.000000, 6.000000)" fill="#4A4A4A">
            <path d="M15.9545455,1.539 C15.3612358,1.8 14.7290369,1.973 14.0699148,2.057 C14.747983,1.651 15.2655085,1.013 15.5088153,0.244 C14.8766165,0.622 14.1786051,0.889 13.4347244,1.038 C12.8344347,0.397 11.9788722,0 11.0455313,0 C9.23469034,0 7.77684375,1.474 7.77684375,3.281 C7.77684375,3.541 7.79878125,3.791 7.85262784,4.029 C5.133375,3.896 2.72723011,2.589 1.11083523,0.598 C0.828639205,1.089 0.663110795,1.651 0.663110795,2.256 C0.663110795,3.392 1.24644886,4.399 2.11597159,4.982 C1.59046875,4.972 1.0749375,4.819 0.638181818,4.578 C0.638181818,4.588 0.638181818,4.601 0.638181818,4.614 C0.638181818,6.208 1.7719517,7.532 3.25871591,7.837 C2.99247443,7.91 2.70230114,7.945 2.40115909,7.945 C2.19175568,7.945 1.98035795,7.933 1.7819233,7.889 C2.20571591,9.188 3.40828977,10.143 4.83821591,10.174 C3.72538636,11.047 2.31241193,11.573 0.782769886,11.573 C0.514534091,11.573 0.257267045,11.561 0,11.528 C1.44887216,12.465 3.16598011,13 5.01770455,13 C11.0365568,13 14.3271818,8 14.3271818,3.666 C14.3271818,3.521 14.322196,3.381 14.3152159,3.242 C14.9643665,2.78 15.5098125,2.203 15.9545455,1.539 Z" id="Path"></path>
        </g>
    </g>
</svg>