<?xml version="1.0" encoding="UTF-8"?>
<svg width="24px" height="24px" viewBox="0 0 24 24" version="1.1" xmlns="http://www.w3.org/2000/svg" xmlns:xlink="http://www.w3.org/1999/xlink">
    <!-- Generator: Sketch 57.1 (83088) - https://sketch.com -->
    <title>icon/social/youtube/black@1x</title>
    <desc>Created with Sketch.</desc>
    <g id="icon//social/youtube/black" stroke="none" stroke-width="1" fill="none" fill-rule="evenodd">
        <g id="youtube-logo" transform="translate(5.000000, 4.000000)" fill="#4A4A4A">
            <path d="M8.86888648,1.62223339 L8.86888648,5.35945601 C8.86888648,5.68221185 8.8942697,5.91923519 8.94522054,6.0709228 C9.02794649,6.30513824 9.21586226,6.42191023 9.50866052,6.42191023 C9.82687274,6.42191023 10.1548572,6.22633393 10.4922758,5.83389946 L10.4922758,6.35558887 L11.3615437,6.35558887 L11.3615437,1.62223339 L10.4924602,1.62223339 L10.4924602,5.23618312 C10.3013792,5.50851885 10.1201012,5.64412208 9.94801157,5.64412208 C9.83344902,5.64412208 9.76651844,5.57480969 9.74752711,5.43548294 C9.74113521,5.42296948 9.73793926,5.31202693 9.73793926,5.10357092 L9.73793926,1.62223339 L8.86888648,1.62223339 Z" id="Path"></path>
            <path d="M6.88229573,6.42191023 C7.32161605,6.42191023 7.65903471,6.26070018 7.89467462,5.93831059 C8.0729718,5.70443088 8.16212039,5.33107181 8.16212039,4.81890485 L8.16212039,3.15891741 C8.16212039,2.65309874 8.0729718,2.28328007 7.89467462,2.04921724 C7.65903471,1.7264614 7.32164678,1.56525135 6.88229573,1.56525135 C6.45557484,1.56525135 6.12135213,1.7264614 5.87932032,2.04921724 C5.70102314,2.2834632 5.61187455,2.65328187 5.61187455,3.15891741 L5.61187455,4.81890485 C5.61187455,5.32508977 5.70102314,5.69829623 5.87932032,5.93831059 C6.12116775,6.26070018 6.45554411,6.42191023 6.88229573,6.42191023 Z M6.47152386,2.98803232 C6.47152386,2.55186176 6.60845806,2.3337307 6.882265,2.3337307 C7.15591829,2.3337307 7.29300615,2.55189228 7.29300615,2.98803232 L7.29300615,4.9801149 C7.29300615,5.423 7.15591829,5.6441526 6.882265,5.6441526 C6.60842733,5.6441526 6.47152386,5.423 6.47152386,4.9801149 L6.47152386,2.98803232 Z" id="Shape" fill-rule="nonzero"></path>
            <path d="M4.44679682,6.35558887 L4.44679682,3.78501795 L5.60247108,0 L4.62825922,0 L3.97886659,2.49491023 L3.3004953,0 L2.28811641,0 C2.46641359,0.531425494 2.67328995,1.12279354 2.90892986,1.77373788 C3.20815076,2.64678097 3.40224331,3.31695332 3.49157628,3.78504847 L3.49157628,6.35543627 L4.44676609,6.35543627 L4.44676609,6.35558887 L4.44679682,6.35558887 Z" id="Path"></path>
            <path d="M13.3625777,7.84484381 C13.0791522,7.59213285 12.7528579,7.44361939 12.3836949,7.3989982 C11.2120409,7.27273429 9.44511027,7.20922083 7.08296457,7.20922083 C4.72063449,7.20922083 2.95689986,7.27255117 1.79163774,7.3989982 C1.41586768,7.44346679 1.08806761,7.59213285 0.807838033,7.84484381 C0.52760846,8.09831777 0.342950108,8.4110018 0.253801518,8.78417774 C0.0881037599,9.51786355 0.00553145336,10.6242065 0.00553145336,12.1043052 C0.00553145336,13.6094004 0.0882881417,14.7159264 0.253801518,15.4244327 C0.336527477,15.7972424 0.519526392,16.1102926 0.802951916,16.3634004 C1.08619306,16.6165081 1.41248735,16.7618169 1.78183478,16.7999372 C2.95333514,16.9325494 4.720235,16.9988707 7.08278019,16.9988707 C9.44511027,16.9988707 11.2120409,16.9325494 12.3835105,16.7999372 C12.7527043,16.7618169 13.0774928,16.6165081 13.3576916,16.3634004 C13.6377368,16.1102926 13.8224259,15.7972424 13.9117589,15.4244327 C14.0772722,14.6907163 14.1599982,13.5840072 14.1599982,12.1043052 C14.1599982,10.5991795 14.0772722,9.4926535 13.9117589,8.78417774 C13.8288178,8.4110018 13.6458189,8.09831777 13.3625777,7.84484381 Z M4.0456128,9.7420377 L3.02364606,9.7420377 L3.02364606,15.139614 L2.06860991,15.139614 L2.06860991,9.7420377 L1.0658496,9.7420377 L1.0658496,8.8504991 L4.04582791,8.8504991 L4.04582791,9.7420377 L4.0456128,9.7420377 L4.0456128,9.7420377 Z M6.62425343,15.139614 L5.77416124,15.139614 L5.77416124,14.6270503 C5.43035069,15.0127702 5.10559291,15.2059048 4.79994939,15.2059048 C4.50693601,15.2059048 4.32243131,15.0887971 4.24591287,14.8549479 C4.19493131,14.7030772 4.16954808,14.4726158 4.16954808,14.1623429 L4.16954808,10.4533214 L5.01964027,10.4533214 L5.01964027,13.9064578 C5.01964027,14.1087487 5.02283623,14.2195081 5.02922813,14.2383698 C5.04840383,14.370982 5.11518077,14.4373034 5.22989696,14.4373034 C5.40180224,14.4373034 5.58329537,14.3046912 5.77437636,14.0388869 L5.77437636,10.4533214 L6.62443782,10.4533214 L6.62443782,15.139614 L6.62425343,15.139614 Z M9.87164678,13.7357253 C9.87164678,14.1974417 9.84303688,14.5134829 9.78569414,14.6842154 C9.67736985,15.0318456 9.45147144,15.2059048 9.10750723,15.2059048 C8.80192516,15.2059048 8.50586949,15.0318456 8.21927874,14.6842154 L8.21927874,15.139614 L7.36918655,15.139614 L7.36918655,8.8504991 L8.21927874,8.8504991 L8.21927874,10.9088725 C8.4929013,10.5675907 8.78911063,10.3967056 9.10750723,10.3967056 C9.45131779,10.3967056 9.67736985,10.5737864 9.78569414,10.9277343 C9.84303688,11.0923016 9.87164678,11.4053214 9.87164678,11.8670682 L9.87164678,13.7357253 Z M13.0998644,12.9579066 L11.3903073,12.9579066 L11.3903073,13.7831544 C11.3903073,14.2196607 11.5366142,14.437456 11.8296276,14.437456 C12.0396999,14.437456 12.1670155,14.3237056 12.2116052,14.0962047 C12.2242046,14.0328743 12.2307809,13.8401059 12.2307809,13.5173501 L13.0998644,13.5173501 L13.0998644,13.6408061 C13.0998644,13.9508654 13.0934725,14.1339282 13.080658,14.1910628 C13.0614823,14.362009 12.9947054,14.5323447 12.8802043,14.7032298 C12.6509563,15.0381634 12.3071764,15.206088 11.8486497,15.206088 C11.4093294,15.206088 11.0653344,15.0448779 10.8170951,14.7221221 C10.632406,14.4882729 10.5400615,14.121781 10.5400615,13.6219443 L10.5400615,11.9808187 C10.5400615,11.4813788 10.6292101,11.1145206 10.8075072,10.8802747 C11.0557466,10.5578851 11.3963304,10.396675 11.829474,10.396675 C12.2560105,10.396675 12.5935828,10.5578546 12.8418221,10.8802747 C13.0137274,11.1145206 13.09968,11.4813483 13.09968,11.9808187 L13.09968,12.9579066 L13.0998644,12.9579066 L13.0998644,12.9579066 Z" id="Shape" fill-rule="nonzero"></path>
            <path d="M11.8200398,11.1647882 C11.533449,11.1647882 11.390338,11.3799892 11.390338,11.8099641 L11.390338,12.2465009 L12.2499873,12.2465009 L12.2499873,11.8099641 C12.2497722,11.3801418 12.1066612,11.1647882 11.8200398,11.1647882 Z" id="Path"></path>
            <path d="M8.64919559,11.1647882 C8.50267354,11.1647882 8.35937816,11.2344668 8.21946312,11.3738241 L8.21946312,14.2288474 C8.35940889,14.3681741 8.50270427,14.4374865 8.64919559,14.4374865 C8.89743492,14.4374865 9.0217697,14.2258564 9.0217697,13.8020467 L9.0217697,11.8006553 C9.02155459,11.3767846 8.89743492,11.1647882 8.64919559,11.1647882 Z" id="Path"></path>
        </g>
    </g>
</svg>